<svg xmlns="http://www.w3.org/2000/svg" xmlns:xlink="http://www.w3.org/1999/xlink" width="18" height="17" viewBox="0 0 18 17">
    <defs>
        <path id="ocpgznzkoa" d="M7.674 1.064l.884-.807C8.746.086 8.973 0 9.241 0c.268 0 .496.086.683.257l7.795 7.12c.187.17.281.378.281.623s-.094.453-.281.624l-7.795 7.12c-.187.17-.415.256-.683.256-.268 0-.495-.086-.683-.257l-.884-.807c-.214-.171-.315-.38-.301-.624.013-.245.114-.453.301-.624l4.822-4.22H.964c-.268 0-.495-.086-.683-.257C.094 9.04 0 8.831 0 8.587V7.413c0-.245.094-.453.281-.624.188-.171.415-.257.683-.257h11.532l-4.822-4.22c-.187-.171-.288-.38-.301-.624-.014-.245.087-.453.301-.624z"/>
    </defs>
    <g fill="none" fill-rule="evenodd">
        <g>
            <g>
                <g transform="translate(-266 -1569) translate(242 1553) matrix(-1 0 0 1 42 16.107)">
                    <mask id="fa6j1aglrb" fill="#fff">
                        <use xlink:href="#ocpgznzkoa"/>
                    </mask>
                    <use fill="#131E29" xlink:href="#ocpgznzkoa"/>
                    <g mask="url(#fa6j1aglrb)">
                        <path fill="#AAA" d="M0 0H18V16H0z"/>
                        <g fill="#FFF">
                            <path d="M0 0H18V16H0z"/>
                        </g>
                    </g>
                </g>
            </g>
        </g>
    </g>
</svg>
