<?xml version="1.0" encoding="UTF-8"?>
<svg width="16px" height="11px" viewBox="0 0 16 11" version="1.1" xmlns="http://www.w3.org/2000/svg" xmlns:xlink="http://www.w3.org/1999/xlink">
    <title>dda</title>
    <g id="Page-1" stroke="none" stroke-width="1" fill="none" fill-rule="evenodd">
        <g id="Artboard" transform="translate(-4.000000, -6.000000)" fill="#FFFFFF">
            <path d="M5.34265734,6.333334 L18.6573427,6.333334 C19.0303033,6.333334 19.3473191,6.48236894 19.6083916,6.78043979 C19.8694642,7.07851064 20,7.44045277 20,7.86626813 C20,8.29208349 19.8694642,8.65402562 19.6083916,8.95209648 L12.951049,16.5528949 C12.6899764,16.8509657 12.3729607,17.0000007 12,17.0000007 C11.6270393,17.0000007 11.3100236,16.8509657 11.048951,16.5528949 L4.39160839,8.95209648 C4.13053585,8.65402562 4,8.29208349 4,7.86626813 C4,7.44045277 4.13053585,7.07851064 4.39160839,6.78043979 C4.65268094,6.48236894 4.96969669,6.333334 5.34265734,6.333334 Z" id="dda" transform="translate(12.000000, 11.666667) scale(-1, -1) rotate(-180.000000) translate(-12.000000, -11.666667) "></path>
        </g>
    </g>
</svg>