<svg xmlns="http://www.w3.org/2000/svg" xmlns:xlink="http://www.w3.org/1999/xlink" width="56" height="56" viewBox="0 0 56 56">
    <defs>
        <path id="a" d="M13.768 1.596c.286.257.42.57.402.936a1.395 1.395 0 0 1-.402.936l-6.429 6.33h15.375c.357 0 .661.129.911.385.25.257.375.57.375.936v1.762c0 .367-.125.679-.375.936-.25.256-.554.385-.91.385H7.338l6.429 6.33c.25.257.384.569.402.936.017.367-.116.679-.402.936l-1.179 1.21c-.25.258-.553.386-.91.386-.358 0-.661-.128-.911-.385L.375 12.935A1.292 1.292 0 0 1 0 12c0-.367.125-.679.375-.936L10.768.385c.25-.257.553-.385.91-.385.358 0 .661.128.911.385l1.179 1.211z"/>
    </defs>
    <g fill="none" fill-rule="evenodd">
        <circle cx="28" cy="28" r="28" fill="#FFF"/>
        <g transform="translate(16 16)">
            <mask id="b" fill="#fff">
                <use xlink:href="#a"/>
            </mask>
            <use fill="#002C5C" xlink:href="#a"/>
            <g mask="url(#b)">
                <path fill="#002C5C" d="M0 0h24v24H0z"/>
                <path fill="#FFF" fill-opacity="0" d="M0 0h24v24H0z"/>
            </g>
        </g>
    </g>
</svg>
