<svg xmlns="http://www.w3.org/2000/svg" xmlns:xlink="http://www.w3.org/1999/xlink" width="25" height="24" viewBox="0 0 25 24">
    <defs>
        <path id="aqfy4k2wta" d="M20.437 7.5H.562c-.156 0-.289-.055-.398-.164C.054 7.226 0 7.094 0 6.937V5.25c0-.625.219-1.156.656-1.594C1.094 3.22 1.625 3 2.25 3H4.5V.562c0-.156.055-.289.164-.398.11-.11.242-.164.398-.164h1.875c.157 0 .29.055.399.164.11.11.164.242.164.398V3h6V.562c0-.156.055-.289.164-.398.11-.11.242-.164.398-.164h1.875c.157 0 .29.055.399.164.11.11.164.242.164.398V3h2.25c.625 0 1.156.219 1.594.656.437.438.656.969.656 1.594v1.687c0 .157-.055.29-.164.399-.11.11-.242.164-.399.164zm0 1.5c.157 0 .29.055.399.164.11.11.164.242.164.398v9.855c0 .053-.021.104-.058.142l-4.368 4.382c-.037.038-.088.059-.141.059H2.25c-.625 0-1.156-.219-1.594-.656C.22 22.906 0 22.374 0 21.75V9.562c0-.156.055-.289.164-.398C.274 9.054.406 9 .562 9h19.875zm-1.42 9H15.8c-.442 0-.8.358-.8.8v3.217c0 .053.021.104.059.142.078.078.204.078.282 0l3.818-3.818c.037-.037.058-.088.058-.141 0-.11-.09-.2-.2-.2zm-13.58 0H3.562c-.156 0-.289.055-.398.164-.11.11-.164.242-.164.398v1.875c0 .157.055.29.164.399.11.11.242.164.398.164h1.875c.157 0 .29-.055.399-.164.11-.11.164-.242.164-.399v-1.875c0-.156-.055-.289-.164-.398-.11-.11-.242-.164-.399-.164zm6 0H9.562c-.156 0-.289.055-.398.164-.11.11-.164.242-.164.398v1.875c0 .157.055.29.164.399.11.11.242.164.398.164h1.875c.157 0 .29-.055.399-.164.11-.11.164-.242.164-.399v-1.875c0-.156-.055-.289-.164-.398-.11-.11-.242-.164-.399-.164zm-6-6H3.562c-.156 0-.289.055-.398.164-.11.11-.164.242-.164.398v1.875c0 .157.055.29.164.399.11.11.242.164.398.164h1.875c.157 0 .29-.055.399-.164.11-.11.164-.242.164-.399v-1.875c0-.156-.055-.289-.164-.398-.11-.11-.242-.164-.399-.164zm6 0H9.562c-.156 0-.289.055-.398.164-.11.11-.164.242-.164.398v1.875c0 .157.055.29.164.399.11.11.242.164.398.164h1.875c.157 0 .29-.055.399-.164.11-.11.164-.242.164-.399v-1.875c0-.156-.055-.289-.164-.398-.11-.11-.242-.164-.399-.164zm6 0h-1.875c-.156 0-.289.055-.398.164-.11.11-.164.242-.164.398v1.875c0 .157.055.29.164.399.11.11.242.164.398.164h1.875c.157 0 .29-.055.399-.164.11-.11.164-.242.164-.399v-1.875c0-.156-.055-.289-.164-.398-.11-.11-.242-.164-.399-.164z"/>
    </defs>
    <g fill="none" fill-rule="evenodd">
        <g>
            <g>
                <g>
                    <g>
                        <g transform="translate(-960 -2584) translate(250 2534) translate(17.455 34) translate(693.09 16) translate(1.5)">
                            <mask id="9wnygtm9fb" fill="#fff">
                                <use xlink:href="#aqfy4k2wta"/>
                            </mask>
                            <use fill="#FFF" fill-rule="nonzero" xlink:href="#aqfy4k2wta"/>
                            <g mask="url(#9wnygtm9fb)">
                                <g>
                                    <path fill="#AAA" d="M0 0H24V24H0z" transform="translate(-1.5)"/>
                                    <g>
                                        <path fill="#002C5C" d="M0 0H24V24H0z" transform="translate(-1.5)"/>
                                    </g>
                                </g>
                            </g>
                        </g>
                    </g>
                </g>
            </g>
        </g>
    </g>
</svg>
