<svg height="32" viewBox="0 0 32 32" width="32" xmlns="http://www.w3.org/2000/svg"><g fill="none" fill-rule="evenodd"><path d="m0 3h32v26h-32z" fill="#fff"/><g fill-rule="nonzero"><path d="m0 29h32v-3h-32z" fill="#f7b600" transform="matrix(1 0 0 -1 0 55)"/><path d="m0 3h32v3h-32z" fill="#1a1f71" transform="matrix(1 0 0 -1 0 9)"/><g fill="#1a1f71" transform="translate(4 11)"><path d="m11.8835368 7.8587528-1.6035143-7.73727706h-1.93941871l1.60351432 7.73727706zm8.1585534-4.99600616 1.0211984 2.90561111.5866067-2.90561111zm2.1648363-2.7412709h1.7930735l-1.5665832 7.73727706h-1.6543904c-.3731419 0-.6866731-.22349638-.825816-.56720312l-2.9100475-7.17007394h2.0365735l.4039434 1.15575942h2.488175zm-5.0626245 2.52615761c.0081218 2.0416782-2.7350462 2.15492901-2.717117 3.06726245.0065893.27727469.2625019.57258097.8227511.64802879.2775196.03701214 1.0441846.06659019 1.9126016-.34639569l.3397354 1.6416624c-.466619.17414686-1.0670174.3418087-1.8139143.3418087-1.9171988 0-3.2658732-1.05104989-3.2766001-2.5573174-.0125658-1.11416033.9632733-1.73514178 1.6971446-2.10621221.7559381-.378979 1.0093988-.62256317 1.0058743-.96120842-.0053635-.51911899-.6036165-.74894223-1.1598815-.75748349-.9753793-.01597533-1.5408388.27205504-1.9918272.48890822l-.3519947-1.69607339c.4537468-.21463878 1.2899832-.40112302 2.1561016-.41061331 2.0381059 0 3.3711498 1.03902882 3.3771262 2.64763335zm-8.03212953 5.21111945-3.14205448-7.73727706h-2.05005874l-1.54635541 6.1750168c-.09363028.37945351-.17515452.51911897-.46048935.67950493-.46631251.26145755-1.23634878.50599073-1.91321449.65815173l.04566583.2246036h3.30035246c.42003371 0 .79823262-.28866305.89431476-.78848511l.81708129-4.47767803 2.01711191 5.26616314z" transform="matrix(1 0 0 -1 0 8)"/><path d="m1.129 1.117h-.829v-.764h.927v-.229h-1.207v2.119h1.159v-.23h-.879v-.669h.829z" transform="matrix(1 0 0 -1 12.986 11.217)"/><path d="m14.641 11.093h.28v-2.232h-.28z" transform="matrix(1 0 0 -1 0 19.954)"/><path d="m1.12861618.95771145c.00322461.17286691-.07303759.44645314-.38743781.44645314-.28586236 0-.40662429-.25475124-.42887415-.44645314zm-.81937535-.19808665c.00628801-.37430556.24458725-.52833749.52706376-.52833749.20024875 0 .32407407.03463723.42581076.07853234l.05078772-.19808665c-.09851206-.04389511-.26990049-.09736733-.51464897-.09736733-.47305141 0-.75568915.31125622-.75568915.77031924s.27296389.81756633.72086328.81756633c.50497513 0 .63524967-.4340029.63524967-.71381426 0-.05650497-.00322461-.09736733-.00967384-.12881218z" transform="matrix(1 0 0 -1 15.316 11.142)"/><path d="m1.28984706.15961857c-.07303759-.03463723-.23507463-.08810945-.44145015-.08810945-.46370002 0-.76536301.31125622-.76536301.77670398 0 .46848051.32375162.8111816.82566336.8111816.16510042 0 .3111756-.04070274.3874378-.08172472l-.06336373-.21069651c-.06691082.03463723-.17171089.07246683-.32407407.07246683-.35261194 0-.54302562-.26097637-.54302562-.57558458 0-.35211857.2286254-.56904021.53351299-.56904021.15881242 0 .26361249.03766998.34293809.07230721z" transform="matrix(1 0 0 -1 16.946 11.2)"/><path d="m.64492353 2.07504146v-.36472844h.40001382v-.2105369h-.40001382v-.8207587c0-.18882878.05401235-.29561361.20960015-.29561361.07610098 0 .12076193.00622513.16203704.01899461l.01273724-.21085613c-.05401235-.01883499-.13978718-.03766999-.24781187-.03766999-.13027456 0-.23507463.04405473-.30166298.11620233-.07626221.0850767-.10802469.22011401-.10802469.39936567v.83033582h-.23829925v.2105369h.23829925v.28300373z" transform="matrix(1 0 0 -1 18.375 11.282)"/><path d="m.16123088 1.11733001c0 .17925166-.00338585.33328359-.01273724.47486526h.24458725l.01273724-.30183872h.00935139c.06997421.20431177.24136263.33328358.42871292.33328358.0286991 0 .05094896-.00319237.07642344-.00622512v-.26113599c-.0286991.00638474-.05707573.00638474-.09544868.00638474-.19670168 0-.33665009-.14461443-.37470058-.35227819-.006288-.03766998-.00951262-.08475746-.00951262-.1289718v-.8111816h-.27941312z" transform="matrix(1 0 0 -1 19.649 11.164)"/><path d="m.32246177.79809287c0-.33328358.1905749-.58484246.46370002-.58484246.2668371 0 .4667634.24852612.4667634.5912272 0 .257784-.13011332.5818097-.4604754.5818097-.32697623 0-.46998802-.30199834-.46998802-.58819444m1.216487.01580224c0-.56281509-.39711166-.80814884-.76552422-.80814884-.4129123 0-.73666391.30199834-.73666391.78292911 0 .50631011.33971347.80495646.76213839.80495646.44145015 0 .74004974-.31748134.74004974-.77973673" transform="matrix(1 0 0 -1 20.748 11.134)"/><path d="m.16123088 1.11733002c0 .16025705-.00338585.28603648-.01273724.41181592h.24765064l.01596186-.25155887h.006288c.07626221.14158167.25409987.28300372.50819974.28300372.21266353 0 .54302561-.12577943.54302561-.64757255v-.90567579h-.27941312v.87726369c0 .24517412-.09206283.44964552-.35567532.44964552-.18106229 0-.32407407-.12897181-.37470057-.28300374-.01289847-.03463722-.01918648-.0817247-.01918648-.1289718v-.91493367h-.27941312z" transform="matrix(1 0 0 -1 22.554 11.1)"/></g></g></g></svg>
