<svg height="32" viewBox="0 0 32 32" width="32" xmlns="http://www.w3.org/2000/svg"><g fill="none" fill-rule="evenodd"><path d="m0 3h32v26h-32z" fill="#006fcf"/><g fill-rule="nonzero"><path d="m28.0603444 14.5461204h2.4002898v-5.5461204h-2.5618785v.88694069l-.5702105-.88694069h-2.2334699v1.1215154l-.50046-1.1215154h-3.6921276c-.1772825 0-.3504964.01298384-.5181882.03895153-.142698.02221679-.2816178.05395507-.4155969.09550337-.105207.03260387-.2075078.07126687-.3060305.11598899-.1156695.05280096-.2263985.11368075-.3313149.18321644v-.19071821-.24294212h-12.04969334l-.32811806.96715198-.33393065-.96715198h-2.80368034v1.1333452l-.50598191-1.1333452h-2.28723587l-1.02271703 2.3722923v2.6801535.4936746h1.61995587l.30138039-.7960538h.57050114l.3069023.7960538h12.4641277v-.8067294l.6242671.8067294h3.4442227v-.1774459-.2259188c.0889319.0571289.1813513.1070445.2752239.1506125.0941633.0432795.1903609.0802113.2877209.1113726.1203197.0389515.2426737.0683815.3644465.0903098.198789.0357777.3967061.0510698.5847419.0510698h2.0611279l.3013804-.7960538h.5705011l.3066117.7960538h3.4552665v-.8228871zm3.9176544 8.1122603v-5.203924h-.279874-19.5571745l-.505982.7106489-.5001694-.7106489h-5.70472076v5.5455433h5.68292386l.4952286-.7213246.5112132.7213246h3.5572767v-1.1965332h-.0374909c.4423345 0 .8442719-.0793457 1.2002902-.2106268v1.40716h2.4807935v-.8064409l.6242673.8064409h10.7633773c.3098086 0 .6001452-.0522239.8605471-.1459961.1464761-.052801.2836521-.1185858.4094938-.1956232z" fill="#fff"/><path d="m30.7293188 21.3544944h-1.9330639v.7485352h1.9057311c.8135849 0 1.298014-.4919028 1.298014-1.1922292 0-.6682834-.4361606-1.0582838-1.1683289-1.0582838h-.8723212c-.2157541 0-.3660842-.1391415-.3660842-.3582461 0-.2245894.1503301-.3741232.3660842-.3741232h1.6364746l.3343898-.7592161h-1.9441133c-.8132941 0-1.2977232.4919027-1.2977232 1.1653823 0 .6896454.4579687 1.0851306 1.1741444 1.0851306h.8667966c.2151725 0 .371318.1388528.371318.3637309 0 .2294969-.1561455.3793194-.371318.3793194zm-3.5861126 0h-1.9327731v.7485352h1.9057311c.8132942 0 1.298014-.4919028 1.298014-1.1922292 0-.6682834-.4361606-1.0582838-1.1686196-1.0582838h-.8723213c-.2154633 0-.3660842-.1391415-.3660842-.3582461 0-.2245894.1506209-.3741232.3660842-.3741232h1.6367654l.334099-.7592161h-1.9441132c-.8130034 0-1.2977232.4919027-1.2977232 1.1653823 0 .6896454.4579686 1.0851306 1.1741443 1.0851306h.8667966c.2151725 0 .371318.1388528.371318.3637309 0 .2294969-.1561455.3793194-.371318.3793194zm-2.4820447-2.2343471v-.7592161h-3.0153237v3.7420984h3.0153237v-.75402h-2.1107266v-.7534426h2.0621674v-.7485352h-2.0621674v-.7268845zm-5.0507399.0051962c.3230497 0 .4954785.2084236.4954785.4653446 0 .2563437-.1724288.4592825-.4954785.4592825h-1.0607426v-.9246271zm-1.0607426 1.6304383h.425402l1.1252944 1.3472478h1.1252943l-1.2543979-1.3792908c.6408654-.1177795 1.0229421-.5773507 1.0229421-1.1760633 0-.7003264-.5007124-1.1867443-1.3029572-1.1867443h-2.0461748v3.7420984h.9045971zm-2.3046727-1.1388242c0 .2517249-.1613794.4598598-.4791951.4598598h-1.0822599v-.9191423h1.0822599c.3178157 0 .4791951.2029388.4791951.4592825zm-2.4660521-1.2560264v3.7420984h.9045971v-1.2352418h1.1360531c.8240527 0 1.335233-.5343381 1.335233-1.2560264 0-.7427616-.5004216-1.2508302-1.3029572-1.2508302zm-1.3299991 3.7420984h1.1308191l-1.5131865-1.8870707 1.5024279-1.8550277h-1.0982524l-.9264052 1.1867443-.9205896-1.1867443h-1.13081912l1.50766182 1.8709048-1.5024279 1.8711936h1.0985432l.9261144-1.2029102zm-3.13919328-2.9828823v-.7592161h-3.0153237v3.7420984h3.0153237v-.75402h-2.11043582v-.7534426h2.06216738v-.7485352h-2.06216738v-.7268845zm17.49405248-7.7149556-.0107586-.3100373.1884214.3100373 1.4428192 2.239832h1.0557995v-3.74209845h-.8830798v2.16506505l.0107586.2779943-.1669042-.2779943-1.4111249-2.16506505h-1.1087203v3.74209845h.8827891zm-3.6073391-.1068099.2744904-.7003263.2741997.7003263.3343898.8284982h-1.2116542zm1.4966125 2.3466419h1.0174173l-1.6094327-3.74209845h-1.1904277l-1.6149573 3.74209845h.9636242l.3178157-.8019401h1.7929109zm-3.946672 0h.0485592l.3713181-.7964553h-.2744905c-.619348 0-.9854321-.3848042-.9854321-1.0476028v-.0534049c0-.5935165.3282835-1.0372105.9746736-1.0372105h.9799074v-.80742495h-1.0552179c-1.1630949 0-1.7984356.77538195-1.7984356 1.83915055v.064086c0 1.1119774.651624 1.8336657 1.7391178 1.8388619zm-3.2145037 0h.9045971v-1.6468928-2.09520565h-.9045971v2.07384365zm-1.900788-2.9773975c.3230496 0 .4954785.2084236.4954785.465056s-.1724289.4595711-.4954785.4595711h-1.0607426v-.9246271zm-1.0607426 1.6304383h.425402l1.1255851 1.3469592h1.1252944l-1.2546887-1.3792908c.6408654-.1174909 1.0232328-.5773507 1.0232328-1.1757747 0-.7003263-.5010031-1.18703295-1.3032479-1.18703295h-2.0461748v3.74209845h.9045971zm-1.5666889-1.6359231v-.75921615h-3.0153237v3.74209845h3.0153237v-.7644123h-2.1107266v-.7430504h2.0621674v-.7482464h-2.0621674v-.7271732zm-7.50050866.4278168-.02180803-1.0103636 1.04475002 3.5654291h.8185281l1.04445929-3.5440672-.02151723.9835169v2.5605503h.87755514v-3.74209845h-1.59373091l-.71617571 2.65148295-.72140963-2.65148295h-1.58849697v3.74209845h.87784593zm-3.60239589.2084236.27478119-.7003263.27449041.7003263.33380825.8284982h-1.2113634zm1.49690322 2.3466419h1.0177081l-1.61001421-3.74209845h-1.18984615l-1.61553891 3.74209845h.96391495l.3178157-.8019401h1.79291089z" fill="#006fcf"/></g></g></svg>
