<svg height="32" viewBox="0 0 32 32" width="32" xmlns="http://www.w3.org/2000/svg"><g fill="none" fill-rule="evenodd"><path d="m0 3h32v26h-32z" fill="#fff"/><g fill-rule="nonzero"><path d="m0 29h32v-3h-32z" fill="#f7b600" transform="matrix(1 0 0 -1 0 55)"/><path d="m0 3h32v3h-32z" fill="#1a1f71" transform="matrix(1 0 0 -1 0 9)"/><g fill="#1a1f71" transform="translate(4 11)"><path d="m11.8835368 7.8587528-1.6035143-7.73727706h-1.93941871l1.60351432 7.73727706zm8.1585534-4.99600616 1.0211984 2.90561111.5866067-2.90561111zm2.1648363-2.7412709h1.7930735l-1.5665832 7.73727706h-1.6543904c-.3731419 0-.6866731-.22349638-.825816-.56720312l-2.9100475-7.17007394h2.0365735l.4039434 1.15575942h2.488175zm-5.0626245 2.52615761c.0081218 2.0416782-2.7350462 2.15492901-2.717117 3.06726245.0065893.27727469.2625019.57258097.8227511.64802879.2775196.03701214 1.0441846.06659019 1.9126016-.34639569l.3397354 1.6416624c-.466619.17414686-1.0670174.3418087-1.8139143.3418087-1.9171988 0-3.2658732-1.05104989-3.2766001-2.5573174-.0125658-1.11416033.9632733-1.73514178 1.6971446-2.10621221.7559381-.378979 1.0093988-.62256317 1.0058743-.96120842-.0053635-.51911899-.6036165-.74894223-1.1598815-.75748349-.9753793-.01597533-1.5408388.27205504-1.9918272.48890822l-.3519947-1.69607339c.4537468-.21463878 1.2899832-.40112302 2.1561016-.41061331 2.0381059 0 3.3711498 1.03902882 3.3771262 2.64763335zm-8.03212953 5.21111945-3.14205448-7.73727706h-2.05005874l-1.54635541 6.1750168c-.09363028.37945351-.17515452.51911897-.46048935.67950493-.46631251.26145755-1.23634878.50599073-1.91321449.65815173l.04566583.2246036h3.30035246c.42003371 0 .79823262-.28866305.89431476-.78848511l.81708129-4.47767803 2.01711191 5.26616314z" transform="matrix(1 0 0 -1 0 8)"/><path d="m16.9882873 10.9182679c.0375553.0062925.0806331.0104874.1292335.0125849.0508103.0020974.1049344.0031462.1623723.0031462.3092773 0 .5445526-.0776626.7058258-.2329877.1634809-.1574227.2452213-.3799062.2452213-.6674506 0-.12593815-.0187776-.23928019-.0563329-.34002618-.0353464-.10074824-.0905749-.18575757-.1656855-.25502801-.0751105-.07136343-.1701025-.1259353-.2849759-.16371561-.1126658-.03988002-.2452166-.05982003-.3976523-.05982003-.0751106 0-.1413859.00314845-.1988262.00944536-.0552279.00419831-.1016195.01049521-.1391801.01889071v1.67494416zm-.2882873-1.87645294c.0883656-.01259381.1833576-.02308847.2849759-.03148397.1038295-.0083955.2131827-.01259325.3280596-.01259325.2076566 0 .3854928.02203861.5335087.06611582.1480158.04407722.2717243.11019247.3711256.19834578.0994119.08815442.1767312.1941497.231958.31798584.0552291.12384063.0828436.27181341.0828436.44391832 0 .1742136-.0276145.3305819-.0828436.4691049-.0530192.1385341-.1325461.2571254-.2385808.355774-.1060383.1007493-.2430043.1773575-.410898.2298246-.1656884.0503742-.35788.0755612-.5765746.0755612-.1038295 0-.1988215-.0020975-.2849759-.0062924-.0861557-.0041949-.1656826-.0104913-.2385985-.018889v-2.08743409zm3.2278263 1.18361394c0-.0440772-.0055249-.0923527-.0165747-.1448265-.0110499-.0524727-.0320369-.10074827-.0629611-.1448266-.0287189-.04617581-.0695879-.08395668-.1226071-.11334261-.0530191-.0314834-.1203983-.0472251-.2021376-.0472251-.0729017 0-.1369695.01469241-.1922033.04407721-.0530191.02938481-.0983063.06611582-.1358616.11019303-.0353465.04407721-.062961.09235277-.0828437.14482657-.0176726.0524727-.0298227.1028468-.0364502.1511224h.8516163zm-.8549277.1983458c.0022076.0944513.0176714.1752601.0463916.2424264.0309277.0650665.0706918.1196389.1192921.1637172.0508104.0419775.1093526.0734609.1756269.0944503.0662742.0188907.135861.028336.2087604.028336.1060382 0 .1921939-.0073462.2584669-.0220386.068483-.0146924.1303373-.0335825.1855628-.0566704l.0497066.1983457c-.0508104.0230891-.1203972.0451282-.2087604.0661175-.0883657.0209893-.1966151.031484-.3247483.031484-.1237085 0-.2341655-.0178409-.331371-.0535226-.0972019-.0377814-.1800462-.0902547-.2485327-.1574198-.068483-.0692648-.1203977-.1511223-.1557442-.2455726-.0353453-.0944513-.053018-.1993978-.053018-.3148396 0-.1154417.0165683-.2224858.0497048-.321132.0353465-.10074828.0850524-.18785509.1491178-.26132047.0662731-.07346202.1458-.13118178.2385808-.17315928.0927832-.04407721.1977153-.06611582.3147963-.06611582.1303432 0 .2385926.02413776.3247482.07241328.0861569.04827553.1535361.10914711.2021376.18261474.0508104.07136342.0861568.149026.1060395.23298775.0198814.0839572.0298221.1605654.0298221.2298247 0 .0293848-.0011038.0545718-.0033114.0755611s-.0044152.0388302-.0066228.0535226h-1.126658zm1.7881428.1007965c0 .016791.0011038.0335825.0033114.0503747.0022076.016791.005519.0335825.0099342.0503746.028719.0965511.0817381.1752624.1590574.236134.0795293.0587696.1723137.0881544.2783531.0881544.0751105 0 .1424897-.0136431.2021376-.0409293.0618566-.0293848.1137713-.0692643.1557442-.1196384.041974-.0524739.0740067-.1143942.0960981-.185761.0220915-.0713634.0331371-.1511234.0331371-.2392801 0-.0755617-.0110456-.147975-.0331371-.2172399-.0198826-.0692648-.0497059-.129082-.08947-.17945165-.0397652-.05247271-.0894712-.09340147-.1491178-.12278628-.0596467-.03148452-.1281297-.04722678-.205449-.04722678-.0994107 0-.1910913.03043467-.2750417.091304-.0817369.05876961-.1380698.14167591-.1689987.24871881-.0044152.016791-.0088304.0346318-.0132456.0535225-.0022076.016791-.0033132.036731-.0033132.0598201v.2739052zm-.2882873-1.6245712h.2882873v.95710375h.0066228c.0508104-.08605583.121501-.15426857.2120718-.2046382.0927844-.05037412.2043452-.07556118.3346825-.07556118.0994119 0 .1899886.01889016.2717302.05667047.0839469.03778031.1557413.09130287.2153833.16056771.0596466.06716623.1060382.14902376.1391747.24557255.0331377.0944513.0497066.1993979.0497066.3148396 0 .1364255-.020987.2560656-.0629611.3589203-.039764.1007482-.0938876.1857575-.1623706.255028-.0684841.0671651-.1458034.1175392-.2319579.1511223-.0861568.0335831-.1734163.0503747-.2617783.0503747-.1170834 0-.2209117-.0220392-.3114849-.0661175-.0905744-.0461758-.1656861-.1196378-.2253352-.2203861h-.0099342l-.0132633.251865h-.2518441c.0044152-.0524727.0077266-.114393.0099342-.1857609.0022076-.0713634.0033114-.1406305.0033114-.2078012v-1.8417993zm2.030761.11018462c.0552279 0 .0983058.01679156.1292335.05037468.0331377.03358312.0497065.07451244.0497065.12278796.0022076.04827552-.0143612.08920428-.0497065.12278628-.0331365.03148453-.0784237.04722679-.1358616.04722679-.0508104 0-.0927838-.01574226-.1259203-.04722679-.0331377-.03358312-.0497065-.07451188-.0497065-.12278628 0-.04827552.0165688-.08920484.0497065-.12278796.0353465-.03358312.0795293-.05037468.1325484-.05037468zm-.1458029 2.12512128v-1.52382519h.2915987v1.52382519zm1.1268298-1.88907147v.36521263h.4175208v.21094744h-.4175208v.8217326c0 .0944514.0154638.1679134.0463916.2203861.0331376.0503741.0905756.0755612.1723136.0755612.0397641 0 .0717962-.0010488.0960964-.0031462.0265101-.004195.0508109-.0094443.0729023-.0157479l.0132456.2078012c-.0287189.0104986-.0651698.0199434-.1093526.0283344-.0419728.0084011-.0916782.0126017-.1491161.0126017-.136966 0-.241898-.0398801-.3147962-.1196401-.0419741-.0419786-.0717974-.0955012-.08947-.1605677-.0154639-.0671651-.0231958-.1458764-.0231958-.236134v-.83117121h-.2485328v-.21094743h.2485328v-.28021451l.2849759-.08500822z"/></g></g></g></svg>
