<svg height="32" viewBox="0 0 32 32" width="32" xmlns="http://www.w3.org/2000/svg"><g fill="none" fill-rule="evenodd"><path d="m0 3h32v26h-32z" fill="#000"/><g fill-rule="nonzero" transform="translate(3.929 6.44)"><path d="m4.40555556 18.9628447v-1.260548c.01459716-.2144623-.06214994-.4249499-.21066168-.5777634-.14851174-.1528136-.35442641-.2331754-.56521134-.2205838-.27778026-.018541-.54345581.1183159-.69333333.3571553-.13664529-.2317183-.38684733-.3687616-.6520635-.3571553-.23092181-.0118855-.45075714.1016243-.57777777.2983298v-.2479078h-.42920635v2.0084732h.43333333v-1.1050805c-.01866256-.1390615.02461285-.2793464.11801673-.3825722.09340389-.1032258.22718676-.1586177.36484041-.1510598.28476191 0 .42920635.1890822.42920635.5294302v1.117686h.43333334v-1.1134842c-.01789676-.1389033.02564326-.2787337.11887397-.3817681s.22654698-.1586576.36398317-.1518639c.29301587 0 .43333333.1890822.43333333.5294302v1.117686zm6.41126984-2.0084732h-.7057143v-.6092649h-.43333332v.6092649h-.39206349v.3991735h.40031746v.9244019c0 .4664028.17746031.7437292.68507935.7437292.189647.0006428.3756191-.0532476.5365079-.1554734l-.1238095-.3739626c-.1151009.0698994-.2457349.1089329-.3796825.1134493-.2063492 0-.2847619-.1344584-.2847619-.3361461v-.9159983h.7015873zm3.6606349-.050422c-.2131758-.0063831-.4127019.106475-.52.2941279v-.2437059h-.4250793v2.0084732h.4292063v-1.1260896c0-.3319443.1403175-.5168247.4126984-.5168247.0918015-.0012785.1829523.0158545.268254.0504219l.1320635-.4201827c-.0980217-.0357021-.2012926-.0541733-.3053969-.0546237zm-5.5342857.2100914c-.24295039-.1470688-.52228018-.2199907-.8047619-.2100914-.49936508 0-.82539683.243706-.82539683.6428796 0 .3277425.23936508.5294301.68095238.5924575l.20634921.0294128c.2352381.0336146.34666667.0966421.34666667.2100914 0 .1554676-.1568254.2437059-.44984127.2437059-.23569156.0069461-.46682314-.0670549-.65619048-.2100913l-.20634921.340348c.25001556.1777353.54947115.2690539.85428572.2605132.56952381 0 .89968254-.2731187.89968254-.655485 0-.3823662-.26-.5378338-.68920635-.6008612l-.20634921-.0294128c-.18571428-.0252109-.33428571-.0630274-.33428571-.1974859 0-.1344584.14031746-.2353023.37555555-.2353023.21742513.0025716.43056741.061887.61904762.1722749zm11.4957143-.2100914c-.2131758-.0063831-.4127019.106475-.52.2941279v-.2437059h-.4250794v2.0084732h.4292064v-1.1260896c0-.3319443.1403174-.5168247.4126984-.5168247.0918015-.0012785.1829523.0158545.268254.0504219l.1320634-.4201827c-.0980216-.0357021-.2012926-.0541733-.3053968-.0546237zm-5.5301587 1.0504568c-.0103221.2853954.0979549.5620075.2982537.76194.2002989.1999326.4740746.3046747.7541272.2885167.2577051.0133492.5109689-.0721034.7098413-.2395041l-.2063492-.3529535c-.1483711.1151954-.3292957.1785621-.515873.1806785-.3289824-.027101-.5824024-.3068364-.5824024-.6428795 0-.336043.25342-.6157784.5824024-.6428795.1865773.0021164.3675019.0654832.515873.1806786l.2063492-.3529535c-.1988724-.1674008-.4521362-.2528533-.7098413-.2395041-.2800526-.016158-.5538283.088584-.7541272.2885166-.2002988.1999326-.3085758.4765447-.2982537.7619401zm4.0196825 0v-1.0000348h-.4292064v.2437059c-.1478691-.1937147-.3782429-.3031721-.6190476-.2941279-.5698176 0-1.031746.4703055-1.031746 1.0504568 0 .5801512.4619284 1.0504567 1.031746 1.0504567.2408047.0090443.4711785-.1004132.6190476-.2941279v.243706h.4292064zm-1.5971429 0c.0190863-.329703.2935198-.5834009.6176838-.5710131.324164.0123879.5791462.2863173.5739037.6165493-.0052426.330232-.2687869.5956283-.5931748.5973433-.1651744.0021278-.3237156-.0660784-.4373443-.1881506-.1136286-.1220722-.1720174-.2869154-.1610684-.4547289zm-5.179365-1.0504568c-.5698176.0081222-1.0252791.4850119-1.0173016 1.0651632.0079774.5801512.4763729 1.0438724 1.0461905 1.0357503.2968827.015515.5888392-.0818216.8192063-.2731188l-.2063492-.3235406c-.1629412.1330463-.3648044.2069758-.5736508.2100913-.2950038.0258308-.5566104-.1920927-.5901587-.4916137h1.4650793c0-.0546238 0-.1092475 0-.1680731 0-.630274-.3838095-1.0504567-.9368254-1.0504567zm0 .3907699c.1297117-.0028155.2552065.0469617.348862.1383754s.1477954.2169713.150503.3490366h-1.031746c.015544-.2805091.2483368-.4969948.524127-.487412zm10.7528571.6638887v-1.8109874h-.4126984v1.0504567c-.1478692-.1937147-.378243-.3031721-.6190476-.2941279-.5698176 0-1.0317461.4703055-1.0317461 1.0504568 0 .5801512.4619285 1.0504567 1.0317461 1.0504567.2408046.0090443.4711784-.1004132.6190476-.2941279v.243706h.4126984zm.7160318.7122096c.026828-.0003346.0534627.0046608.0784126.0147064.0236978.0098458.0453896.0240943.0639683.0420183.0181317.0181144.0328225.0394817.0433333.0630274.0211222.0495915.0211222.1058761 0 .1554676-.0105108.0235457-.0252016.044913-.0433333.0630274-.0185787.017924-.0402705.0321725-.0639683.0420183-.0247036.0110981-.051411.0168227-.0784126.0168073-.0798469-.0006128-.15218-.0480727-.1857143-.121853-.0208776-.0496428-.0208776-.1058247 0-.1554676.0105108-.0235457.0252016-.044913.0433333-.0630274.0185787-.017924.0402705-.0321725.0639683-.0420183.0268769-.0108851.0557014-.0158956.0846031-.0147064zm0 .3550544c.0205956.0001274.0409861-.0041678.0598412-.0126055.0177536-.0080701.0338546-.0194739.0474603-.0336146.0535058-.0594363.0535058-.150655 0-.2100913-.0135733-.0141797-.0296821-.025589-.0474603-.0336146-.0188737-.0083782-.0392517-.0126708-.0598412-.0126063-.0205718.0001115-.0409154.0043968-.0598413.0126063-.0185395.0077397-.0353761.0191677-.0495238.0336146-.0535058.0594363-.0535058.150655 0 .2100913.0141825.0144038.03101.0258256.0495238.0336146.0208185.0091407.043375.0134467.0660317.0126055zm.0123809-.2500087c.019263-.0009511.0382449.0049954.0536508.0168073.0128148.0107979.0197293.0272245.0185714.0441192.000599.0141087-.0046407.0278266-.0144444.0378165-.0119604.0110604-.0272182.017718-.0433334.0189082l.0598413.0693301h-.0474603l-.0557143-.0693301h-.0185714v.0693301h-.0392064v-.1848804zm-.0453968.0357155v.050422h.0453968c.0080783.0024521.0166836.0024521.0247619 0 .0029431-.0059466.0029431-.0129617 0-.0189083.0029431-.0059465.0029431-.0129616 0-.0189082-.0080783-.0024521-.0166836-.0024521-.0247619 0zm-2.2698413-.8529708c.0190863-.3297029.2935198-.5834009.6176838-.571013.324164.0123878.5791462.2863172.5739036.6165492-.0052425.330232-.2687868.5956283-.5931747.5973433-.1651745.0021279-.3237156-.0660784-.4373443-.1881506s-.1720174-.2869154-.1610684-.4547289zm-14.49190475 0v-1.0042366h-.42920635v.2437059c-.14786915-.1937147-.37824299-.3031721-.61904762-.2941279-.5698176 0-1.03174603.4703055-1.03174603 1.0504568 0 .5801512.46192843 1.0504567 1.03174603 1.0504567.24080463.0090443.47117847-.1004132.61904762-.2941279v.243706h.42920635zm-1.59714286 0c.01908627-.3297029.29351976-.5834009.61768376-.571013.324164.0123878.57914623.2863172.57390365.6165492-.00524257.330232-.26878682.5956283-.59317471.5973433-.16588629.0033157-.32553117-.0643705-.44007504-.1865831-.11454387-.1222125-.17348074-.287742-.16246465-.4562964z" fill="#fff"/><path d="m8.801 1.649h6.5v11.893h-6.5z" fill="#ff5f00"/><path d="m9.18144741 7.56445729c-.00243025-2.32119585 1.04388839-4.51453855 2.83730159-5.94768596-3.04575755-2.43704871-7.41958754-2.08207149-10.0476798.81546321-2.62809226 2.89753471-2.62809226 7.36480987 0 10.26234456 2.62809226 2.8975347 7.00192225 3.2525119 10.0476798.8154632-1.7928426-1.4326924-2.83909738-3.62512643-2.83730159-5.94558501z" fill="#eb001b"/><path d="m24.0706349 7.596903c0 2.8957689-1.6240877 5.5373041-4.1823362 6.8027354-2.5582484 1.2654314-5.6015897.9325957-7.837505-.8571504 1.7920603-1.4339087 2.8383938-3.62605124 2.8383938-5.94663546 0-2.32058421-1.0463335-4.51272673-2.8383938-5.94663549 2.2359153-1.78974606 5.2792566-2.12258172 7.837505-.85715039 2.5582485 1.26543133 4.1823362 3.90696652 4.1823362 6.80273543zm-.6009869 5.1066986v-.5930827h.1680418v-.1227068h-.4254676v.1227068h.1823433v.5930827zm.8259076 0v-.7157895h-.1287129l-.150165.5112782-.150165-.5112782h-.1144115v.7157895h.0929593v-.5368421l.1394389.4652631h.0965347l.1394389-.4652631v.5419548z" fill="#f79e1b"/></g></g></svg>
