<?xml version="1.0" encoding="UTF-8"?>
<svg width="2280px" height="738px" viewBox="0 0 2280 738" version="1.1" xmlns="http://www.w3.org/2000/svg" xmlns:xlink="http://www.w3.org/1999/xlink">
    <!-- Generator: Sketch 53.2 (72643) - https://sketchapp.com -->
    <title>direct-debit-1</title>
    <desc>Created with Sketch.</desc>
    <g id="Page-1" stroke="none" stroke-width="1" fill="none" fill-rule="evenodd">
        <g id="direct-debit-1" fill="#000000" fill-rule="nonzero">
            <path d="M1072.6091,155.011849 L1190.82851,155.011849 C1190.82851,155.011849 1307.88064,152.651352 1306.70039,259.042333 C1305.53311,338.261657 1193.21495,350.077113 1193.21495,350.077113 L1072.62207,350.077113 L1072.62207,155.011849 L1072.6091,155.011849 L1072.6091,155.011849 Z M1426.28162,536.906576 C1429.60188,552.379506 1440.79479,569.434747 1478.13474,571.185665 C1527.783,572.352944 1556.16085,553.430057 1556.16085,553.430057 L1556.16085,590.082612 C1556.16085,590.082612 1501.77862,603.104256 1475.76127,603.104256 C1448.57665,603.104256 1368.17707,597.177074 1368.17707,522.704684 C1368.17707,462.421216 1434.38772,443.498329 1472.20756,443.498329 C1538.41821,445.858827 1570.3368,469.515678 1569.15655,536.893606 C1569.15655,537.866339 1460.22349,537.140032 1426.28162,536.906576 L1426.28162,536.906576 Z M1426.43726,507.322542 L1517.14779,507.322542 C1517.14779,507.322542 1517.14779,473.043454 1473.40078,473.043454 C1440.49648,473.043454 1429.73158,490.786092 1426.43726,507.322542 Z M1713.39331,470.306834 C1726.51871,456.066032 1748.55434,444.665608 1785.51817,444.665608 C1858.82328,444.665608 1870.6517,506.142294 1869.47146,522.691714 C1868.29121,539.241134 1862.37699,601.898068 1777.2694,601.898068 C1745.11735,601.898068 1725.44222,590.925647 1713.40628,577.307394 L1713.40628,597.164104 L1655.47034,597.164104 L1655.47034,384.356202 L1713.40628,384.356202 L1713.40628,470.306834 L1713.39331,470.306834 L1713.39331,470.306834 Z M1763.06751,568.799228 C1797.34659,567.60601 1812.71577,538.073855 1812.71577,523.884932 C1812.71577,509.696009 1804.42809,480.137915 1760.68107,480.137915 C1726.73919,480.137915 1716.40229,505.77914 1713.39331,518.307933 L1713.39331,533.728984 C1716.37635,546.504202 1726.76513,568.799228 1763.06751,568.799228 L1763.06751,568.799228 Z M2263.16867,562.897985 L2264.33595,596.009795 C2264.33595,596.009795 2237.15132,601.911038 2219.42165,601.911038 C2201.69198,601.911038 2155.55853,591.275831 2155.55853,546.335595 L2155.55853,477.764448 L2107.10349,477.764448 L2107.10349,447.039075 L2155.55853,447.039075 L2155.55853,410.38652 L2214.68769,410.38652 L2214.68769,447.039075 L2263.16867,447.039075 L2263.16867,477.764448 L2214.68769,477.764448 L2214.68769,536.893606 C2214.68769,536.893606 2214.68769,566.451701 2238.34454,566.451701 C2261.97545,566.451701 2263.16867,562.897985 2263.16867,562.897985 L2263.16867,562.897985 Z M2083.45961,186.930441 L2152.03075,186.930441 L2152.03075,351.257362 L2209.94075,351.257362 L2209.94075,186.930441 L2279.70512,186.930441 L2279.70512,152.638382 L2083.45961,152.638382 L2083.45961,186.930441 Z M2059.80276,195.205151 L2066.89722,160.913092 C2066.89722,160.913092 2037.33912,147.917388 1985.33037,147.917388 C1934.48889,147.917388 1852.92204,176.295233 1852.92204,253.14109 C1852.92204,328.806699 1939.22285,354.811077 1992.42483,354.811077 C2045.6268,354.811077 2063.35647,346.536367 2063.35647,346.536367 L2057.45523,308.703563 C2057.45523,308.703563 2033.79838,315.798024 1993.59211,315.798024 C1954.57905,314.617776 1914.41169,283.879433 1914.41169,249.600344 C1915.57897,218.862002 1951.03831,184.569943 1997.17176,184.569943 C2032.61813,184.569943 2059.80276,195.205151 2059.80276,195.205151 L2059.80276,195.205151 Z M1537.23796,153.831601 C1537.23796,153.831601 1634.18695,149.110606 1634.18695,205.853328 C1634.18695,254.334309 1578.63745,257.875054 1578.63745,257.875054 C1578.63745,257.875054 1593.99365,260.235552 1601.10108,270.870759 C1607.00232,280.325717 1646.01538,351.270331 1646.01538,351.270331 L1586.88622,351.270331 C1586.88622,351.270331 1577.43126,339.441906 1572.6973,331.180166 C1569.15655,322.905456 1558.50837,305.162817 1558.50837,305.162817 C1558.50837,305.162817 1550.24663,275.604723 1521.85582,275.604723 C1521.14248,275.604723 1509.59939,275.163751 1500.57243,274.826537 L1500.57243,351.270331 L1443.82971,351.270331 L1443.82971,153.831601 L1537.23796,153.831601 L1537.23796,153.831601 Z M1500.5854,242.505883 L1531.33672,242.505883 C1531.33672,242.505883 1573.89051,240.132416 1576.25101,214.128038 C1577.44423,189.303908 1534.89043,185.750192 1534.89043,185.750192 L1500.5854,185.750192 L1500.5854,242.505883 L1500.5854,242.505883 Z M1738.21744,273.244226 L1832.80593,273.244226 L1832.80593,236.59167 L1738.21744,236.59167 L1738.21744,191.664405 L1841.09361,191.664405 L1841.09361,153.831601 L1680.32041,153.831601 L1680.32041,351.270331 L1842.28683,351.270331 L1842.28683,315.798024 L1738.23041,315.798024 L1738.23041,273.244226 L1738.21744,273.244226 Z M1968.75501,424.562473 L2026.69095,424.562473 L2026.69095,384.356202 L1968.75501,384.356202 L1968.75501,424.562473 Z M1968.75501,597.177074 L2026.69095,597.177074 L2026.69095,447.039075 L1968.75501,447.039075 L1968.75501,597.177074 L1968.75501,597.177074 Z M1337.4517,351.270331 L1394.19442,351.270331 L1394.19442,153.831601 L1337.4517,153.831601 L1337.4517,351.270331 L1337.4517,351.270331 Z M1072.6091,400.931561 L1190.82851,400.931561 C1190.82851,400.931561 1307.88064,398.545124 1306.70039,504.962045 C1305.53311,584.168399 1193.21495,596.009795 1193.21495,596.009795 L1072.62207,596.009795 L1072.62207,400.931561 L1072.6091,400.931561 L1072.6091,400.931561 Z M1130.54504,559.357239 L1168.37785,559.357239 C1168.37785,559.357239 1246.40395,554.623275 1246.40395,494.326838 C1246.40395,434.030401 1163.64388,428.116188 1163.64388,428.116188 L1130.54504,428.116188 L1130.54504,559.357239 Z M1130.54504,313.437527 L1168.37785,313.437527 C1168.37785,313.437527 1246.40395,307.523314 1246.40395,248.407126 C1246.40395,186.930441 1163.64388,182.209446 1163.64388,182.209446 L1130.54504,182.209446 L1130.54504,313.437527 Z M541.769595,272.543859 L541.769595,668.121688 C541.769595,668.121688 312.399303,626.735168 312.399303,469.502708 C312.412273,344.098051 482.199465,288.820913 541.769595,272.543859 Z M541.769595,265.164062 C403.913964,255.190313 91.3296603,319.805682 91.3296603,461.215028 C91.3296603,553.417087 256.8498,688.211853 526.400423,691.752599 C537.035631,691.752599 843.23881,679.924174 838.517815,351.257362 C834.549067,75.2088858 627.940713,26.8576024 561.87273,18.4402249 L561.87273,1.61843989 C825.262716,18.3364668 1032.4158,176.736205 1032.4158,368.98703 C1032.4158,572.339974 800.685011,737.847144 515.765216,737.847144 C230.845421,737.847144 0.294880574,572.327004 0.294880574,368.98703 C0.294880574,165.647056 230.832451,0.126916931 515.765216,0.126916931 C524.493868,0.126916931 533.170641,0.28255411 541.782564,0.593828467 L541.782564,265.164062 L541.769595,265.164062 Z" id="Shape"></path>
        </g>
    </g>
</svg>