<svg xmlns="http://www.w3.org/2000/svg" xmlns:xlink="http://www.w3.org/1999/xlink" width="32" height="32" viewBox="0 0 32 32">
  <defs>
    <path id="double-chevron-up-a" d="M15.84375,14.2842105 L29.71875,28.2105263 C29.90625,28.4631584 30,28.7315789 30,29.0157895 C30,29.3 29.90625,29.5684206 29.71875,29.8210526 L27.84375,31.7157895 C27.5937495,31.9052632 27.3124995,32 27,32 C26.6875005,32 26.4375,31.9052632 26.25,31.7157895 L15,20.4421053 L3.75,31.7157895 C3.5625,31.9052632 3.31249952,32 3,32 C2.68750048,32 2.40625048,31.9052632 2.15625,31.7157895 L0.375,29.8210526 C0.124999523,29.5684206 0,29.3 0,29.0157895 C0,28.7315789 0.09375,28.4631584 0.28125,28.2105263 L14.25,14.2842105 C14.4375,14.0947368 14.6875005,14 15,14 C15.3124995,14 15.5937495,14.0947368 15.84375,14.2842105 Z M15.84375,0.284210526 L29.71875,14.2105263 C29.90625,14.4631584 30,14.7315789 30,15.0157895 C30,15.3 29.90625,15.5684206 29.71875,15.8210526 L27.84375,17.7157895 C27.5937495,17.9052632 27.3124995,18 27,18 C26.6875005,18 26.4375,17.9052632 26.25,17.7157895 L15,6.44210526 L3.75,17.7157895 C3.5625,17.9052632 3.31249952,18 3,18 C2.68750048,18 2.40625048,17.9052632 2.15625,17.7157895 L0.375,15.8210526 C0.124999523,15.5684206 0,15.3 0,15.0157895 C0,14.7315789 0.09375,14.4631584 0.28125,14.2105263 L14.25,0.284210526 C14.4375,0.0947368421 14.6875005,0 15,0 C15.3124995,0 15.5937495,0.0947368421 15.84375,0.284210526 Z"/>
  </defs>
  <g fill="none" fill-rule="evenodd" transform="translate(1)">
    <mask id="double-chevron-up-b" fill="#002C5C">
      <use xlink:href="#double-chevron-up-a"/>
    </mask>
    <use fill="#002C5C" fill-rule="nonzero" xlink:href="#double-chevron-up-a"/>
    <g mask="url(#double-chevron-up-b)">
      <g transform="translate(-1)">
        <rect width="32" height="32" fill="#002C5C"/>
      </g>
    </g>
  </g>
</svg>
