<svg xmlns="http://www.w3.org/2000/svg" width="80" height="28" viewBox="0 0 80 28">
  <path fill="#131E29" d="M40.5948245,13.4244493 C42.8158049,9.96455903 41.7039037,9.4337804 41.5881982,9.4927558 C39.4293036,10.7059641 37.7868504,14.3483973 37.9194884,15.5616056 C38.1113901,17.2466171 39.4151931,15.2583035 40.5920024,13.421641 L40.5948245,13.4244493 Z M49.0018141,10.2453943 C48.6008329,10.9601166 48.3412216,11.744694 48.2370292,12.5566684 C48.1805875,12.9638795 48.1156796,14.7275249 48.12979,14.9662349 C48.1522827,15.3549319 48.2022632,15.7415693 48.2793605,16.1232761 C48.330158,16.3142441 48.6603419,17.0022904 47.6048823,17.1455164 C46.9840237,17.2325753 46.9953121,15.6851731 46.9840237,15.429613 C46.9776154,14.5229149 47.0181189,13.6164896 47.1053734,12.7139361 C47.1674592,12.4331009 47.0461096,12.7307863 46.9304041,12.9189459 C46.6679503,13.3570489 46.3659872,13.9496112 45.9962942,14.5337486 C45.5137177,15.3032372 44.4385035,17.1314746 42.9710196,17.0219489 C42.4235352,16.982632 41.8647625,16.9124232 41.5599774,15.3902961 C41.4750389,14.7913203 41.4542271,14.1850647 41.4978915,13.5817171 C41.4837811,13.4862331 41.4978915,13.3767073 41.416051,13.421641 C40.8967875,14.6292326 39.2120031,18.1958403 37.307096,17.381418 C36.4237836,17.0135238 35.9891826,15.8789494 36.9628017,13.6659676 C37.9110221,11.5091529 40.3069718,8.83279296 41.2580143,8.6530584 C42.1046397,8.49298231 42.1977684,8.91704354 42.1977684,8.91704354 C42.2739647,8.7597758 42.8045166,8.77943426 42.9202221,9.00410246 C43.0754367,9.30740454 43.1798538,9.35795488 43.0754367,10.1527186 C43.018995,10.6132885 42.5900382,13.4834247 42.6634124,14.4691565 C42.6972774,14.9325346 42.7762958,16.0699174 43.250406,16.1260844 C44.0744546,16.2243768 45.0734725,14.4775815 45.1863559,14.2950386 C45.4093006,13.9383778 47.1872138,10.9699492 47.4073364,10.5374629 C47.627459,10.1049767 47.7911399,9.72865741 47.9435324,9.43097205 C48.095925,9.13328668 48.5531027,9.09958645 48.9538387,9.37199664 C49.3545747,9.64440684 49.1429183,10.0207261 49.0046362,10.2482026 L49.0018141,10.2453943 Z M11.3552072,11.7029292 C10.3082138,11.8152633 8.40330683,14.3315472 8.008215,15.2246033 C7.61312317,16.1176594 7.46073061,17.0191405 7.93766289,17.381418 C8.92539246,18.1452899 9.94698704,16.8534477 10.246128,16.5389123 C10.4323856,16.353561 11.7305444,14.943768 12.0550841,13.5115083 C12.2723846,12.5847519 12.3711576,11.5962118 11.3552072,11.7029292 Z M11.8998695,22.8717472 C11.8293174,23.0009314 11.7531211,23.1273073 11.6769248,23.2536831 C10.9212218,24.5425284 9.88450304,25.6461798 8.64318401,26.4832885 C7.15160827,27.5060265 5.3743816,28.0356176 3.56343195,27.9969905 C2.55248512,28.0306385 1.55230702,27.7815675 0.676439529,27.2780523 C0.101293228,26.9753555 -0.150931171,26.2890542 0.0922680419,25.6885248 C0.37447649,25.0538371 1.30294228,25.1268543 1.69238994,25.4807067 C2.66883117,26.3906129 3.25018057,26.741657 4.51447442,26.6826816 C5.54818496,26.623715 6.55437594,26.3287077 7.45508644,25.8205173 C12.6420777,22.8071551 12.5941023,17.3954598 12.817047,14.1265375 C12.8396236,13.9271444 12.7295623,14.0731788 12.6928752,14.1798962 C12.4435397,14.8747123 12.1338197,15.546579 11.7672315,16.1878682 C11.2371004,17.1447466 10.4854088,17.9620965 9.57447189,18.5721595 C8.9169262,19.0018374 7.85017827,19.2124639 7.0995038,18.7238105 C6.81729535,18.5468843 5.23410596,17.620128 6.58306234,14.8567091 C7.42968768,13.1183389 9.21888924,11.9107473 9.62244732,11.6551872 C10.6073548,11.0289246 11.315698,10.7312393 12.0466179,10.7874063 C12.4247772,10.8154898 12.4783968,10.9643325 12.7577832,10.9559075 C12.8738317,10.7680982 13.054272,10.6284386 13.2657584,10.5627381 C13.6185189,10.5065711 14.0333654,10.7986397 14.1942242,11.3546935 C14.355083,11.9107473 13.9374145,12.8009951 13.8329974,13.2278647 C13.8132428,13.2278647 14.1829358,18.7855943 11.8998695,22.8717472 L11.8998695,22.8717472 Z M17.8093144,10.3408783 C17.1715233,10.3605367 17.2251429,10.8098731 17.0925049,11.2030425 C16.959867,11.5962118 15.8677203,15.1880947 15.7294381,15.8312074 C15.5426953,16.521531 15.5310591,17.2471871 15.6955731,17.9430885 C15.8987632,18.8417613 16.9372903,18.5805845 17.0473516,18.4205085 C17.5525047,17.715612 17.1037933,17.5077939 17.0868608,17.0163322 C17.1193384,16.4259623 17.1986031,15.8390654 17.3239159,15.2611119 C17.363425,15.0139769 17.4396213,13.8822108 17.4763084,13.7277514 C17.680198,12.9589198 17.9877782,12.2211073 18.3906638,11.5344281 C18.6136085,11.2030425 18.8055102,10.3240281 17.8093144,10.3408783 Z M19.5392522,6.14800796 C19.4384737,5.93719607 19.2490709,5.78160679 19.0219715,5.72307587 C18.794872,5.66454494 18.553385,5.70907988 18.3624429,5.84470588 C17.4424434,6.49343531 18.5007251,7.38649142 18.6728722,7.82459441 C18.8450194,8.2626974 19.7593748,8.63059158 19.6239147,7.765619 C19.6069822,7.6476682 19.7904177,6.66755317 19.5392522,6.14800796 Z M29.6733575,10.3605367 C29.3742166,10.4279372 28.7787568,10.545888 28.4034195,10.6104801 C27.8390026,10.7031557 27.5257512,11.0598165 27.5567942,11.4192856 C27.5878371,11.7787548 27.7007205,11.9528726 28.2086957,11.8545803 C28.6658734,11.7703297 29.055321,11.3799687 29.4588791,11.3799687 C29.4588791,11.3799687 28.6320084,14.8539008 28.5783888,15.3116622 C28.5247692,15.7694237 28.2792478,17.0528408 28.7815788,17.7745874 C29.9104126,19.3837734 32.1398594,17.5386858 32.3486936,17.3392927 C32.5039083,17.1904501 33.9177726,15.9547749 34.3975269,14.9662349 C34.6402262,14.4635398 34.2253798,14.3512057 33.9459934,14.250105 C33.6666071,14.1490043 33.0739693,14.3231221 32.9921289,14.6910163 C32.8115155,15.4885884 30.8529888,17.6425948 29.887836,17.2185336 C28.7448917,16.7102218 30.8078355,11.0008411 30.8078355,11.0008411 C31.0533568,10.8913154 32.2978961,10.5711632 33.4775274,10.2706694 C34.83495,9.92243374 38.9918805,9.10520316 38.0549484,7.86952805 C37.5808382,7.27134896 36.3955628,8.19810529 35.9920047,8.39468997 C34.5527416,9.07992798 31.025136,10.0797015 31.025136,10.0797015 C31.025136,10.0797015 31.4823137,8.02679579 31.6318842,7.62239303 C31.8012092,7.15901486 32.4305341,6.85571279 32.5208408,6.0328655 C32.62808,5.07521729 31.4682033,4.62868924 30.9150747,5.68743814 C30.7993692,5.90087293 30.6328663,6.49624367 30.6328663,6.51028543 C30.4832958,6.65351141 29.2048915,7.16182321 27.9462418,7.7600023 C27.5483279,7.94816192 25.2934824,8.76258415 25.2906603,8.75696744 C25.2878383,8.75135074 25.9736048,6.59172765 26.7637884,4.79719039 C27.2886962,3.60644893 28.0280823,1.94671259 29.3403516,1.60971029 C30.5679583,1.29517481 29.989431,2.5673585 30.5397375,2.89874409 C31.2424365,3.31718862 31.6685713,2.78921834 31.7786326,2.28090654 C31.8632951,1.88492883 31.8407184,-0.193252028 29.7185109,0.0145660584 C27.6978984,0.213959087 26.0864882,3.28348839 24.0969186,9.01814423 C24.0743419,9.04061105 22.4939746,10.0572347 21.1817053,10.3184114 C20.535448,10.4475957 20.2475954,10.5037627 20.1629328,10.7340476 C20.0189277,11.1110918 20.1118631,11.5371751 20.3999879,11.82088 C20.769681,12.2730248 23.6877164,10.3605367 23.6848943,10.3605367 C23.6256305,10.4391706 21.2296808,19.5185743 21.2099262,19.6281 C21.0744661,20.3835469 20.301215,22.3774771 20.3435463,23.2789583 C20.3661229,23.7423365 20.5495584,24.7140264 21.2240366,24.6831346 C22.6350788,24.7758102 22.3528704,22.8043467 22.2682079,22.4364526 C22.070662,21.6866224 23.0837903,16.7411136 23.9925015,13.0958721 C24.1787591,12.354467 24.5569184,11.1300253 24.6246484,10.8491901 C24.7021211,10.4253301 24.9777168,10.0634808 25.3668566,9.87469174 C25.3668566,9.87469174 30.4466087,7.49320881 30.4832958,7.50725057 C30.4832958,7.50444222 29.6733575,10.3605367 29.6733575,10.3605367 Z M64.4188616,14.9128762 C65.400947,15.8340158 66.3773882,15.2498785 66.8797193,14.8454757 C68.4205774,13.6126089 71.6067108,7.99028721 71.6067108,7.99028721 C71.6236433,8.17844682 70.2803311,14.6264242 72.0751768,15.3425541 C73.2265873,15.7975072 75.9047454,13.52555 76.2123526,13.3149236 C77.9817996,12.0989069 76.8981192,11.6551872 76.556647,11.6551872 C75.6451137,11.6551872 75.8087946,12.3095334 75.5576291,12.6044104 C75.1484268,13.0902554 73.4946853,14.7836919 72.6847471,14.3343555 C72.247324,14.0928372 72.3545632,12.649344 72.4025386,12.3291918 C72.6565262,8.91423518 72.7242562,8.29920598 72.9246242,7.51567563 C73.0375076,7.07757264 73.5708816,7.08880605 73.8982434,7.02983065 C78.3148056,6.21821677 79.1049892,6.54398566 79.6552957,6.27719217 C80.0927188,6.06375738 80.1717372,5.15385116 79.5508786,4.94603308 C79.2686701,4.8561658 78.9102654,5.07240894 78.2583639,5.31111891 C77.6064624,5.54982887 74.3441327,6.26595876 73.8643784,6.33897593 C73.384624,6.41199309 73.3281823,6.33897593 73.2209431,6.20136665 C73.1137039,6.06375738 73.316894,4.46299645 73.9490409,3.13745406 C74.2312493,2.56174179 74.2312493,1.68272745 73.3338265,1.61532699 C73.0024327,1.54827085 72.6664268,1.70744055 72.5097778,2.00568799 C72.3686736,2.31741512 72.1005756,5.16227622 72.0356676,5.35324419 C71.9707597,5.54421216 71.6321095,5.68462979 71.5559133,6.01039868 C71.479717,6.33616757 71.5333366,6.53836895 71.313214,6.61138612 C71.0930914,6.68440329 70.4835212,6.74337869 70.2351777,6.80235409 C69.9868343,6.86132949 69.8146871,7.36402459 69.8062209,7.64485985 C69.7977546,7.9256951 70.2662207,7.76281065 70.4919874,7.72911042 C70.7177542,7.69541019 71.380944,7.37806636 70.9322326,7.91727004 C70.7629075,8.12227977 67.6981238,12.8908623 66.4987379,13.8737857 C65.1215607,14.9971267 65.2203336,12.784145 65.2541986,12.4050174 C65.4630329,10.1414852 66.4592287,8.62497487 66.6003329,8.26550575 C66.7414371,7.90603663 66.8007009,6.83043762 65.6267138,7.06633923 C65.3452645,7.13755477 65.1222619,7.35093692 65.0397202,7.62800973 C65.0384571,7.63544593 65.0384571,7.64304035 65.0397202,7.65047655 C64.9211927,8.70922545 62.8808256,13.4637663 64.4188616,14.9128762 Z M66.2080632,3.83954219 C66.56929,4.54163032 67.1873265,4.29449529 67.2945657,4.12037744 C67.4018049,3.94625958 67.4836454,3.90413429 67.7827863,3.78337514 C68.3330928,3.56432364 67.3848724,2.58140026 66.4789833,2.85942716 C66.3641353,2.90883349 66.2852619,3.01635359 66.2729711,3.14026241 C66.2983699,3.33965544 66.0867135,3.62049069 66.2080632,3.83954219 L66.2080632,3.83954219 Z M55.1229154,9.35795488 C55.1229154,9.35795488 55.7155531,8.84964308 55.9695407,8.86087649 C56.0852462,8.86087649 55.8820561,9.18945373 56.2912583,9.38884676 C56.5085588,9.4927558 56.0542032,10.9278239 55.1624245,12.306725 C53.1051249,15.46893 52.1315058,15.325704 52.0581316,14.3652474 C51.8521194,12.3628921 54.5274555,9.765166 55.1229154,9.35795488 Z M56.1670866,11.9500643 C56.1670866,11.9500643 56.1670866,12.6324939 56.21224,13.2138229 C56.2602154,13.7361765 56.4408288,14.8314339 56.6242643,15.1796696 C56.9064727,15.72449 57.5216872,15.72449 57.9873311,15.4605049 C58.6025455,15.1094608 58.3118708,14.4551147 58.0776378,14.2360632 C57.6331122,13.9495654 57.326864,13.4934443 57.2310125,12.9751129 C57.1621391,11.8213626 57.2046652,10.6636976 57.3580063,9.51803098 C57.5084153,8.81330222 57.7325828,8.12618818 58.0268403,7.46793364 C58.2723616,6.99051371 59.753956,4.25237001 59.753956,3.33965544 C59.753956,2.93806103 59.3447537,2.60386708 58.6646314,2.67407589 C58.1629509,2.70857244 57.784115,3.14085719 57.818006,3.64014916 C57.818006,3.99400157 57.0955524,6.4822019 57.0588653,6.59453601 C56.9996015,6.76303716 56.881074,7.78246912 56.5311355,7.78527747 C55.7483703,7.77242196 54.9846822,8.02607626 54.3665967,8.50421572 C53.5585937,9.09789295 52.8343706,9.79686725 52.2133463,10.5823966 C51.9113832,11.0008411 50.5426722,12.7560614 50.6950648,14.8482841 C50.836169,16.7523471 52.1766592,16.4153448 52.5604626,16.353561 C54.3045109,16.0727257 55.5321176,13.2166312 55.7099089,12.8655872 C56.0344486,12.2337079 55.9272094,12.402209 56.1670866,11.9500643 Z M49.2896667,4.99658342 C49.15588,5.30845456 49.2287877,5.67010307 49.4731022,5.90648964 C49.6819365,6.10026596 49.7101573,6.13677455 49.7186236,6.29404229 C49.7186236,6.57487754 49.9133474,6.59734436 50.1983779,6.59453601 C50.5483164,6.59453601 50.8333469,6.34740098 50.867212,5.85874765 C50.901077,5.37009431 50.4269668,4.94884143 50.0431633,4.8561658 C49.6593598,4.76349016 49.4561697,4.79438204 49.2896667,4.99658342 Z"/>
</svg>
