<svg xmlns="http://www.w3.org/2000/svg" xmlns:xlink="http://www.w3.org/1999/xlink" width="32" height="32" viewBox="0 0 32 32">
  <defs>
    <path id="excel-a" d="M14,8.5 C14,8.91666698 14.145833,9.27083302 14.4375,9.5625 C14.729167,9.85416698 15.083333,10 15.5,10 L24,10 L24,30.5 C24,30.916667 23.854167,31.270833 23.5625,31.5625 C23.270833,31.854167 22.916667,32 22.5,32 L1.5,32 C1.08333302,32 0.729166985,31.854167 0.4375,31.5625 C0.145833015,31.270833 0,30.916667 0,30.5 L0,1.5 C0,1.08333302 0.145833015,0.729166985 0.4375,0.4375 C0.729166985,0.145833015 1.08333302,0 1.5,0 L14,0 L14,8.5 Z M17.75,15.125 L17.75,15.1875 C17.916667,14.895833 17.927083,14.625 17.78125,14.375 C17.635417,14.125 17.416667,14 17.125,14 L14.9375,14 C14.645833,14 14.4375,14.125 14.3125,14.375 L12,18.6875 C11.625,17.854167 11.291667,17.1875 11,16.6875 C10.625,16.020833 10.1875,15.25 9.6875,14.375 C9.5625,14.125 9.35416698,14 9.0625,14 L6.875,14 C6.58333302,14 6.36458302,14.135417 6.21875,14.40625 C6.07291698,14.677083 6.08333302,14.9375 6.25,15.1875 L10,21 L6.25,26.875 C6.08333302,27.125 6.07291698,27.375 6.21875,27.625 C6.36458302,27.875 6.58333302,28 6.875,28 L9.0625,28 C9.35416698,28 9.5625,27.875 9.6875,27.625 L10.875,25.5625 L12,23.3125 L14.3125,27.625 C14.4375,27.875 14.645833,28 14.9375,28 L17.125,28 C17.416667,28 17.635417,27.875 17.78125,27.625 C17.927083,27.375 17.916667,27.104167 17.75,26.8125 L14,21 L17.75,15.125 Z M24,8 L16,8 L16,0 L16.375,0 C16.791667,0 17.145833,0.145833015 17.4375,0.4375 L23.5625,6.5625 C23.854167,6.85416698 24,7.20833302 24,7.625 L24,8 Z"/>
  </defs>
  <g fill="none" fill-rule="evenodd" transform="translate(4)">
    <mask id="excel-b" fill="#fff">
      <use xlink:href="#excel-a"/>
    </mask>
    <use fill="#FFFFFF" fill-rule="nonzero" xlink:href="#excel-a"/>
    <g mask="url(#excel-b)">
      <g transform="translate(-4)">
        <rect width="32" height="32" fill="#FFFFFF"/>
      </g>
    </g>
  </g>
</svg>
