<svg xmlns="http://www.w3.org/2000/svg" xmlns:xlink="http://www.w3.org/1999/xlink" width="32" height="32" viewBox="0 0 32 32">
    <defs>
        <path id="a" d="M27.389 9.611a.533.533 0 0 1 0 .778L15.222 22.556l-5.11.555c-.371.037-.677-.065-.918-.305-.24-.241-.342-.547-.305-.917l.555-5.111L21.611 4.61A.533.533 0 0 1 22 4.444c.148 0 .278.056.389.167l5 5zm4-6.278c.407.445.611.963.611 1.556a2.04 2.04 0 0 1-.611 1.5l-2 2a.533.533 0 0 1-.389.167.533.533 0 0 1-.389-.167l-5-5A.533.533 0 0 1 23.444 3c0-.148.056-.278.167-.389l2-2a2.04 2.04 0 0 1 1.5-.611 2.23 2.23 0 0 1 1.556.611l2.722 2.722zm-10.056 15.89c0-.186.074-.334.223-.445l2.222-2.222c.185-.223.416-.278.694-.167.278.111.417.315.417.611v8.778c0 .74-.26 1.37-.778 1.889a2.572 2.572 0 0 1-1.889.777H2.667c-.741 0-1.37-.259-1.89-.777A2.572 2.572 0 0 1 0 25.777V6.223c0-.74.26-1.37.778-1.889a2.572 2.572 0 0 1 1.889-.777h15.889c.296 0 .5.138.61.416.112.278.056.51-.166.695l-2.222 2.277a.6.6 0 0 1-.445.167H3.556V24.89h17.777v-5.667z"/>
    </defs>
    <g fill="none" fill-rule="evenodd" transform="translate(0 2)">
        <mask id="b" fill="#fff">
            <use xlink:href="#a"/>
        </mask>
        <use fill="#FFF" fill-rule="nonzero" xlink:href="#a"/>
        <g mask="url(#b)">
            <path fill="#AAA" d="M0-2h32v32H0z"/>
            <path fill="none" fill-opacity="0" d="M0-2h32v32H0z"/>
        </g>
    </g>
</svg>
