<svg xmlns="http://www.w3.org/2000/svg" xmlns:xlink="http://www.w3.org/1999/xlink" width="32" height="32" viewBox="0 0 32 32">
  <defs>
    <path id="phone-a" d="M30.8117264,1.54267094 C31.1869707,1.58436507 31.4788277,1.75113968 31.6872964,2.04299668 C31.8957652,2.33485367 32,2.64755726 32,2.98110743 C32,8.23452763 30.6866449,13.1127035 28.0599348,17.6156351 C25.4749189,21.9934853 21.9934853,25.4749189 17.6156351,28.0599348 C13.1127035,30.6866449 8.23452763,32 2.98110743,32 C2.64755726,32 2.33485367,31.8957652 2.04299668,31.6872964 C1.75113968,31.4788277 1.58436507,31.1869707 1.54267094,30.8117264 L0.0416937405,24.3074918 C-0.0416935638,23.9739417 -3.88787031e-07,23.6403905 0.166775174,23.3068404 C0.333550737,22.9732902 0.583713604,22.7439739 0.917263775,22.6188925 L7.92182405,19.6169381 C8.21368105,19.4918566 8.52638463,19.4605863 8.8599348,19.523127 C9.19348497,19.5856677 9.46449538,19.7628661 9.67296412,20.0547231 L12.7374592,23.8071661 C15.1973938,22.6814332 17.3758961,21.1596094 19.2729641,19.2416938 C21.1700322,17.3237782 22.6814332,15.1557006 23.8071661,12.7374592 L20.0547231,9.6104234 C19.8045602,9.40195467 19.6377847,9.14136803 19.5543974,8.82866444 C19.4710101,8.51596086 19.4918566,8.19283351 19.6169381,7.85928333 L22.6188925,0.854723058 C22.7439739,0.562866062 22.9732902,0.333550737 23.3068404,0.166775174 C23.6403905,-3.88787031e-07 23.9739417,-0.0416935638 24.3074918,0.0416937405 L30.8117264,1.54267094 Z"/>
  </defs>
  <g fill="none" fill-rule="evenodd">
    <mask id="phone-b" fill="#fff">
      <use xlink:href="#phone-a"/>
    </mask>
    <use fill="#002C5C" fill-rule="nonzero" xlink:href="#phone-a"/>
    <g mask="url(#phone-b)">
      <rect width="32" height="32" fill="#002C5C"/>
    </g>
  </g>
</svg>
