<svg xmlns="http://www.w3.org/2000/svg" xmlns:xlink="http://www.w3.org/1999/xlink" width="32" height="32" viewBox="0 0 32 32">
  <defs>
    <path id="mileage-a" d="M27.8162837,0.242644164 C28.5669641,-0.0909912533 29.3176445,-0.0805657729 30.0683249,0.273922514 C30.8190053,0.628410801 31.3715892,1.18099467 31.7260775,1.93167507 C32.0805658,2.68235548 32.0909913,3.43303588 31.7573558,4.18371629 L19.8090261,30.2073037 C19.3502772,31.1665061 18.6517271,31.7399428 17.7133766,31.9276129 C16.7750261,32.115283 15.9200842,31.9380393 15.1485519,31.395881 C14.3770196,30.8537226 13.9912529,30.0613383 13.9912529,29.0187263 L13.9912529,18.0087471 L2.98127365,18.0087471 C1.93866166,18.0087471 1.14627743,17.6229804 0.604119039,16.8514481 C0.061960651,16.0799158 -0.115283015,15.2249739 0.0723870859,14.2866234 C0.260057187,13.3482729 0.833493926,12.6497228 1.79269635,12.1909739 L27.8162837,0.242644164 Z"/>
  </defs>
  <g fill="none" fill-rule="evenodd">
    <mask id="mileage-b" fill="#fff">
      <use xlink:href="#mileage-a"/>
    </mask>
    <use fill="#002C5C" fill-rule="nonzero" xlink:href="#mileage-a"/>
    <g mask="url(#mileage-b)">
      <rect width="32" height="32" fill="#002C5C"/>
    </g>
  </g>
</svg>
