<svg xmlns="http://www.w3.org/2000/svg" xmlns:xlink="http://www.w3.org/1999/xlink" width="64" height="64" viewBox="0 0 64 64">
  <defs>
    <path id="statistic---monetary-a" d="M22,22.8571429 C22.2380949,22.8571429 22.4404766,22.9404766 22.6071429,23.1071429 C22.7738092,23.2738092 22.8571429,23.4761908 22.8571429,23.7142857 L22.8571429,31.1428571 C22.8571429,31.380952 22.7738092,31.5833337 22.6071429,31.75 C22.4404766,31.9166663 22.2380949,32 22,32 L0.857142857,32 C0.619047982,32 0.416666303,31.9166663 0.25,31.75 C0.0833336966,31.5833337 0,31.380952 0,31.1428571 L0,28.2857143 C0,28.0476194 0.0833336966,27.8452377 0.25,27.6785714 C0.416666303,27.5119051 0.619047982,27.4285714 0.857142857,27.4285714 L3.42857143,27.4285714 L3.42857143,18.2857143 L1.42857143,18.2857143 C1.19047655,18.2857143 0.988094875,18.2023806 0.821428571,18.0357143 C0.654762268,17.869048 0.571428571,17.6666663 0.571428571,17.4285714 L0.571428571,14.5714286 C0.571428571,14.3333337 0.654762268,14.130952 0.821428571,13.9642857 C0.988094875,13.7976194 1.19047655,13.7142857 1.42857143,13.7142857 L3.42857143,13.7142857 L3.42857143,9 C3.42857143,7.28571429 3.85714286,5.73809487 4.71428571,4.35714286 C5.57142857,2.97619084 6.76190513,1.90476227 8.28571429,1.14285714 C9.80952345,0.380952018 11.5238092,0 13.4285714,0 C14.9523806,0 16.4523806,0.309523446 17.9285714,0.928571429 C18.9285714,1.35714286 19.8571429,1.88095202 20.7142857,2.5 C20.9047623,2.64285714 21.0119051,2.8333337 21.0357143,3.07142857 C21.0595234,3.30952345 21,3.52380916 20.8571429,3.71428571 L18.7857143,6.28571429 C18.6428571,6.42857143 18.4642857,6.52380916 18.25,6.57142857 C18.0357143,6.61904798 17.8333337,6.57142857 17.6428571,6.42857143 C16.2142857,5.52380916 14.8452377,5.07142857 13.5357143,5.07142857 C12.2261908,5.07142857 11.1666663,5.46428571 10.3571429,6.25 C9.54761941,7.03571429 9.14285714,8 9.14285714,9.14285714 L9.14285714,13.7142857 L15.1428571,13.7142857 C15.380952,13.7142857 15.5833337,13.7976194 15.75,13.9642857 C15.9166663,14.130952 16,14.3333337 16,14.5714286 L16,17.4285714 C16,17.6666663 15.9166663,17.869048 15.75,18.0357143 C15.5833337,18.2023806 15.380952,18.2857143 15.1428571,18.2857143 L9.14285714,18.2857143 L9.14285714,27.3571429 L17.9285714,27.3571429 L17.9285714,23.7142857 C17.9285714,23.4761908 18.0119051,23.2738092 18.1785714,23.1071429 C18.3452377,22.9404766 18.5476194,22.8571429 18.7857143,22.8571429 L22,22.8571429 Z"/>
  </defs>
  <g fill="none" fill-rule="evenodd">
    <circle cx="32" cy="32" r="32" fill="#7CD2FF" fill-rule="nonzero"/>
    <g transform="translate(21 16)">
      <mask id="statistic---monetary-b" fill="#FFFFFF">
        <use xlink:href="#statistic---monetary-a"/>
      </mask>
      <use fill="#002C5C" fill-rule="nonzero" xlink:href="#statistic---monetary-a"/>
      <g mask="url(#statistic---monetary-b)">
        <g transform="translate(-5)">
          <rect width="32" height="32" fill="#002C5C"/>
          <rect width="32" height="32" fill="none"/>
        </g>
      </g>
    </g>
  </g>
</svg>
