<?xml version="1.0" encoding="UTF-8"?>
<svg width="23px" height="32px" viewBox="0 0 23 32" version="1.1" xmlns="http://www.w3.org/2000/svg" xmlns:xlink="http://www.w3.org/1999/xlink">
    <!-- Generator: Sketch 53.2 (72643) - https://sketchapp.com -->
    <title>statistic-monetary (1)</title>
    <desc>Created with Sketch.</desc>
    <g id="Page-1" stroke="none" stroke-width="1" fill="none" fill-rule="evenodd">
        <g id="statistic-monetary-(1)" fill="#3A3A3A" fill-rule="nonzero">
            <g id="a-link">
                <path d="M22,22.857 C22.238,22.857 22.44,22.94 22.607,23.107 C22.774,23.274 22.857,23.477 22.857,23.714 L22.857,31.143 C22.857,31.381 22.774,31.583 22.607,31.75 C22.4478233,31.9135091 22.2281592,32.0039803 22,32 L0.857,32 C0.628840816,32.0039803 0.409176747,31.9135091 0.25,31.75 C0.0864909214,31.5908233 -0.00398027674,31.3711592 5.42101086e-20,31.143 L5.42101086e-20,28.286 C5.42101086e-20,28.048 0.083,27.846 0.25,27.679 C0.409176747,27.5154909 0.628840816,27.4250197 0.857,27.429 L3.43,27.429 L3.43,18.286 L1.43,18.286 C1.20149548,18.290258 0.981416192,18.1997648 0.822,18.036 C0.658490921,17.8768233 0.568019723,17.6571592 0.572,17.429 L0.572,14.57 C0.572,14.332 0.656,14.13 0.822,13.963 C0.981416192,13.7992352 1.20149548,13.708742 1.43,13.713 L3.43,13.713 L3.43,9 C3.43,7.286 3.858,5.738 4.715,4.357 C5.572,2.977 6.763,1.905 8.287,1.143 C9.811,0.381 11.524,0 13.429,0 C14.952,0 16.452,0.31 17.929,0.929 C18.929,1.357 19.857,1.881 20.714,2.5 C20.904,2.643 21.012,2.833 21.036,3.071 C21.0621113,3.3004469 20.9979153,3.53105038 20.857,3.714 L18.786,6.286 C18.6387311,6.43094041 18.4525123,6.52995598 18.25,6.571 C18.0365977,6.61900626 17.8129611,6.56668931 17.643,6.429 C16.214,5.524 14.845,5.071 13.536,5.071 C12.226,5.071 11.166,5.464 10.357,6.25 C9.547,7.036 9.143,8 9.143,9.143 L9.143,13.714 L15.143,13.714 C15.381,13.714 15.583,13.798 15.75,13.964 C15.917,14.131 16,14.334 16,14.571 L16,17.429 C16,17.667 15.917,17.869 15.75,18.036 C15.5908233,18.1995091 15.3711592,18.2899803 15.143,18.286 L9.143,18.286 L9.143,27.357 L17.929,27.357 L17.929,23.714 C17.929,23.476 18.012,23.274 18.179,23.107 C18.3381767,22.9434909 18.5578408,22.8530197 18.786,22.857 L22,22.857 Z" id="a"></path>
            </g>
        </g>
    </g>
</svg>