<?xml version="1.0" encoding="UTF-8"?>
<svg width="20px" height="20px" viewBox="0 0 20 20" version="1.1" xmlns="http://www.w3.org/2000/svg" xmlns:xlink="http://www.w3.org/1999/xlink">
    <!-- Generator: Sketch 53.2 (72643) - https://sketchapp.com -->
    <title>Group</title>
    <desc>Created with Sketch.</desc>
    <defs>
        <path d="M20,5.313 C20,5.61 19.896,5.863 19.687,6.071 C19.4883453,6.27545417 19.2140313,6.38872631 18.929,6.384 C18.631,6.384 18.378,6.28 18.169,6.071 L16.919,4.821 L12.143,9.643 C12.0474143,9.73473854 11.9183416,9.783186 11.786,9.777 C11.64083,9.77826164 11.499379,9.7311113 11.384,9.643 L10.357,8.616 C10.2688887,8.50062101 10.2217384,8.35916997 10.223,8.214 C10.223,8.065 10.268,7.946 10.357,7.857 L15.18,3.08 L13.93,1.83 C13.7252902,1.63110595 13.6119961,1.35637678 13.617,1.071 C13.617,0.774 13.721,0.521 13.93,0.313 C14.138,0.104 14.39,3.88578059e-16 14.688,3.88578059e-16 L18.93,3.88578059e-16 C19.227,3.88578059e-16 19.48,0.104 19.689,0.313 C19.897,0.521 20.001,0.773 20.001,1.071 L20.001,5.313 L20,5.313 Z M7.857,10.357 C7.95258565,10.2652615 8.08165836,10.216814 8.214,10.223 C8.364,10.223 8.497,10.268 8.616,10.357 L9.643,11.384 C9.733,11.503 9.777,11.637 9.777,11.786 C9.783186,11.9183416 9.73473854,12.0474143 9.643,12.143 L4.82,16.92 L6.07,18.17 C6.279,18.378 6.383,18.631 6.383,18.929 C6.383,19.226 6.279,19.479 6.07,19.688 C5.87117458,19.8920867 5.5968825,20.0049879 5.312,20 L1.07,20 C0.773,20 0.52,19.896 0.312,19.687 C0.108168586,19.4884143 -0.00471078061,19.2145371 0,18.93 L0,14.689 C0,14.391 0.104,14.138 0.313,13.929 C0.521,13.721 0.773,13.617 1.071,13.617 C1.369,13.617 1.622,13.721 1.831,13.93 L3.081,15.18 L7.857,10.358 L7.857,10.357 Z" id="path-1"></path>
    </defs>
    <g id="Page-1" stroke="none" stroke-width="1" fill="none" fill-rule="evenodd">
        <g id="epand-icon" transform="translate(-10.000000, -10.000000)">
            <g id="Group" transform="translate(10.000000, 10.000000)">
                <g id="a-link" fill="#002C5C" fill-rule="nonzero">
                    <path d="M20,5.313 C20,5.61 19.896,5.863 19.687,6.071 C19.4883453,6.27545417 19.2140313,6.38872631 18.929,6.384 C18.631,6.384 18.378,6.28 18.169,6.071 L16.919,4.821 L12.143,9.643 C12.0474143,9.73473854 11.9183416,9.783186 11.786,9.777 C11.64083,9.77826164 11.499379,9.7311113 11.384,9.643 L10.357,8.616 C10.2688887,8.50062101 10.2217384,8.35916997 10.223,8.214 C10.223,8.065 10.268,7.946 10.357,7.857 L15.18,3.08 L13.93,1.83 C13.7252902,1.63110595 13.6119961,1.35637678 13.617,1.071 C13.617,0.774 13.721,0.521 13.93,0.313 C14.138,0.104 14.39,3.88578059e-16 14.688,3.88578059e-16 L18.93,3.88578059e-16 C19.227,3.88578059e-16 19.48,0.104 19.689,0.313 C19.897,0.521 20.001,0.773 20.001,1.071 L20.001,5.313 L20,5.313 Z M7.857,10.357 C7.95258565,10.2652615 8.08165836,10.216814 8.214,10.223 C8.364,10.223 8.497,10.268 8.616,10.357 L9.643,11.384 C9.733,11.503 9.777,11.637 9.777,11.786 C9.783186,11.9183416 9.73473854,12.0474143 9.643,12.143 L4.82,16.92 L6.07,18.17 C6.279,18.378 6.383,18.631 6.383,18.929 C6.383,19.226 6.279,19.479 6.07,19.688 C5.87117458,19.8920867 5.5968825,20.0049879 5.312,20 L1.07,20 C0.773,20 0.52,19.896 0.312,19.687 C0.108168586,19.4884143 -0.00471078061,19.2145371 0,18.93 L0,14.689 C0,14.391 0.104,14.138 0.313,13.929 C0.521,13.721 0.773,13.617 1.071,13.617 C1.369,13.617 1.622,13.721 1.831,13.93 L3.081,15.18 L7.857,10.358 L7.857,10.357 Z" id="a"></path>
                </g>
                <g id="Clipped">
                    <mask id="mask-2" fill="white">
                        <use xlink:href="#path-1"></use>
                    </mask>
                    <g id="a"></g>
                    <g id="Group" mask="url(#mask-2)" fill-rule="nonzero">
                        <polygon id="Path" fill="#002C5C" points="0 0 20 0 20 20 0 20"></polygon>
                        <polygon id="Path" fill-opacity="0" fill="#FFFFFF" points="0 0 20 0 20 20 0 20"></polygon>
                    </g>
                </g>
            </g>
        </g>
    </g>
</svg>
