<?xml version="1.0" encoding="UTF-8"?>
<svg width="16px" height="16px" viewBox="0 0 16 16" version="1.1" xmlns="http://www.w3.org/2000/svg" xmlns:xlink="http://www.w3.org/1999/xlink">
    <!-- Generator: sketchtool 54.1 (76490) - https://sketchapp.com -->
    <title>6458BA3A-5BB7-404F-8C6A-91EE202AC7F7</title>
    <desc>Created with sketchtool.</desc>
    <defs>
        <path d="M11.0454545,8 L15.5909091,12.5454545 C15.8636364,12.8181818 16,13.1515149 16,13.5454545 C16,13.9393942 15.8636364,14.2878786 15.5909091,14.5909091 L14.5909091,15.5909091 C14.2878786,15.8636364 13.9393942,16 13.5454545,16 C13.1515149,16 12.8181818,15.8636364 12.5454545,15.5909091 L8,11.0454545 L3.45454545,15.5909091 C3.18181818,15.8636364 2.84848508,16 2.45454545,16 C2.06060583,16 1.71212144,15.8636364 1.40909091,15.5909091 L0.409090909,14.5909091 C0.136363636,14.2878786 0,13.9393942 0,13.5454545 C0,13.1515149 0.136363636,12.8181818 0.409090909,12.5454545 L4.95454545,8 L0.409090909,3.45454545 C0.136363636,3.18181818 0,2.84848508 0,2.45454545 C0,2.06060583 0.136363636,1.71212144 0.409090909,1.40909091 L1.40909091,0.409090909 C1.71212144,0.136363636 2.06060583,0 2.45454545,0 C2.84848508,0 3.18181818,0.136363636 3.45454545,0.409090909 L8,4.95454545 L12.5454545,0.409090909 C12.8181818,0.136363636 13.1515149,0 13.5454545,0 C13.9393942,0 14.2878786,0.136363636 14.5909091,0.409090909 L15.5909091,1.40909091 C15.8636364,1.71212144 16,2.06060583 16,2.45454545 C16,2.84848508 15.8636364,3.18181818 15.5909091,3.45454545 L11.0454545,8 Z" id="path-1"></path>
    </defs>
    <g id="Main-Site---Main-Design" stroke="none" stroke-width="1" fill="none" fill-rule="evenodd">
        <g id="Main---Component-Library-1" transform="translate(-605.000000, -8024.000000)">
            <g id="Search" transform="translate(0.000000, 7132.000000)">
                <g id="Search-Listing-With-Results" transform="translate(360.000000, 760.000000)">
                    <g id="Search-Bar" transform="translate(0.000000, 72.000000)">
                        <g id="Icons-/-Fill-/-Guide-Dogs-/-Arrows-Right-Black" transform="translate(245.000000, 60.000000)">
                            <g id="↳Icon-Colour">
                                <mask id="mask-2" fill="white">
                                    <use xlink:href="#path-1"></use>
                                </mask>
                                <use id="Mask" fill="#FFFFFF" fill-rule="nonzero" xlink:href="#path-1"></use>
                                <g mask="url(#mask-2)">
                                    <rect id="Rectangle-3" fill="#002C5C" x="0" y="0" width="16" height="16"></rect>
                                    <g id="↳Tint-/-Shade" fill="#FFFFFF" fill-opacity="0">
                                        <rect id="Rectangle-9" x="0" y="0" width="16" height="16"></rect>
                                    </g>
                                </g>
                            </g>
                        </g>
                    </g>
                </g>
            </g>
        </g>
    </g>
</svg>
