<svg xmlns="http://www.w3.org/2000/svg" xmlns:xlink="http://www.w3.org/1999/xlink" width="32" height="32" viewBox="0 0 32 32">
  <defs>
    <path id="debit-credit-card-front-a" d="M29.3333333,0 C30.0740738,0 30.703704,0.259259542 31.2222222,0.777777778 C31.7407405,1.29629601 32,1.92592621 32,2.66666667 L32,22.2222222 C32,22.9629627 31.7407405,23.5925929 31.2222222,24.1111111 C30.703704,24.6296293 30.0740738,24.8888889 29.3333333,24.8888889 L2.66666667,24.8888889 C1.92592621,24.8888889 1.29629601,24.6296293 0.777777778,24.1111111 C0.259259542,23.5925929 0,22.9629627 0,22.2222222 L0,2.66667302 C0,1.92592621 0.259259542,1.29629601 0.777777778,0.777777778 C1.29629601,0.259259542 1.92592621,0 2.66667302,0 L29.3333333,0 Z M10.6666667,13.1111111 L10.6666667,15.3333333 C10.6666667,15.5185182 10.7314818,15.6759262 10.8611111,15.8055556 C10.9907405,15.9351849 11.1481484,16 11.3333333,16 L14.8888889,16 C15.0740738,16 15.2314818,15.9351849 15.3611111,15.8055556 C15.4907405,15.6759262 15.5555556,15.5185182 15.5555556,15.3333333 L15.5555556,13.1111111 C15.5555556,12.9259262 15.4907405,12.7685182 15.3611111,12.6388889 C15.2314818,12.5092595 15.0740738,12.4444444 14.8888889,12.4444444 L11.3333333,12.4444444 C11.1481484,12.4444444 10.9907405,12.5092595 10.8611111,12.6388889 C10.7314818,12.7685182 10.6666667,12.9259262 10.6666667,13.1111111 Z M8.88888889,20.6666667 L8.88888889,20.2222222 C8.88888889,20.0370373 8.82407379,19.8796293 8.69444444,19.75 C8.5648151,19.6203707 8.40740712,19.5555556 8.22222222,19.5555556 L4.22222222,19.5555556 C4.03703732,19.5555556 3.87962935,19.6203707 3.75,19.75 C3.62037065,19.8796293 3.55555556,20.0370373 3.55555556,20.2222222 L3.55555556,20.6666667 C3.55555556,20.8518516 3.62037065,21.0092595 3.75,21.1388889 C3.87962935,21.2685182 4.03703732,21.3333333 4.22222222,21.3333333 L8.22222222,21.3333333 C8.40740712,21.3333333 8.5648151,21.2685182 8.69444444,21.1388889 C8.82407379,21.0092595 8.88888889,20.8518516 8.88888889,20.6666667 Z M9.77777778,15.3333333 L9.77777778,13.1111111 C9.77777778,12.9259262 9.71296268,12.7685182 9.58333333,12.6388889 C9.45370399,12.5092595 9.29629601,12.4444444 9.11111111,12.4444444 L4.22222222,12.4444444 C4.03703732,12.4444444 3.87962935,12.5092595 3.75,12.6388889 C3.62037065,12.7685182 3.55555556,12.9259262 3.55555556,13.1111111 L3.55555556,15.3333333 C3.55555556,15.5185182 3.62037065,15.6759262 3.75,15.8055556 C3.87962935,15.9351849 4.03703732,16 4.22222222,16 L9.11111111,16 C9.29629601,16 9.45370399,15.9351849 9.58333333,15.8055556 C9.71296268,15.6759262 9.77777778,15.5185182 9.77777778,15.3333333 Z M19.5555556,20.6666667 L19.5555556,20.2222222 C19.5555556,20.0370373 19.4907405,19.8796293 19.3611111,19.75 C19.2314818,19.6203707 19.0740738,19.5555556 18.8888889,19.5555556 L11.3333333,19.5555556 C11.1481484,19.5555556 10.9907405,19.6203707 10.8611111,19.75 C10.7314818,19.8796293 10.6666667,20.0370373 10.6666667,20.2222222 L10.6666667,20.6666667 C10.6666667,20.8518516 10.7314818,21.0092595 10.8611111,21.1388889 C10.9907405,21.2685182 11.1481484,21.3333333 11.3333333,21.3333333 L18.8888889,21.3333333 C19.0740738,21.3333333 19.2314818,21.2685182 19.3611111,21.1388889 C19.4907405,21.0092595 19.5555556,20.8518516 19.5555556,20.6666667 Z M21.3333333,15.3333333 L21.3333333,13.1111111 C21.3333333,12.9259262 21.2685182,12.7685182 21.1388889,12.6388889 C21.0092595,12.5092595 20.8518516,12.4444444 20.6666667,12.4444444 L17.1111111,12.4444444 C16.9259262,12.4444444 16.7685182,12.5092595 16.6388889,12.6388889 C16.5092595,12.7685182 16.4444444,12.9259262 16.4444444,13.1111111 L16.4444444,15.3333333 C16.4444444,15.5185182 16.5092595,15.6759262 16.6388889,15.8055556 C16.7685182,15.9351849 16.9259262,16 17.1111111,16 L20.6666667,16 C20.8518516,16 21.0092595,15.9351849 21.1388889,15.8055556 C21.2685182,15.6759262 21.3333333,15.5185182 21.3333333,15.3333333 Z M28.4444444,15.3333333 L28.4444444,13.1111111 C28.4444444,12.9259262 28.3796293,12.7685182 28.25,12.6388889 C28.1203707,12.5092595 27.9629627,12.4444444 27.7777778,12.4444444 L22.8888889,12.4444444 C22.703704,12.4444444 22.546296,12.5092595 22.4166667,12.6388889 C22.2870373,12.7685182 22.2222222,12.9259262 22.2222222,13.1111111 L22.2222222,15.3333333 C22.2222222,15.5185182 22.2870373,15.6759262 22.4166667,15.8055556 C22.546296,15.9351849 22.703704,16 22.8888889,16 L27.7777778,16 C27.9629627,16 28.1203707,15.9351849 28.25,15.8055556 C28.3796293,15.6759262 28.4444444,15.5185182 28.4444444,15.3333333 Z M28.4444444,7.55555556 L28.4444444,4.88888889 C28.4444444,4.51851824 28.3148151,4.20370399 28.0555556,3.94444444 C27.796296,3.6851849 27.4814818,3.55555556 27.1111111,3.55555556 L22.6666698,3.55555556 C22.296296,3.55555556 21.9814818,3.6851849 21.7222222,3.94444444 C21.4629627,4.20370399 21.3333333,4.51851824 21.3333333,4.88889207 L21.3333333,7.55555556 C21.3333333,7.92592621 21.4629627,8.24074046 21.7222222,8.5 C21.9814818,8.75925954 22.296296,8.88888889 22.6666667,8.88888889 L27.1111111,8.88888889 C27.4814818,8.88888889 27.796296,8.75925954 28.0555556,8.5 C28.3148151,8.24074046 28.4444444,7.92592621 28.4444444,7.55555556 Z"/>
  </defs>
  <g fill="none" fill-rule="evenodd" transform="translate(0 4)">
    <mask id="debit-credit-card-front-b" fill="#fff">
      <use xlink:href="#debit-credit-card-front-a"/>
    </mask>
    <use fill="#782B90" fill-rule="nonzero" xlink:href="#debit-credit-card-front-a"/>
    <g mask="url(#debit-credit-card-front-b)">
      <g transform="translate(0 -4)">
        <rect width="32" height="32" fill="#ffffff"/>
        <rect width="32" height="32" fill="none"/>
      </g>
    </g>
  </g>
</svg>
