<svg xmlns="http://www.w3.org/2000/svg" xmlns:xlink="http://www.w3.org/1999/xlink" width="32" height="32" viewBox="0 0 32 32">
  <defs>
    <path id="search-a" d="M31.5625,27.6875 C31.854167,27.979167 32,28.333333 32,28.75 C32,29.166667 31.854167,29.520833 31.5625,29.8125 L29.8125,31.5625 C29.520833,31.854167 29.166667,32 28.75,32 C28.333333,32 27.979167,31.854167 27.6875,31.5625 L21.4375,25.3125 C21.145833,25.020833 21,24.666667 21,24.25 L21,23.25 C18.666667,25.083333 16,26 13,26 C10.625,26 8.44791698,25.416667 6.46875,24.25 C4.48958302,23.083333 2.91666698,21.510417 1.75,19.53125 C0.583333015,17.552083 0,15.375 0,13 C0,10.625 0.583333015,8.44791698 1.75,6.46875 C2.91666698,4.48958302 4.48958302,2.91666698 6.46875,1.75 C8.44791698,0.583333015 10.625,0 13,0 C15.375,0 17.552083,0.583333015 19.53125,1.75 C21.510417,2.91666698 23.083333,4.48958302 24.25,6.46875 C25.416667,8.44791698 26,10.625 26,13 C26,16 25.083333,18.666667 23.25,21 L24.25,21 C24.666667,21 25.020833,21.145833 25.3125,21.4375 L31.5625,27.6875 Z M13,21 C14.458333,21 15.802083,20.645833 17.03125,19.9375 C18.260417,19.229167 19.229167,18.260417 19.9375,17.03125 C20.645833,15.802083 21,14.458333 21,13 C21,11.541667 20.645833,10.197917 19.9375,8.96875 C19.229167,7.73958302 18.260417,6.77083302 17.03125,6.0625 C15.802083,5.35416698 14.458333,5 13,5 C11.541667,5 10.197917,5.35416698 8.96875,6.0625 C7.73958302,6.77083302 6.77083302,7.73958302 6.0625,8.96875 C5.35416698,10.197917 5,11.541667 5,13 C5,14.458333 5.35416698,15.802083 6.0625,17.03125 C6.77083302,18.260417 7.73958302,19.229167 8.96875,19.9375 C10.197917,20.645833 11.541667,21 13,21 Z"/>
  </defs>
  <g fill="none" fill-rule="evenodd">
    <mask id="search-b" fill="#fff">
      <use xlink:href="#search-a"/>
    </mask>
    <use fill="#E1E000" fill-rule="nonzero" xlink:href="#search-a"/>
    <g mask="url(#search-b)">
      <rect width="32" height="32" fill="#E1E000"/>
      <rect width="32" height="32" fill="none"/>
    </g>
  </g>
</svg>
