<svg xmlns="http://www.w3.org/2000/svg" xmlns:xlink="http://www.w3.org/1999/xlink" width="32" height="32" viewBox="0 0 32 32">
  <defs>
    <path id="speech-bubble-a" d="M16,0 C18.916667,0 21.59375,0.583333015 24.03125,1.75 C26.46875,2.91666698 28.40625,4.48958302 29.84375,6.46875 C31.28125,8.44791698 32,10.625 32,13 C32,15.375 31.28125,17.552083 29.84375,19.53125 C28.40625,21.510417 26.46875,23.083333 24.03125,24.25 C21.59375,25.416667 18.916667,26 16,26 C13.666667,26 11.4375,25.604167 9.3125,24.8125 C8.22916698,25.645833 7.08333302,26.333333 5.875,26.875 C4.125,27.625 2.33333302,28 0.5,28 C0.291666985,28 0.145833015,27.895833 0.0625,27.6875 C-0.0208330154,27.479167 0,27.291667 0.125,27.125 C0.5,26.75 0.979166985,26.145833 1.5625,25.3125 C2.5625,23.854167 3.22916698,22.479167 3.5625,21.1875 C2.4375,20.020833 1.5625,18.75 0.9375,17.375 C0.3125,16 0,14.541667 0,13 C0,10.625 0.71875,8.44791698 2.15625,6.46875 C3.59375,4.48958302 5.53125,2.91666698 7.96875,1.75 C10.40625,0.583333015 13.083333,0 16,0 Z"/>
  </defs>
  <g fill="none" fill-rule="evenodd" transform="translate(0 2)">
    <mask id="speech-bubble-b" fill="#fff">
      <use xlink:href="#speech-bubble-a"/>
    </mask>
    <use fill="#002C5C" fill-rule="nonzero" xlink:href="#speech-bubble-a"/>
    <g mask="url(#speech-bubble-b)">
      <g transform="translate(0 -2)">
        <rect width="32" height="32" fill="#002C5C"/>
      </g>
    </g>
  </g>
</svg>
