<svg xmlns="http://www.w3.org/2000/svg" xmlns:xlink="http://www.w3.org/1999/xlink" width="32" height="32" viewBox="0 0 32 32">
  <defs>
    <path id="location-a" d="M10.7499744,31.3749252 C9.66664394,29.791596 8.2708133,27.7916007 6.56248435,25.3749395 C4.47915631,22.3749467 3.10415958,20.3541185 2.43749419,19.312454 C1.47916346,17.8124575 0.833331029,16.5520436 0.499998808,15.531213 C0.166666587,14.5103824 0,13.3333012 0,11.9999714 C0,9.83330957 0.541665693,7.83331434 1.62499613,5.99998569 C2.70832656,4.16665705 4.16665705,2.70832656 5.99998569,1.62499613 C7.83331434,0.541665693 9.83330957,0 11.9999714,0 C14.1666332,0 16.1666284,0.541665693 17.9999571,1.62499613 C19.8332857,2.70832656 21.2916162,4.16665705 22.3749467,5.99998569 C23.4582771,7.83331434 23.9999428,9.83330957 23.9999428,11.9999714 C23.9999428,13.3333012 23.8332762,14.5103824 23.499944,15.531213 C23.1666118,16.5520436 22.5207793,17.8124575 21.5624486,19.312454 C20.8957832,20.3541185 19.5207865,22.3749467 17.4374584,25.3749395 L13.2499684,31.3749252 C12.9583021,31.7915912 12.5416371,31.9999237 11.9999714,31.9999237 C11.4583057,31.9999237 11.0416407,31.7915912 10.7499744,31.3749252 Z M11.9999714,16.9999595 C13.3749681,16.9999595 14.5520483,16.5103776 15.531213,15.531213 C16.5103776,14.5520483 16.9999595,13.3749681 16.9999595,11.9999714 C16.9999595,10.6249747 16.5103776,9.44789446 15.531213,8.46872981 C14.5520483,7.48956516 13.3749681,6.99998331 11.9999714,6.99998331 C10.6249747,6.99998331 9.44789446,7.48956516 8.46872981,8.46872981 C7.48956516,9.44789446 6.99998331,10.6249747 6.99998331,11.9999714 C6.99998331,13.3749681 7.48956516,14.5520483 8.46872981,15.531213 C9.44789446,16.5103776 10.6249747,16.9999595 11.9999714,16.9999595 Z"/>
  </defs>
  <g fill="none" fill-rule="evenodd" transform="translate(4)">
    <mask id="location-b" fill="#fff">
      <use xlink:href="#location-a"/>
    </mask>
    <use fill="#002C5C" fill-rule="nonzero" xlink:href="#location-a"/>
    <g mask="url(#location-b)">
      <g transform="translate(-4)">
        <rect width="32" height="32" fill="#002C5C"/>
      </g>
    </g>
  </g>
</svg>
