<svg xmlns="http://www.w3.org/2000/svg" xmlns:xlink="http://www.w3.org/1999/xlink" width="32" height="32" viewBox="0 0 32 32">
  <defs>
    <path id="jpeg-&amp;-png-a" d="M24,8 L16,8 L16,0 L16.375,0 C16.791667,0 17.145833,0.145833015 17.4375,0.4375 L23.5625,6.5625 C23.854167,6.85416698 24,7.20833302 24,7.625 L24,8 Z M15.5,10 L24,10 L24,30.5 C24,30.916667 23.854167,31.270833 23.5625,31.5625 C23.270833,31.854167 22.916667,32 22.5,32 L1.5,32 C1.08333302,32 0.729166985,31.854167 0.4375,31.5625 C0.145833015,31.270833 0,30.916667 0,30.5 L0,1.5 C0,1.08333302 0.145833015,0.729166985 0.4375,0.4375 C0.729166985,0.145833015 1.08333302,0 1.5,0 L14,0 L14,8.5 C14,8.91666698 14.145833,9.27083302 14.4375,9.5625 C14.729167,9.85416698 15.083333,10 15.5,10 Z M7.0625,11 C6.22916698,11 5.52083302,11.291667 4.9375,11.875 C4.35416698,12.458333 4.0625,13.166667 4.0625,14 C4.0625,14.833333 4.35416698,15.541667 4.9375,16.125 C5.52083302,16.708333 6.21875,17 7.03125,17 C7.84375,17 8.55208302,16.708333 9.15625,16.125 C9.76041698,15.541667 10.0625,14.833333 10.0625,14 C10.0625,13.166667 9.76041698,12.458333 9.15625,11.875 C8.55208302,11.291667 7.85416698,11 7.0625,11 Z M20.0625,26 L20.0625,19 L17.5625,16.5 C17.4375,16.375 17.270833,16.3125 17.0625,16.3125 C16.854167,16.3125 16.666667,16.375 16.5,16.5 L10.0625,23 L7.5625,20.5 C7.39583302,20.375 7.21875,20.3125 7.03125,20.3125 C6.84375,20.3125 6.6875,20.375 6.5625,20.5 L4.0625,23 L4.0625,26 L20.0625,26 Z"/>
  </defs>
  <g fill="none" fill-rule="evenodd" transform="translate(4)">
    <mask id="jpeg-&amp;-png-b" fill="#fff">
      <use xlink:href="#jpeg-&amp;-png-a"/>
    </mask>
    <use fill="#FFFFFF" fill-rule="nonzero" xlink:href="#jpeg-&amp;-png-a"/>
    <g mask="url(#jpeg-&amp;-png-b)">
      <g transform="translate(-4)">
        <rect width="32" height="32" fill="#FFFFFF"/>
      </g>
    </g>
  </g>
</svg>
