<svg xmlns="http://www.w3.org/2000/svg" xmlns:xlink="http://www.w3.org/1999/xlink" width="32" height="32" viewBox="0 0 32 32">
  <defs>
    <path id="card---paypal-2-a" d="M7.83788563,18.8193833 C7.74390655,19.43025 7.39148364,21.6387665 6.78061691,25.4449339 L6.35770942,28.2643172 C6.31071934,28.3582963 6.24023476,28.4052863 6.14625568,28.4052863 L0.859912066,28.4052863 C0.62496382,28.4052863 0.413510075,28.3113073 0.225550833,28.123348 C0.0375915904,27.9353888 -0.0328929911,27.7004405 0.0140970884,27.4185022 L4.1726874,1.26872247 C4.21967748,0.892805057 4.37239335,0.599118943 4.63083718,0.387665198 C4.889281,0.176211454 5.20646162,0.0704845815 5.58237903,0.0704845815 L10.7277535,0 C13.8760651,0 15.8731279,0.0469900795 16.7189429,0.140969163 C17.7997061,0.187959242 18.8804704,0.422907489 19.9612337,0.845814978 C21.9348019,1.64463988 23.1565343,2.96035242 23.6264319,4.79295154 C24.0493394,6.43759142 23.8613801,8.4111597 23.0625552,10.7136564 C21.6058735,14.8957412 18.3165938,17.0337742 13.1947138,17.1277533 L11.5735685,17.1277533 C10.304846,17.0807632 9.45903101,17.1277533 9.03612352,17.2687225 C8.42525679,17.5036707 8.02584488,18.0205584 7.83788563,18.8193833 Z M25.1770927,8.66960352 C26.8687226,9.93832599 27.4325993,12.123348 26.8687226,15.2246696 C25.8349484,20.4875187 22.4751841,23.1189427 16.7894275,23.1189427 L16.5074892,23.1189427 C15.9436125,23.1189427 15.5676951,23.1659328 15.3797359,23.2599119 C15.0977975,23.4478711 14.8863438,23.8707786 14.7453746,24.5286344 L13.6881059,30.9427313 C13.6411158,31.2246696 13.5001467,31.4713656 13.2651984,31.6828194 C13.0302502,31.8942731 12.7718063,32 12.489868,32 L7.9788548,32 C7.74390655,32 7.55594731,31.9060209 7.41497815,31.7180617 C7.27400898,31.5301024 7.2270189,31.3186487 7.27400898,31.0837004 L9.17709268,19.1013216 C9.22408276,18.6784141 9.48252551,18.4669604 9.95242308,18.4669604 L10.7982381,18.4669604 C12.7718063,18.4669604 14.3459616,18.3964758 15.520705,18.2555066 C17.4942733,17.9265782 19.1859033,17.292217 20.5955949,16.3524229 C22.2872248,15.1306905 23.5324528,13.3920705 24.3312777,11.1365639 C24.613216,10.2437588 24.8246698,9.44493392 24.9656389,8.74008811 C24.9656389,8.64610902 24.9891334,8.59911894 25.0361235,8.59911894 C25.0831136,8.59911894 25.1301026,8.62261344 25.1770927,8.66960352 Z"/>
  </defs>
  <g fill="none" fill-rule="evenodd" transform="translate(2)">
    <mask id="card---paypal-2-b" fill="#fff">
      <use xlink:href="#card---paypal-2-a"/>
    </mask>
    <use fill="#131E29" fill-rule="nonzero" xlink:href="#card---paypal-2-a"/>
    <g mask="url(#card---paypal-2-b)">
      <g transform="translate(-2)">
        <rect width="32" height="32" fill="#002C5C"/>
        <rect width="32" height="32" fill="none"/>
      </g>
    </g>
  </g>
</svg>
