<?xml version="1.0" encoding="UTF-8"?>
<svg width="32px" height="32px" viewBox="0 0 32 32" version="1.1" xmlns="http://www.w3.org/2000/svg" xmlns:xlink="http://www.w3.org/1999/xlink">
    <!-- Generator: Sketch 53.2 (72643) - https://sketchapp.com -->
    <title>statistic---general-human-a</title>
    <desc>Created with Sketch.</desc>
    <g id="Page-1" stroke="none" stroke-width="1" fill="none" fill-rule="evenodd">
        <g id="icon-human--blue" fill="#002C5C" fill-rule="nonzero">
            <g id="statistic---general-human-a-link">
                <path d="M15.9999619,17.9999571 C14.3749657,17.9999571 12.8749693,17.5937081 11.4999726,16.78121 C10.1249759,15.9687119 9.03122847,14.8749645 8.2187304,13.4999678 C7.40623234,12.1249711 6.99998331,10.6249747 6.99998331,8.99997854 C6.99998331,7.37498242 7.40623234,5.87498599 8.2187304,4.49998927 C9.03122847,3.12499255 10.1249759,2.03124516 11.4999726,1.21874709 C12.8749693,0.406249031 14.3749657,0 15.9999619,0 C17.624958,0 19.1249544,0.406249031 20.4999511,1.21874709 C21.8749478,2.03124516 22.9686952,3.12499255 23.7811933,4.49998927 C24.5936914,5.87498599 24.9999404,7.37498242 24.9999404,8.99997854 C24.9999404,10.6249747 24.5936914,12.1249711 23.7811933,13.4999678 C22.9686952,14.8749645 21.8749478,15.9687119 20.4999511,16.78121 C19.1249544,17.5937081 17.624958,17.9999571 15.9999619,17.9999571 Z M23.9999428,19.9999523 C25.4582723,19.9999523 26.8020191,20.3541185 28.0311832,21.0624498 C29.2603472,21.7707811 30.2290949,22.7395288 30.9374262,23.9686929 C31.6457576,25.1978569 31.9999237,26.5416037 31.9999237,27.9999332 L31.9999237,28.9999309 C31.9999237,29.8332619 31.7082574,30.5415942 31.1249258,31.1249258 C30.5415942,31.7082574 29.8332619,31.9999237 28.9999309,31.9999237 L2.99999285,31.9999237 C2.16666182,31.9999237 1.45832954,31.7082574 0.874997914,31.1249258 C0.291666289,30.5415942 0,29.8332619 0,28.9999309 L0,27.9999332 C0,26.5416037 0.35416614,25.1978569 1.06249747,23.9686929 C1.77082879,22.7395288 2.73957648,21.7707811 3.96874054,21.0624498 C5.19790459,20.3541185 6.54165139,19.9999523 7.99998093,19.9999523 L11.4374727,19.9999523 C12.8958023,20.6666177 14.4166326,20.9999499 15.9999619,20.9999499 C17.5832911,20.9999499 19.1041214,20.6666177 20.562451,19.9999523 L23.9999428,19.9999523 Z" id="statistic---general-human-a"></path>
            </g>
        </g>
    </g>
</svg>
