<svg xmlns="http://www.w3.org/2000/svg" xmlns:xlink="http://www.w3.org/1999/xlink" width="18" height="18" viewBox="0 0 18 18">
    <defs>
        <path id="a" d="M9 0C4.03 0 0 4.027 0 9s4.03 9 9 9 9-4.027 9-9-4.03-9-9-9zm3.857 8.438H5.143a.632.632 0 0 0-.643.618c0 .34.287.619.643.619h7.714a.632.632 0 0 0 .643-.619.632.632 0 0 0-.643-.618z"/>
    </defs>
    <g fill="none" fill-rule="evenodd">
        <mask id="b" fill="#fff">
            <use xlink:href="#a"/>
        </mask>
        <use fill="#AAA" xlink:href="#a"/>
        <g mask="url(#b)">
            <path fill="#002C5C" d="M0 0h18v18H0z"/>
            <path fill="#FFF" fill-opacity="0" d="M0 0h18v18H0z"/>
        </g>
    </g>
</svg>
