<svg xmlns="http://www.w3.org/2000/svg" xmlns:xlink="http://www.w3.org/1999/xlink" width="32" height="32" viewBox="0 0 32 32">
  <defs>
    <path id="quote-closed-a" d="M3,14 C2.16666698,14 1.45833302,13.708333 0.875,13.125 C0.291666985,12.541667 0,11.833333 0,11 L0,3 C0,2.16666698 0.291666985,1.45833302 0.875,0.875 C1.45833302,0.291666985 2.16666698,0 3,0 L11,0 C11.833333,0 12.541667,0.291666985 13.125,0.875 C13.708333,1.45833302 14,2.16666698 14,3 L14,18 C14,19.791667 13.552083,21.458333 12.65625,23 C11.760417,24.541667 10.541667,25.760417 9,26.65625 C7.45833302,27.552083 5.79166698,28 4,28 L3.5,28 C3.08333302,28 2.72916698,27.854167 2.4375,27.5625 C2.14583302,27.270833 2,26.916667 2,26.5 L2,23.5 C2,23.083333 2.14583302,22.729167 2.4375,22.4375 C2.72916698,22.145833 3.08333302,22 3.5,22 L4,22 C5.08333302,22 6.02083302,21.604167 6.8125,20.8125 C7.60416698,20.020833 8,19.083333 8,18 L8,14 L3,14 Z M21,14 C20.166667,14 19.458333,13.708333 18.875,13.125 C18.291667,12.541667 18,11.833333 18,11 L18,3 C18,2.16666698 18.291667,1.45833302 18.875,0.875 C19.458333,0.291666985 20.166667,3.55271368e-15 21,3.55271368e-15 L29,3.55271368e-15 C29.833333,3.55271368e-15 30.541667,0.291666985 31.125,0.875 C31.708333,1.45833302 32,2.16666698 32,3 L32,18 C32,19.791667 31.552083,21.458333 30.65625,23 C29.760417,24.541667 28.541667,25.760417 27,26.65625 C25.458333,27.552083 23.791667,28 22,28 L21.5,28 C21.083333,28 20.729167,27.854167 20.4375,27.5625 C20.145833,27.270833 20,26.916667 20,26.5 L20,23.5 C20,23.083333 20.145833,22.729167 20.4375,22.4375 C20.729167,22.145833 21.083333,22 21.5,22 L22,22 C23.083333,22 24.020833,21.604167 24.8125,20.8125 C25.604167,20.020833 26,19.083333 26,18 L26,14 L21,14 Z"/>
  </defs>
  <g fill="none" fill-rule="evenodd" transform="translate(0 2)">
    <mask id="quote-closed-b" fill="#002C5C">
      <use xlink:href="#quote-closed-a"/>
    </mask>
    <use fill="#002C5C" fill-rule="nonzero" xlink:href="#quote-closed-a"/>
    <g mask="url(#quote-closed-b)">
      <g transform="translate(0 -2)">
        <rect width="32" height="32" fill="#002C5C"/>
        <rect width="32" height="32" fill="none"/>
      </g>
    </g>
  </g>
</svg>
