<svg xmlns="http://www.w3.org/2000/svg" xmlns:xlink="http://www.w3.org/1999/xlink" width="32" height="32" viewBox="0 0 32 32">
  <defs>
    <path id="quote-open-a" d="M29,14 C29.833333,14 30.541667,14.291667 31.125,14.875 C31.708333,15.458333 32,16.166667 32,17 L32,25 C32,25.833333 31.708333,26.541667 31.125,27.125 C30.541667,27.708333 29.833333,28 29,28 L21,28 C20.166667,28 19.458333,27.708333 18.875,27.125 C18.291667,26.541667 18,25.833333 18,25 L18,10 C18,8.20833302 18.447917,6.54166698 19.34375,5 C20.239583,3.45833302 21.458333,2.23958302 23,1.34375 C24.541667,0.447916985 26.208333,0 28,0 L28.5,0 C28.916667,0 29.270833,0.145833015 29.5625,0.4375 C29.854167,0.729166985 30,1.08333302 30,1.5 L30,4.5 C30,4.91666698 29.854167,5.27083302 29.5625,5.5625 C29.270833,5.85416698 28.916667,6 28.5,6 L28,6 C26.916667,6 25.979167,6.39583302 25.1875,7.1875 C24.395833,7.97916698 24,8.91666698 24,10 L24,14 L29,14 Z M11,14 C11.833333,14 12.541667,14.291667 13.125,14.875 C13.708333,15.458333 14,16.166667 14,17 L14,25 C14,25.833333 13.708333,26.541667 13.125,27.125 C12.541667,27.708333 11.833333,28 11,28 L3,28 C2.16666698,28 1.45833302,27.708333 0.875,27.125 C0.291666985,26.541667 0,25.833333 0,25 L0,10 C0,8.20833302 0.447916985,6.54166698 1.34375,5 C2.23958302,3.45833302 3.45833302,2.23958302 5,1.34375 C6.54166698,0.447916985 8.20833302,0 10,0 L10.5,0 C10.916667,0 11.270833,0.145833015 11.5625,0.4375 C11.854167,0.729166985 12,1.08333302 12,1.5 L12,4.5 C12,4.91666698 11.854167,5.27083302 11.5625,5.5625 C11.270833,5.85416698 10.916667,6 10.5,6 L10,6 C8.91666698,6 7.97916698,6.39583302 7.1875,7.1875 C6.39583302,7.97916698 6,8.91666698 6,10 L6,14 L11,14 Z"/>
  </defs>
  <g fill="none" fill-rule="evenodd" transform="translate(0 2)">
    <mask id="quote-open-b" fill="#002C5C">
      <use xlink:href="#quote-open-a"/>
    </mask>
    <use fill="#002C5C" fill-rule="nonzero" xlink:href="#quote-open-a"/>
    <g mask="url(#quote-open-b)">
      <g transform="translate(0 -2)">
        <rect width="32" height="32" fill="#002C5C"/>
        <rect width="32" height="32" fill="none"/>
      </g>
    </g>
  </g>
</svg>
