<?xml version="1.0" encoding="UTF-8"?>
<svg width="40px" height="40px" viewBox="0 0 40 40" version="1.1" xmlns="http://www.w3.org/2000/svg" xmlns:xlink="http://www.w3.org/1999/xlink">
    <title>Twitter</title>
    <g id="Twitter" stroke="none" stroke-width="1" fill="none" fill-rule="evenodd">
        <circle id="Oval" fill="#1B9DF0" fill-rule="nonzero" cx="20" cy="20" r="20"></circle>
        <path d="M16.34,30.55 C25.21,30.55 30.06,23.2 30.06,16.83 C30.06,16.62 30.06,16.41 30.05,16.21 C30.99,15.53 31.81,14.68 32.46,13.71 C31.6,14.09 30.67,14.35 29.69,14.47 C30.69,13.87 31.45,12.93 31.81,11.8 C30.88,12.35 29.85,12.75 28.75,12.97 C27.87,12.03 26.62,11.45 25.23,11.45 C22.57,11.45 20.41,13.61 20.41,16.27 C20.41,16.65 20.45,17.02 20.54,17.37 C16.53,17.17 12.98,15.25 10.6,12.33 C10.19,13.04 9.95,13.87 9.95,14.75 C9.95,16.42 10.8,17.9 12.1,18.76 C11.31,18.74 10.57,18.52 9.92,18.16 C9.92,18.18 9.92,18.2 9.92,18.22 C9.92,20.56 11.58,22.5 13.79,22.95 C13.39,23.06 12.96,23.12 12.52,23.12 C12.21,23.12 11.91,23.09 11.61,23.03 C12.22,24.95 14,26.34 16.11,26.38 C14.46,27.67 12.38,28.44 10.12,28.44 C9.73,28.44 9.35,28.42 8.97,28.37 C11.08,29.75 13.62,30.55 16.34,30.55" id="Path" fill="#FFFFFF" fill-rule="nonzero"></path>
    </g>
</svg>