<?xml version="1.0" encoding="UTF-8"?>
<svg width="32px" height="32px" viewBox="0 0 32 32" version="1.1" xmlns="http://www.w3.org/2000/svg" xmlns:xlink="http://www.w3.org/1999/xlink">
    <!-- Generator: Sketch 55.2 (78181) - https://sketchapp.com -->
    <title>Icons / Fill / General / Circle - Minus@2x</title>
    <desc>Created with Sketch.</desc>
    <defs>
        <path d="M16,0 C7.163,0 0,7.16 0,16 C0,24.84 7.163,32 16,32 C24.837,32 32,24.84 32,16 C32,7.16 24.837,0 16,0 L16,0 Z M22.8571429,15 L9.14285714,15 C8.51085714,15 8,15.495 8,16.1 C8,16.705 8.51085714,17.2 9.14285714,17.2 L22.8571429,17.2 C23.4891429,17.2 24,16.705 24,16.1 C24,15.495 23.4891429,15 22.8571429,15 L22.8571429,15 Z" id="path-1"></path>
    </defs>
    <g id="//-Icons" stroke="none" stroke-width="1" fill="none" fill-rule="evenodd">
        <g id="Icons-/-Fill-/-Guide-Dogs-/-Circle---Minus">
            <g id="Icons-/-Fill-/-General-/-Circle---Minus">
                <g id="Icons-/-Tint-/-Blue">
                    <mask id="mask-2" fill="white">
                        <use xlink:href="#path-1"></use>
                    </mask>
                    <use id="Mask" fill="#AAAAAA" xlink:href="#path-1"></use>
                    <g id="Colours-/-Supporting-Palette-/-White" mask="url(#mask-2)" fill="#FFFFFF">
                        <rect id="Rectangle-4-Copy-6" x="0" y="0" width="32" height="32"></rect>
                        <g id="Colours-/-Tints-&amp;-Shade-/-None" fill-opacity="0">
                            <rect id="Rectangle-9" x="0" y="0" width="32" height="32"></rect>
                        </g>
                    </g>
                </g>
            </g>
        </g>
    </g>
</svg>
