<?xml version="1.0" encoding="UTF-8"?>
<svg width="20px" height="20px" viewBox="0 0 20 20" version="1.1" xmlns="http://www.w3.org/2000/svg" xmlns:xlink="http://www.w3.org/1999/xlink">
    <!-- Generator: Sketch 55.2 (78181) - https://sketchapp.com -->
    <title>Icons / Fill / Guide Dogs / Circle - Minus</title>
    <desc>Created with Sketch.</desc>
    <defs>
        <path d="M10,0 C4.476875,0 0,4.475 0,10 C0,15.525 4.476875,20 10,20 C15.523125,20 20,15.525 20,10 C20,4.475 15.523125,0 10,0 L10,0 Z M14.2857143,9.28571429 L10.7142857,9.28571429 L10.7142857,5.71428571 C10.7142857,5.32142857 10.395,5 10,5 C9.605,5 9.28571429,5.32142857 9.28571429,5.71428571 L9.28571429,9.28571429 L5.71428571,9.28571429 C5.31928571,9.28571429 5,9.60714286 5,10 C5,10.3928571 5.31928571,10.7142857 5.71428571,10.7142857 L9.28571429,10.7142857 L9.28571429,14.2857143 C9.28571429,14.6785714 9.605,15 10,15 C10.395,15 10.7142857,14.6785714 10.7142857,14.2857143 L10.7142857,10.7142857 L14.2857143,10.7142857 C14.6807143,10.7142857 15,10.3928571 15,10 C15,9.60714286 14.6807143,9.28571429 14.2857143,9.28571429 L14.2857143,9.28571429 Z" id="path-1"></path>
    </defs>
    <g id="Main-Site---Sprints-1-&amp;-2---Main-Design" stroke="none" stroke-width="1" fill="none" fill-rule="evenodd">
        <g id="Mobile---Home-Page" transform="translate(-44.000000, -4240.000000)">
            <g id="Footer" transform="translate(0.000000, 4018.000000)">
                <g id="Social-Media" transform="translate(20.000000, 200.000000)">
                    <g id="Icons-/-Fill-/-Guide-Dogs-/-Expand" transform="translate(24.000000, 22.000000)">
                        <g id="Icons-/-Fill-/-General-/-Circle---Plus">
                            <g id="Icons-/-Tint-/-Blue">
                                <mask id="mask-2" fill="white">
                                    <use xlink:href="#path-1"></use>
                                </mask>
                                <use id="Mask" fill="#AAAAAA" xlink:href="#path-1"></use>
                                <g id="Colours-/-Supporting-Palette-/-White" mask="url(#mask-2)" fill="#FFFFFF">
                                    <rect id="Rectangle-4-Copy-6" x="0" y="0" width="20" height="20"></rect>
                                    <g id="Colours-/-Tints-&amp;-Shade-/-None" fill-opacity="0">
                                        <rect id="Rectangle-9" x="0" y="0" width="20" height="20"></rect>
                                    </g>
                                </g>
                            </g>
                        </g>
                    </g>
                </g>
            </g>
        </g>
    </g>
</svg>
