<?xml version="1.0" encoding="UTF-8"?>
<svg width="38px" height="24px" viewBox="0 0 38 24" version="1.1" xmlns="http://www.w3.org/2000/svg" xmlns:xlink="http://www.w3.org/1999/xlink">
    <!-- Generator: Sketch 62 (91390) - https://sketch.com -->
    <title>Apple_Pay_Mark_RGB_041619</title>
    <desc>Created with Sketch.</desc>
    <g id="Main-Site---Payment-Button-Amends" stroke="none" stroke-width="1" fill="none" fill-rule="evenodd">
        <g id="Desktop---Single-Donation---Apple-Pay-Step-1" transform="translate(-1026.000000, -1341.000000)" fill-rule="nonzero">
            <g id="Wide" transform="translate(451.000000, 144.000000)">
                <g id="3.-Payment-Details" transform="translate(0.000000, 918.000000)">
                    <g id="PayPal" transform="translate(117.000000, 227.000000)">
                        <g id="Apple-Pay" transform="translate(260.000000, 40.000000)">
                            <g id="Apple_Pay_Mark_RGB_041619" transform="translate(198.000000, 12.000000)">
                                <path d="M34.1203177,0 L3.3561917,0 C3.2280634,0 3.09970868,0 2.97180906,0.000747169811 C2.86369358,0.00151698113 2.75582943,0.00271698113 2.64796528,0.00566037736 C2.41272,0.0120226415 2.17545962,0.0259018868 1.94315774,0.0676528302 C1.70714264,0.110128302 1.48752,0.179411321 1.2732634,0.288498113 C1.06262943,0.395615094 0.869791698,0.535720755 0.702676981,0.70290566 C0.535489811,0.870090566 0.395384151,1.06261132 0.288289811,1.2734717 C0.179180377,1.4877283 0.109852075,1.70741887 0.0676709434,1.94361509 C0.0256958491,2.17598491 0.0117237736,2.4132 0.00538415094,2.64819623 C0.00248603774,2.75606038 0.00124301887,2.86392453 0.000538867925,2.97176604 C9.05660378e-07,3.09993962 9.05660378e-07,3.22802264 9.05660378e-07,3.35642264 L9.05660378e-07,20.6359245 C9.05660378e-07,20.7643245 9.05660378e-07,20.8921834 0.000538867925,21.020606 C0.00124301887,21.1284475 0.00248603774,21.2363117 0.00538415094,21.3441758 C0.0117237736,21.578966 0.0256958491,21.8161811 0.0676709434,22.048483 C0.109852075,22.2847698 0.179180377,22.5043698 0.288289811,22.7186491 C0.395384151,22.9295094 0.535489811,23.1222792 0.702676981,23.2892151 C0.869791698,23.4566717 1.06262943,23.5967547 1.2732634,23.7036 C1.48752,23.8129811 1.70714264,23.8822868 1.94315774,23.9247396 C2.17545962,23.9662189 2.41272,23.9803472 2.64796528,23.9867094 C2.75582943,23.9891547 2.86369358,23.9906038 2.97180906,23.9911019 C3.09970868,23.9920981 3.2280634,23.9920981 3.3561917,23.9920981 L34.1203177,23.9920981 C34.2482196,23.9920981 34.3765766,23.9920981 34.5044513,23.9911019 C34.6123177,23.9906038 34.7201842,23.9891547 34.8285419,23.9867094 C35.0632891,23.9803472 35.3005042,23.9662189 35.5333743,23.9247396 C35.7690725,23.8822868 35.9887404,23.8129811 36.2030196,23.7036 C36.41388,23.5967547 36.6061517,23.4566717 36.7736106,23.2892151 C36.9405238,23.1222792 37.0806272,22.9295094 37.1879955,22.7186491 C37.2973517,22.5043698 37.3666121,22.2847698 37.4085894,22.048483 C37.4505894,21.8161811 37.4642196,21.578966 37.4705819,21.3441758 C37.4735253,21.2363117 37.4749766,21.1284475 37.4754747,21.020606 C37.4764687,20.8921834 37.4764687,20.7643268 37.4764687,20.6359245 L37.4764687,3.35642264 C37.4764687,3.22802264 37.4764687,3.09993962 37.4754747,2.97176604 C37.4749766,2.86392453 37.4735253,2.75606038 37.4705819,2.64819623 C37.4642174,2.4132 37.4505894,2.17598491 37.4085894,1.94361509 C37.3666143,1.70741887 37.2973517,1.4877283 37.1879955,1.2734717 C37.0806272,1.06261132 36.9405238,0.870090566 36.7736106,0.70290566 C36.6061517,0.535720755 36.41388,0.395615094 36.2030196,0.288498113 C35.9887404,0.179411321 35.7690725,0.110128302 35.5333743,0.0676528302 C35.3005064,0.0259018868 35.0632913,0.0120226415 34.8285419,0.00566037736 C34.7201842,0.00271698113 34.6123177,0.00151698113 34.5044513,0.000747169811 C34.3765766,0 34.2482196,0 34.1203177,0 L34.1203177,0 Z" id="XMLID_4_" fill="#000000"></path>
                                <path d="M34.1203177,0.799698113 L34.4987683,0.800422642 C34.6012891,0.80114717 34.7038121,0.802256604 34.8069011,0.805064151 C34.9862242,0.809909434 35.1959932,0.819622642 35.3915253,0.854671698 C35.5614951,0.885283019 35.7040438,0.931833962 35.840846,1.00147925 C35.9759026,1.07010566 36.0996408,1.16003774 36.2076815,1.26792453 C36.3161343,1.37653585 36.4061819,1.50047547 36.475714,1.63702642 C36.5449721,1.77276226 36.5912287,1.91463396 36.6216589,2.08584906 C36.6566174,2.27925283 36.6662853,2.48959245 36.6712008,2.67002264 C36.6739608,2.77186415 36.6753192,2.87370566 36.6758196,2.97796981 C36.6767706,3.10406038 36.6767706,3.23008302 36.6767706,3.35642264 L36.6767706,20.6359245 C36.6767706,20.7622642 36.6767706,20.8880604 36.675797,21.0168453 C36.6753192,21.1186642 36.673963,21.2205057 36.6711781,21.3225283 C36.6662853,21.5026868 36.6566196,21.7129132 36.6212309,21.9086038 C36.5912287,22.0774642 36.544997,22.2193585 36.475354,22.3557736 C36.4060234,22.4919849 36.316114,22.6157887 36.2081343,22.7237208 C36.09948,22.8324 35.9761494,22.9220604 35.8394875,22.9913208 C35.7037064,23.0606264 35.5614023,23.1071343 35.3931079,23.1374264 C35.1936158,23.1729736 34.9750574,23.1827547 34.8104536,23.1872151 C34.7068913,23.1895472 34.6038272,23.1909487 34.4982521,23.1914491 C34.3724309,23.1924 34.2461615,23.1924 34.12032,23.1924 L3.3561917,23.1924 C3.35451623,23.1924 3.35288604,23.1924 3.35118792,23.1924 C3.22679547,23.1924 3.10215396,23.1924 2.97549736,23.1914264 C2.87222943,23.1909487 2.76918792,23.1895698 2.66956528,23.1873057 C2.50120302,23.1827547 2.28250868,23.1729962 2.08464453,23.1376528 C1.9149034,23.1071321 1.77259925,23.0606264 1.63502943,22.9904151 C1.49965811,22.921766 1.37641811,22.8321962 1.26771623,22.7233132 C1.15985208,22.6156302 1.07021434,22.4922113 1.00090868,22.3557962 C0.931535094,22.219517 0.88512,22.0771925 0.854601509,21.906317 C0.819323774,21.7110113 0.809633208,21.5016226 0.804790189,21.3226868 C0.80202566,21.220234 0.800870943,21.1178038 0.80021434,21.0159623 L0.799716226,20.7153057 L0.799716226,20.6359245 L0.799716226,3.35642264 L0.799716226,3.27704151 L0.800191698,2.97701887 C0.800870943,2.87456604 0.80202566,2.77213585 0.804790189,2.66977358 C0.809633208,2.4906566 0.819323774,2.28117736 0.854893585,2.08424151 C0.885142642,1.91490566 0.931535094,1.77258113 1.00127094,1.63562264 C1.07003321,1.50024906 1.15982943,1.3766717 1.26826189,1.26826415 C1.37626189,1.16021887 1.49990491,1.0704 1.63613887,1.00111698 C1.77223698,0.931811321 1.91481057,0.885283019 2.08455396,0.854739623 C2.28013132,0.8196 2.49004075,0.809909434 2.66981434,0.805041509 C2.77228981,0.802256604 2.87476528,0.80114717 2.97647094,0.800445283 L3.3561917,0.799698113 L34.1203177,0.799698113" id="XMLID_3_" fill="#FFFFFF"></path>
                                <g id="Group" transform="translate(4.981132, 6.566038)" fill="#000000">
                                    <g id="Path">
                                        <path d="M5.24970566,1.50351623 C5.57059019,1.10215925 5.78834038,0.563255094 5.73091019,0.0125592453 C5.26118038,0.0359162264 4.68796528,0.322455849 4.35610189,0.724127547 C4.05812377,1.06809736 3.79438868,1.62956604 3.86314415,2.1571766 C4.39044,2.20291472 4.91724906,1.89361132 5.24970566,1.50351623"></path>
                                        <path d="M5.72491925,2.26019321 C4.95915849,2.21457962 4.30807472,2.69479925 3.94238491,2.69479925 C3.57649358,2.69479925 3.0165034,2.28317887 2.41082717,2.29427321 C1.62250189,2.30585208 0.89102717,2.75157736 0.49098566,3.46048981 C-0.331831698,4.8786634 0.273844528,6.98231094 1.07399094,8.13733358 C1.46256,8.70876 1.93085208,9.33794264 2.54789887,9.31534189 C3.13090415,9.29246491 3.35941811,8.93783547 4.06808604,8.93783547 C4.77623321,8.93783547 4.98207623,9.31534189 5.59922264,9.30390566 C6.23921887,9.29246264 6.63933057,8.73219396 7.02789509,8.16021057 C7.4736566,7.50881434 7.65613585,6.87983774 7.66761283,6.84530943 C7.65613358,6.83387321 6.43351925,6.36484755 6.42218264,4.95846113 C6.41064,3.78087396 7.3820717,3.22074792 7.4277917,3.18601132 C6.87921509,2.37466415 6.02207547,2.28317887 5.72491925,2.26019321"></path>
                                    </g>
                                    <g transform="translate(9.056604, 0.452830)">
                                        <path d="M3.33596604,0.213690566 C5.00033434,0.213690566 6.15929434,1.36095623 6.15929434,3.03128604 C6.15929434,4.70757962 4.97648604,5.86080453 3.29423094,5.86080453 L1.4514566,5.86080453 L1.4514566,8.79133585 L0.120052075,8.79133585 L0.120052075,0.213690566 L3.33596604,0.213690566 L3.33596604,0.213690566 Z M1.45145434,4.74323774 L2.97914943,4.74323774 C4.13833811,4.74323774 4.79807774,4.11915623 4.79807774,3.03724755 C4.79807774,1.95545434 4.13833811,1.33722113 2.98511094,1.33722113 L1.45145434,1.33722113 L1.45145434,4.74323774 L1.45145434,4.74323774 Z" id="Shape"></path>
                                        <path d="M6.50716302,7.0140317 C6.50716302,5.92019774 7.34531094,5.24853509 8.83150189,5.16529358 L10.5433381,5.06428075 L10.5433381,4.58283396 C10.5433381,3.88732075 10.0737011,3.47122868 9.28921358,3.47122868 C8.54600377,3.47122868 8.0823283,3.82781434 7.96950566,4.38665434 L6.75688528,4.38665434 C6.82820377,3.25716226 7.79109736,2.42497811 9.33668151,2.42497811 C10.8524536,2.42497811 11.8213087,3.22746566 11.8213087,4.48170566 L11.8213087,8.79133811 L10.590806,8.79133811 L10.590806,7.76297434 L10.5612249,7.76297434 C10.1986777,8.45848755 9.408,8.89831245 8.58773887,8.89831245 C7.36319547,8.89831245 6.50716302,8.13744453 6.50716302,7.0140317 Z M10.5433381,6.4493434 L10.5433381,5.95597358 L9.00371547,6.05102491 C8.23688604,6.10456981 7.80302264,6.44338189 7.80302264,6.97837358 C7.80302264,7.52517509 8.25477283,7.88187396 8.94432453,7.88187396 C9.8418634,7.88187396 10.5433381,7.26364075 10.5433381,6.4493434 Z" id="Shape"></path>
                                        <path d="M12.9830196,11.0918264 L12.9830196,10.0515396 C13.0779555,10.0752747 13.2919064,10.0752747 13.3989962,10.0752747 C13.9933811,10.0752747 14.3144219,9.8256634 14.510486,9.18369736 C14.510486,9.17177208 14.6235374,8.8032634 14.6235374,8.79730189 L12.3647842,2.53791623 L13.7555796,2.53791623 L15.3369351,7.6263034 L15.3605547,7.6263034 L16.9419125,2.53791623 L18.2971653,2.53791623 L15.9549396,9.11822717 C15.4201789,10.6341147 14.8019434,11.121523 13.506086,11.121523 C13.3989985,11.121523 13.0779577,11.1095977 12.9830196,11.0918264 Z" id="Path"></path>
                                    </g>
                                </g>
                            </g>
                        </g>
                    </g>
                </g>
            </g>
        </g>
    </g>
</svg>
