<?xml version="1.0" encoding="UTF-8"?>
<svg width="16px" height="16px" viewBox="0 0 16 16" version="1.1" xmlns="http://www.w3.org/2000/svg" xmlns:xlink="http://www.w3.org/1999/xlink">
    <!-- Generator: Sketch 53.2 (72643) - https://sketchapp.com -->
    <title>arrow-right--blue</title>
    <desc>Created with Sketch.</desc>
    <defs>
        <path d="M6.82142857,1.06422018 L7.60714286,0.256880734 C7.77380971,0.0856267247 7.97619029,0 8.21428571,0 C8.45238113,0 8.65476172,0.0856267247 8.82142857,0.256880734 L15.75,7.37614679 C15.9166668,7.5474008 16,7.7553515 16,8 C16,8.2446485 15.9166668,8.4525992 15.75,8.62385321 L8.82142857,15.7431193 C8.65476172,15.9143733 8.45238113,16 8.21428571,16 C7.97619029,16 7.77380971,15.9143733 7.60714286,15.7431193 L6.82142857,14.9357798 C6.63095256,14.7645258 6.54166685,14.5565751 6.55357143,14.3119266 C6.56547601,14.0672781 6.65476172,13.8593274 6.82142857,13.6880734 L11.1071429,9.46788991 L0.857142857,9.46788991 C0.619047437,9.46788991 0.416666848,9.38226318 0.25,9.21100917 C0.0833331517,9.03975517 0,8.83180447 0,8.58715596 L0,7.41284404 C0,7.16819553 0.0833331517,6.96024483 0.25,6.78899083 C0.416666848,6.61773682 0.619047437,6.53211009 0.857142857,6.53211009 L11.1071429,6.53211009 L6.82142857,2.31192661 C6.65476172,2.1406726 6.56547601,1.9327219 6.55357143,1.68807339 C6.54166685,1.44342489 6.63095256,1.23547419 6.82142857,1.06422018 Z" id="path-1"></path>
    </defs>
    <g id="Page-1" stroke="none" stroke-width="1" fill="none" fill-rule="evenodd">
        <g id="arrow-right--blue" transform="translate(8.000000, 8.000000) rotate(-180.000000) translate(-8.000000, -8.000000) ">
            <g id="Mask" fill="#131E29" fill-rule="nonzero">
                <path d="M6.82142857,1.06422018 L7.60714286,0.256880734 C7.77380971,0.0856267247 7.97619029,0 8.21428571,0 C8.45238113,0 8.65476172,0.0856267247 8.82142857,0.256880734 L15.75,7.37614679 C15.9166668,7.5474008 16,7.7553515 16,8 C16,8.2446485 15.9166668,8.4525992 15.75,8.62385321 L8.82142857,15.7431193 C8.65476172,15.9143733 8.45238113,16 8.21428571,16 C7.97619029,16 7.77380971,15.9143733 7.60714286,15.7431193 L6.82142857,14.9357798 C6.63095256,14.7645258 6.54166685,14.5565751 6.55357143,14.3119266 C6.56547601,14.0672781 6.65476172,13.8593274 6.82142857,13.6880734 L11.1071429,9.46788991 L0.857142857,9.46788991 C0.619047437,9.46788991 0.416666848,9.38226318 0.25,9.21100917 C0.0833331517,9.03975517 0,8.83180447 0,8.58715596 L0,7.41284404 C0,7.16819553 0.0833331517,6.96024483 0.25,6.78899083 C0.416666848,6.61773682 0.619047437,6.53211009 0.857142857,6.53211009 L11.1071429,6.53211009 L6.82142857,2.31192661 C6.65476172,2.1406726 6.56547601,1.9327219 6.55357143,1.68807339 C6.54166685,1.44342489 6.63095256,1.23547419 6.82142857,1.06422018 Z" id="path-1"></path>
            </g>
            <g id="Clipped">
                <mask id="mask-2" fill="white">
                    <use xlink:href="#path-1"></use>
                </mask>
                <g id="path-1"></g>
                <g id="Group" mask="url(#mask-2)" fill-rule="nonzero">
                    <rect id="Rectangle-3" fill="#002C5C" x="0" y="0" width="16" height="16"></rect>
                    <g id="↳Tint-/-Shade" fill="#FFFFFF" fill-opacity="0">
                        <rect id="Rectangle-9" x="0" y="0" width="16" height="16"></rect>
                    </g>
                </g>
            </g>
        </g>
    </g>
</svg>
