<svg xmlns="http://www.w3.org/2000/svg" xmlns:xlink="http://www.w3.org/1999/xlink" width="56" height="56" viewBox="0 0 56 56">
    <defs>
        <path id="a" d="M10.232 1.596l1.179-1.21c.25-.258.553-.386.91-.386.358 0 .661.128.911.385l10.393 10.68c.25.256.375.568.375.935 0 .367-.125.679-.375.936L13.232 23.615c-.25.257-.553.385-.91.385-.358 0-.661-.128-.911-.385l-1.179-1.211a1.133 1.133 0 0 1-.402-.936c.018-.367.152-.679.402-.936l6.429-6.33H1.286c-.357 0-.661-.129-.911-.385A1.292 1.292 0 0 1 0 12.88v-1.762c0-.367.125-.679.375-.936.25-.256.554-.385.91-.385h15.376l-6.429-6.33a1.395 1.395 0 0 1-.402-.936 1.133 1.133 0 0 1 .402-.936z"/>
    </defs>
    <g fill="none" fill-rule="evenodd">
        <circle cx="28" cy="28" r="28" fill="#FFF"/>
        <g transform="translate(16 16)">
            <mask id="b" fill="#fff">
                <use xlink:href="#a"/>
            </mask>
            <use fill="#131E29" xlink:href="#a"/>
            <g mask="url(#b)">
                <path fill="#002C5C" d="M0 0h24v24H0z"/>
                <path fill="#FFF" fill-opacity="0" d="M0 0h24v24H0z"/>
            </g>
        </g>
    </g>
</svg>
