<svg height="32" viewBox="0 0 32 32" width="32" xmlns="http://www.w3.org/2000/svg"><g fill="none" fill-rule="evenodd"><path d="m0 3h32v26h-32z" fill="#fff"/><g fill-rule="nonzero"><path d="m0 29h32v-3h-32z" fill="#f7b600" transform="matrix(1 0 0 -1 0 55)"/><path d="m0 3h32v3h-32z" fill="#1a1f71" transform="matrix(1 0 0 -1 0 9)"/><path d="m15.8831613 19.8586546-1.6033993-7.7371577h-1.9393468l1.603545 7.7371577zm8.1588929-4.9961092 1.0209542 2.9057008.5872526-2.9057008zm2.1647201-2.7410485h1.7932257l-1.5666869 7.7371577h-1.6542431c-.3728056 0-.6869005-.2231453-.8260288-.5671861l-2.9100401-7.1699716h2.0366638l.4044191 1.1554236h2.4877019zm-5.0628141 2.526023c.0085953 2.0418397-2.7346364 2.1550665-2.7164259 3.0673458.0059731.2772776.2620857.5725993.8222411.6480838.2778196.0369904 1.0439723.0667631 1.9126867-.3462963l.3397353 1.6414112c-.4666262.1741255-1.0669904.3419356-1.8139128.3419356-1.9172029 0-3.2659464-1.0510685-3.276727-2.5574497-.0122375-1.1139222.963409-1.7349398 1.6969285-2.1058963.7563919-.3792268 1.0098822-.6225213 1.0062402-.9612992-.0052447-.5190685-.603278-.74883-1.1597912-.7575513-.9757922-.0156382-1.5410465.2721651-1.9917932.488995l-.3519728-1.696145c.453806-.214424 1.2900328-.40103 2.1559791-.4106535 2.0381207 0 3.370839 1.0388888 3.376812 2.6475199zm-8.0318563 5.2111347-3.14226052-7.7371577h-2.04977539l-1.54643681 6.1748398c-.09367488.3796778-.17540367.5192188-.46050747.6796609-.46633483.261489-1.23627534.5059865-1.91312371.6581584l.04574481.2244986h3.30003642c.42029866 0 .7984946-.2887055.89464611-.7883766l.81685082-4.4776422 2.01743354 5.2660188z" fill="#1a1f71" transform="matrix(1 0 0 -1 0 32)"/></g></g></svg>
