<svg height="32" viewBox="0 0 32 32" width="32" xmlns="http://www.w3.org/2000/svg"><g fill="none" fill-rule="evenodd"><path d="m0 3h32v26h-32z" fill="#000"/><g fill-rule="nonzero" transform="translate(3.929 6.44)"><path d="m8.801 1.649h6.5v11.893h-6.5z" fill="#7673c0"/><path d="m9.18144741 7.56445729c-.00243025-2.32119585 1.04388839-4.51453855 2.83730159-5.94768596-3.04575755-2.43704871-7.41958754-2.08207149-10.0476798.81546321-2.62809226 2.89753471-2.62809226 7.36480987 0 10.26234456 2.62809226 2.8975347 7.00192225 3.2525119 10.0476798.8154632-1.7928426-1.4326924-2.83909738-3.62512643-2.83730159-5.94558501z" fill="#eb001b"/><path d="m24.0706349 7.596903c0 2.8957689-1.6240877 5.5373041-4.1823362 6.8027354-2.5582484 1.2654314-5.6015897.9325957-7.837505-.8571504 1.7920603-1.4339087 2.8383938-3.62605124 2.8383938-5.94663546 0-2.32058421-1.0463335-4.51272673-2.8383938-5.94663549 2.2359153-1.78974606 5.2792566-2.12258172 7.837505-.85715039 2.5582485 1.26543133 4.1823362 3.90696652 4.1823362 6.80273543zm-.6009869 5.1066986v-.5930827h.1680418v-.1227068h-.4254676v.1227068h.1823433v.5930827zm.8259076 0v-.7157895h-.1287129l-.150165.5112782-.150165-.5112782h-.1144115v.7157895h.0929593v-.5368421l.1394389.4652631h.0965347l.1394389-.4652631v.5419548z" fill="#00a1df"/><path d="m20.2752228 16.6435761v-.0486483h.0449219c.0101437 0 .0184243.0020702.0244276.0060034.0062104.0039333.0093157.0101437.0093157.0186313 0 .0080735-.0031053.0140769-.0093157.0180102-.0060033.0041402-.0142839.0060034-.0244276.0060034zm.045336.0341572c.0233925 0 .0416098-.0051753.0542376-.015526.0126278-.0105577.0190453-.0246346.0190453-.0426448 0-.015112-.0051754-.0277399-.0151121-.0374695-.0101436-.0097297-.0246346-.0157331-.0432658-.0180102l.0598269-.0689356h-.046785l-.0554798.0685215h-.0178031v-.0685215h-.0391256v.1825861zm-.0115928-.2453113c.0213224 0 .0409888.0041403.059413.0120068.0182172.0080736.0343642.0190453.0480271.0329152.0138699.0136629.0246347.030017.0327083.0486482.0078664.0186313.0117998.0385046.0117998.059827 0 .0211154-.0039334.0409887-.0117998.05962-.0080736.0186312-.0188384.0349853-.0327083.0488552-.0136629.0136629-.0298099.0246347-.0480271.0325012-.0184242.0078665-.0380906.0117998-.059413.0117998-.0215295 0-.0416098-.0039333-.0604479-.0117998-.0188384-.0078665-.0351924-.0188383-.0490623-.0325012-.0136629-.0138699-.0246347-.030224-.0325013-.0488552-.0078664-.0186313-.0117998-.0385046-.0117998-.05962 0-.0213224.0039334-.0411957.0117998-.059827.0078666-.0186312.0188384-.0349853.0325013-.0486482.0138699-.0138699.0302239-.0248416.0490623-.0329152.0188381-.0078665.0389184-.0120068.0604479-.0120068zm0 .3500603c.0277399 0 .0536165-.0051754.0778371-.0155261.0242207-.0103506.0455431-.0242206.0637603-.0422308.0180102-.0178031.0322942-.0385045.0428518-.0625181.0103508-.0240136.0155261-.0494763.0155261-.0763881 0-.0271188-.0051753-.0523745-.0155261-.076181-.0105576-.0238066-.0248416-.044508-.0428518-.0625182-.0182172-.0178032-.0395396-.0318801-.0637603-.0424378-.0242206-.0103507-.0500972-.015526-.0778371-.015526-.0283609 0-.0546516.0051753-.0792863.015526-.0246346.0105577-.0459571.0246346-.0637602.0424378-.0180101.0180102-.0322941.0387116-.0428518.0625182-.0103507.0238065-.015526.0490622-.015526.076181 0 .0269118.0051753.0523745.015526.0763881.0105577.0240136.0248417.044715.0428518.0625181.0178031.0180102.0391256.0318802.0637602.0422308.0246347.0103507.0509254.0155261.0792863.0155261zm-2.9766507 1.7368453c.0867388 0 .21074-.0165611.3059663-.0538235l-.1322817-.405126c-.0910861.0372625-.1819652.0496834-.2687039.0496834-.2813317 0-.421894-.1819651-.421894-.5086328v-1.1079376h-.4299676v1.9761532h.4260343v-.2397219c.1115805.1734775.2728442.2894052.5208466.2894052zm-1.4880148-.4423883h-.7028117v-.8930574c0-.1985261.0701776-.3308079.285265-.3308079.1115803 0 .2521427.0372624.3802842.1115804l.1240013-.3678635c-.1364221-.0950193-.3513024-.1529831-.5374077-.1529831-.5084258 0-.6862506.2728441-.6862506.7317936v.9013379h-.4009857v.392705h.4009857l-.000207.5995119h.4341078l.000207-.5995119h.7028117zm-2.0659972-.1117875c-.119861.074525-.3639302.1695443-.6160729.1695443-.2355817 0-.376144-.0867388-.376144-.2314414 0-.1322818.1488428-.1695442.3347412-.1941789l.2026665-.0289819c.4299675-.0621041.6903908-.2440692.6903908-.5912313 0-.376351-.330808-.6450548-.9013379-.6450548-.3223204 0-.6200061.0828055-.8557948.25649l.2026665.3347413c.1447026-.1115805.3595828-.2068068.6572686-.2068068.2935455 0 .4506689.0869458.4506689.239929 0 .1115804-.1115803.1736845-.347162.2065997l-.2026665.0289819c-.4423883.0621041-.6821103.2606303-.6821103.5829507 0 .3927051.3223204.632634.8226727.632634.3142468 0 .5995118-.0703846.8061115-.2068067zm-3.282617-.3098996c.045543.285265.2190205.4794439.5249868.4794439.2769844 0 .4548092-.1734775.5003523-.4794439zm1.4718677-.1736845c-.0041403.6160729-.3846315 1.0377599-.9386003 1.0377599-.5788105 0-.9839364-.421687-.9839364-1.0377599 0-.6284937.421687-1.0377599 1.0129183-1.0377599.2976858 0 .5705299.0745249.8102518.2769844l-.21074.3183871c-.165404-.1322818-.376144-.2065997-.5746702-.2065997-.2769844 0-.5291271.1281415-.5912312.4835841h1.4677274c.0041403.0538236.0082806.1074402.0082806.165404zm6.8606427.6334621c-.0881879 0-.1699583-.0155261-.2455184-.0463711-.075767-.0310521-.1411833-.0743179-.196042-.1300046-.0550656-.0556867-.0985385-.1225522-.1300046-.2001823-.0316731-.0778372-.0476132-.1633339-.0476132-.2569041s.0159401-.1792739.0476132-.2569041c.0314661-.0778371.074939-.1444955.1300046-.2001823.0548587-.0556866.120275-.0991595.196042-.1300046.0755601-.031052.1573305-.0463711.2455184-.0463711.0879808 0 .1699583.0153191.2455183.0463711.07556.0308451.1413904.074318.197077.1300046.0556868.0556868.0993666.1223452.1310398.2001823.0316731.0776302.0474061.1633339.0474061.2569041s-.015733.1790669-.0474061.2569041c-.0316732.0776301-.075353.1444956-.1310398.2001823-.0556866.0556867-.121517.0989525-.197077.1300046-.07556.030845-.1575375.0463711-.2455183.0463711zm0 .406575c.1525691 0 .2939595-.0264978.4239641-.0794933s.2424132-.1258643.3374325-.2186065c.0948121-.0929492.1693371-.2026665.2227467-.3291519.0538236-.1266924.0805283-.2641495.0805283-.4127854s-.0267047-.286093-.0805283-.4125784c-.0534096-.1266924-.1279346-.2364097-.2227467-.3293589-.0950193-.0927421-.2074279-.165611-.3374325-.2186065s-.271395-.0794933-.4239641-.0794933c-.1527762 0-.2941666.0264978-.4241712.0794933-.1300047.0529955-.2422061.1258644-.3363974.2186065-.0941912.0929492-.1680951.2026665-.2217117.3293589-.0536165.1264854-.0805283.2639425-.0805283.4125784s.0269118.286093.0805283.4127854c.0536166.1264854.1275205.2362027.2217117.3291519.0941913.0927422.2063927.165611.3363974.2186065.1300046.0529955.271395.0794933.4241712.0794933zm-10.80032136-1.0400371c0 .3473691.22750812.632427.59951182.632427.35544263 0 .59537154-.2728441.59537154-.632427s-.23992891-.632634-.59537154-.632634c-.3720037 0-.59951182.2854719-.59951182.632634zm1.60000928 0v.9880766h-.42996756v-.2397219c-.13642207.1778248-.3432288.2894052-.62435347.2894052-.55396879 0-.98807663-.4341078-.98807663-1.0377599s.43410784-1.0377599.98807663-1.0377599c.28112467 0 .4879314.1115804.62435347.2894052v-.2397219h.42996756zm-2.42268191-.9880766v1.2402194c0 .46723-.29768578.7814769-.77733664.7856171-.25214273.0041403-.51256603-.0745249-.69453112-.3515093-.13642206.2192276-.35130233.3515093-.65312838.3515093-.21094701 0-.41754673-.0621041-.57881044-.2935455v.2438622h-.42996756v-1.9761532h.43410783v1.0955167c0 .3432288.19003863.5249869.48358412.5249869.28526495 0 .42996756-.1858983.42996756-.5208466v-1.099657h.43410783v1.0955167c0 .3432288.19852618.5249869.48379113.5249869.29354549 0 .43410783-.1858983.43410783-.5208466v-1.099657z" fill="#fff" transform="matrix(1 0 0 -1 0 35.458)"/></g></g></svg>
