<?xml version="1.0" encoding="UTF-8"?>
<svg width="14px" height="14px" viewBox="0 0 14 14" version="1.1" xmlns="http://www.w3.org/2000/svg" xmlns:xlink="http://www.w3.org/1999/xlink">
    <!-- Generator: sketchtool 54.1 (76490) - https://sketchapp.com -->
    <title>C6B1CE19-AFD8-4F81-A153-544BDAB99741</title>
    <desc>Created with sketchtool.</desc>
    <defs>
        <path d="M6.93164062,7.75065789 C6.82226542,7.83355263 6.69921854,7.875 6.5625,7.875 C6.42578146,7.875 6.31640625,7.83355263 6.234375,7.75065789 L0.123046875,1.65789474 C0.041015625,1.54736821 0,1.42993421 0,1.30559211 C0,1.18125 0.0546872914,1.063816 0.1640625,0.953289474 L0.943359375,0.124342105 C1.05273458,0.0414473684 1.17578146,0 1.3125,0 C1.44921854,0 1.55859375,0.0414473684 1.640625,0.124342105 L6.5625,5.05657895 L11.484375,0.124342105 C11.5664062,0.0414473684 11.6757815,0 11.8125,0 C11.9492185,0 12.0722654,0.0414473684 12.1816406,0.124342105 L13.0019531,0.953289474 C13.0839844,1.063816 13.125,1.18125 13.125,1.30559211 C13.125,1.42993421 13.0839844,1.54736821 13.0019531,1.65789474 L6.93164062,7.75065789 Z M6.93164062,13.8756579 C6.82226542,13.9585526 6.69921854,14 6.5625,14 C6.42578146,14 6.31640625,13.9585526 6.234375,13.8756579 L0.123046875,7.78289474 C0.041015625,7.67236821 0,7.55493421 0,7.43059211 C0,7.30625 0.0546872914,7.188816 0.1640625,7.07828947 L0.943359375,6.24934211 C1.05273458,6.16644737 1.17578146,6.125 1.3125,6.125 C1.44921854,6.125 1.55859375,6.16644737 1.640625,6.24934211 L6.5625,11.1815789 L11.484375,6.24934211 C11.5664062,6.16644737 11.6757815,6.125 11.8125,6.125 C11.9492185,6.125 12.0722654,6.16644737 12.1816406,6.24934211 L13.0019531,7.07828947 C13.0839844,7.188816 13.125,7.30625 13.125,7.43059211 C13.125,7.55493421 13.0839844,7.67236821 13.0019531,7.78289474 L6.93164062,13.8756579 Z" id="path-1"></path>
    </defs>
    <g id="Main-Site---Main-Design" stroke="none" stroke-width="1" fill="none" fill-rule="evenodd">
        <g id="Desktop---Content-Page" transform="translate(-392.000000, -706.000000)">
            <g id="On-This-Page-" transform="translate(360.000000, 538.000000)">
                <g id="On-This-Page" transform="translate(0.000000, 48.000000)">
                    <g id="Link-1" transform="translate(32.000000, 109.000000)">
                        <g id="Icons-/-Fill-/-Guide-Dogs-/-Double-Chevron-Down" transform="translate(0.000000, 11.000000)">
                            <g id="↳Icon-Colour" transform="translate(0.437500, 0.000000)">
                                <mask id="mask-2" fill="white">
                                    <use xlink:href="#path-1"></use>
                                </mask>
                                <use id="Mask" fill="#002C5C" fill-rule="nonzero" xlink:href="#path-1"></use>
                                <g mask="url(#mask-2)">
                                    <g transform="translate(-0.437500, 0.000000)">
                                        <rect id="Rectangle-3" fill="#002C5C" x="0" y="0" width="14" height="14"></rect>
                                        <g id="↳Tint-/-Shade" stroke-width="1" fill="none" fill-opacity="0">
                                            <rect id="Rectangle-9" fill="#FFFFFF" x="0" y="0" width="14" height="14"></rect>
                                        </g>
                                    </g>
                                </g>
                            </g>
                        </g>
                    </g>
                </g>
            </g>
        </g>
    </g>
</svg>
