<?xml version="1.0" encoding="UTF-8"?>
<svg width="137px" height="63px" viewBox="0 0 137 63" version="1.1" xmlns="http://www.w3.org/2000/svg" xmlns:xlink="http://www.w3.org/1999/xlink">
    <!-- Generator: sketchtool 54.1 (76490) - https://sketchapp.com -->
    <title>3AEFD1BE-5411-49E1-BF76-74E9811417BE</title>
    <desc>Created with sketchtool.</desc>
    <g id="Main-Site---Main-Design" stroke="none" stroke-width="1" fill="none" fill-rule="evenodd">
        <g id="Mobile---Home-Page" transform="translate(0.000000, -16.000000)" fill-rule="nonzero">
            <g id="Header-/-Navigation-1" transform="translate(-2.000000, 0.000000)">
                <g id="Horizontal-Logo" transform="translate(0.000000, 16.000000)">
                    <path d="M106.862301,0.00580439118 L0,0.00580439118 L0,62.9941956 L106.862301,62.9941956 C118.270099,63.212526 128.906128,57.2579749 134.674055,47.4238633 C140.441982,37.5897518 140.441982,25.4102482 134.674055,15.5761367 C128.906128,5.74202512 118.270099,-0.212526046 106.862301,0.00580439118 Z" id="Path" fill="#FFFFFF"></path>
                    <path d="M132.99923,16.5808625 C138.33359,25.7937656 138.33359,37.2062344 132.99923,46.4191375 C127.664869,55.6320407 117.829186,61.2066487 107.283513,60.9941336 L2,60.9941336 L2,2.00586636 L107.283513,2.00586636 C117.829186,1.79335127 127.664869,7.36795926 132.99923,16.5808625 Z" id="Path" fill="#002C5C"></path>
                    <path d="M22.4046847,20.7698462 C22.4489935,15.6295897 26.6024577,11.4861363 31.7106306,11.4863297 C34.730143,11.436117 37.5658832,12.9417282 39.2291892,15.4782418 L36.4385586,17.4277802 C35.4412097,15.7821146 33.6720995,14.7691918 31.7567568,14.7471648 C28.4354854,14.7471648 25.7430631,17.4565998 25.7430631,20.7988571 C25.7430631,24.1411145 28.4354854,26.8505495 31.7567568,26.8505495 C33.9693747,27.0584408 36.0570766,25.7865995 36.8998198,23.7173626 L31.7567568,23.7173626 L31.7567568,20.7234286 L40.6245045,20.7234286 C40.6245045,26.2819341 37.0151351,30.0069451 31.6875676,30.0069451 C26.5768075,30.0134685 22.4196629,25.8663435 22.3816216,20.7234286 L22.4046847,20.7698462 Z M49.6882883,30.0997802 C51.5508319,30.0905699 53.3334522,29.3371574 54.6439815,28.0052897 C55.9545109,26.673422 56.6855941,24.8722023 56.6763964,22.9978901 L56.6764821,11.9272967 L53.4590991,11.9272967 L53.4590991,22.9978901 C53.4590991,25.0807926 51.7811753,26.7693187 49.7113514,26.7693187 C47.6415274,26.7693187 45.9636036,25.0807926 45.9636036,22.9978901 L45.9636036,11.9272967 L42.7231575,11.9272967 L42.7232432,22.9978901 C42.7140456,24.8722023 43.4451287,26.673422 44.7556581,28.0052897 C46.0661875,29.3371574 47.8488078,30.0905699 49.7113514,30.0997802 L49.6882883,30.0997802 Z M62.9495495,11.9272967 L59.7091892,11.9272967 L59.7091892,29.6588132 L62.9495495,29.6588132 L62.9495495,11.9272967 Z M92.1358559,26.3631648 L85.8511712,26.3631648 L85.8511712,22.4408791 L91.1556757,22.4408791 L91.1556757,19.1452308 L85.8511712,19.1452308 L85.8511712,15.2461538 L92.1358559,15.2461538 L92.1358559,11.9272967 L82.6223423,11.9272967 L82.6223423,29.6588132 L92.1358559,29.6588132 L92.1358559,26.3631648 Z M71.8864865,29.6588132 L65.9592793,29.6588132 L65.9592793,11.9272967 L71.8864865,11.9272967 C76.7521649,11.9272967 80.6965766,15.8966319 80.6965766,20.7930549 C80.6965766,25.689478 76.7521649,29.6588132 71.8864865,29.6588132 L71.8864865,29.6588132 Z M69.1881081,26.3747692 L71.8864865,26.3747692 C74.9498258,26.3747691 77.433153,23.8757506 77.433153,20.7930549 C77.433153,17.7103593 74.9498258,15.2113408 71.8864865,15.2113407 L69.1881081,15.2113407 L69.1881081,26.3747692 Z M70.076036,51.2197802 C75.4151351,51.2197802 79.036036,47.517978 79.036036,41.9362637 L79.036036,41.9362637 L70.1452252,41.9362637 L70.1452252,44.8721758 L75.2075676,44.8721758 C74.3690977,46.9395883 72.2854791,48.2117946 70.076036,48.0053626 C66.7706864,48.0053626 64.0911712,45.3089164 64.0911712,41.9826813 C64.0911712,38.6564463 66.7706864,35.96 70.076036,35.96 C71.9951514,35.9578593 73.7790124,36.9541799 74.7924324,38.5941978 L77.6407207,36.5982418 C75.9503668,34.0736596 73.1004008,32.5872097 70.076036,32.6527473 C64.9556101,32.6527473 60.8046847,36.829901 60.8046847,41.9826813 C60.8046847,47.1354616 64.9556101,51.3126154 70.076036,51.3126154 L70.076036,51.2197802 Z M38.2836036,41.9362637 C38.3028069,46.7999656 34.4103482,50.7637129 29.5772973,50.802022 L23.6846847,50.802022 L23.6846847,33.0937143 L29.6234234,33.0937143 C34.4293974,33.1572675 38.2903344,37.0995095 38.2836036,41.9362637 L38.2836036,41.9362637 Z M35.0547748,41.9362637 C35.0675808,38.8753782 32.6188846,36.3800832 29.5772973,36.3545495 L26.8789189,36.3545495 L26.8789189,47.517978 L29.5772973,47.517978 C32.6188846,47.4924443 35.0675808,44.9971492 35.0547748,41.9362637 L35.0547748,41.9362637 Z M58.6828829,41.9362637 C58.6510735,47.0251969 54.5302962,51.1270719 49.4732701,51.1036313 C44.4162439,51.0801908 40.333191,46.9402891 40.3479682,41.851277 C40.3627455,36.7622649 44.4697709,32.6464466 49.5268468,32.6527473 C54.5947573,32.6909978 58.6830254,36.8361873 58.6828829,41.9362637 L58.6828829,41.9362637 Z M55.4540541,41.9362637 C55.4159476,38.6514102 52.7456107,36.0159198 49.4812586,36.0414104 C46.2169065,36.0669009 43.5875332,38.7437754 43.6000873,42.0288285 C43.6126414,45.3138815 46.2623965,47.9703256 49.5268468,47.9705495 C52.8168136,47.9450081 55.4668549,45.2470922 55.4540541,41.9362637 L55.4540541,41.9362637 Z M87.5693694,39.9983297 C85.4475676,39.0235604 84.4097297,38.2692747 84.4097297,37.3641319 C84.4097297,36.458989 85.1362162,35.7163077 86.8544144,35.7163077 C88.0240063,35.7089686 89.1278035,36.2600492 89.8295495,37.2016703 L92.4933333,35.3101538 C91.1722544,33.5140707 89.0748105,32.4651968 86.8544144,32.4902857 C83.5679279,32.4902857 80.9963964,34.6254945 80.9963964,37.3641319 C80.9963964,40.1027692 84.0061261,41.9246593 86.2317117,42.9922637 C88.8378378,44.2455385 89.5181982,44.8953846 89.5181982,45.9281758 C89.5181982,46.6244396 88.710991,47.9705495 86.5315315,47.9705495 C85.1331829,48.0262159 83.8225044,47.2859831 83.1412613,46.0558242 L80.1891892,47.5063736 C81.4434783,49.8436528 83.8925104,51.2775477 86.5315315,51.2197802 C89.9218018,51.2197802 92.9891892,48.748044 92.9891892,45.9397802 C92.9891892,43.1315165 90.7405405,41.4720879 87.5693694,40.0099341 L87.5693694,39.9983297 Z" id="Shape" fill="#FFFFFF"></path>
                    <path d="M113.423063,46.7752967 C113.261622,46.4851868 113.042523,46.0674286 112.881081,45.7309011 C112.535541,46.2440452 112.252892,46.797331 112.039279,47.3787253 C112.018622,47.8536825 112.143406,48.3235668 112.396757,48.7248352 C112.638441,49.0381325 113.075727,49.1181413 113.411532,48.9105055 C113.722883,48.7364396 113.203964,47.9589451 113.215495,47.8545055 C113.122668,47.4815813 113.198668,47.086435 113.423063,46.7752967" id="Path" fill="#FFFFFF"></path>
                    <path d="M99.7927928,47.517978 C99.789677,47.4638696 99.789677,47.4096249 99.7927928,47.3555165 C100.219459,46.3343297 100.865225,44.6052747 101.464865,43.2591648 C100.876757,41.3328352 100.484685,39.9867253 99.8965766,37.6658462 C99.6313514,38.8262857 98.8126126,41.9478681 96.956036,47.2974945 C96.956036,47.4019341 97.0367568,47.4367473 97.0252252,47.4715604 C96.8753153,47.9357363 96.7945946,48.1678242 96.8868468,48.4347253 C97.3494486,48.9182046 97.8967546,49.3116077 98.5012613,49.5951648 C99.2963905,49.9546024 100.194865,50.0082735 101.026667,49.746022 C101.303423,49.247033 100.796036,48.8060659 100.380901,48.5855824 C99.8860032,48.3223501 99.4152188,48.0155717 98.9740541,47.6688352 C98.9740541,47.6688352 99.6313514,47.7732747 99.7351351,47.5643956" id="Path" fill="#FFFFFF"></path>
                    <path d="M122.06018,39.3136703 C121.533717,39.0152442 121.045729,38.6527866 120.607207,38.2344615 C120.515695,38.0305874 120.472281,37.8081758 120.48036,37.5846154 C120.48036,36.7955165 119.984505,36.5286154 119.511712,36.2849231 C118.945384,36.0396914 118.340084,35.8982174 117.724324,35.8671648 C117.235368,35.9670259 116.786295,36.2091211 116.432793,36.5634286 C115.918618,36.9989632 115.366748,37.387325 114.783784,37.7238681 L109.871351,33.2213626 C109.996607,32.7933509 109.996607,32.3380777 109.871351,31.9100659 C109.790631,31.6547692 109.421622,31.5271209 109.421622,31.5271209 C109.494305,31.5372881 109.568037,31.5372881 109.640721,31.5271209 C109.69378,31.5082021 109.738633,31.4712726 109.767568,31.4226813 C109.652252,29.8792967 109.156396,28.1734505 108.983423,27.071033 C108.746013,24.7279125 108.360852,22.4023455 107.83027,20.1083956 C107.464254,19.2316604 106.714403,18.5756828 105.800721,18.3329231 C105.558559,18.2284835 104.313153,17.7527033 104.255495,17.1144615 C103.939915,17.0817682 103.641982,16.9521182 103.402162,16.7431209 C103.949648,16.9184573 104.547683,16.8145469 105.005045,16.4646154 C105.52145,15.6011052 105.721348,14.5829862 105.57009,13.5867253 C105.408649,11.4631209 104.082523,10.9061099 103.01009,11.0801758 C102.362071,11.1712905 101.77827,11.5224147 101.391615,12.0535991 C101.00496,12.5847836 100.848362,13.2508159 100.957477,13.900044 C101.020087,14.5071087 101.171639,15.1015053 101.407207,15.6639121 C101.598973,16.0102147 101.772193,16.3665919 101.926126,16.7315165 C102.015298,17.0010317 101.953639,17.297979 101.764685,17.509011 C101.035064,18.0426651 100.263785,18.5161178 99.4583784,18.9247473 C97.8209009,19.7950769 97.5787387,21.3500659 97.1520721,22.9398681 C96.1198922,25.8775153 95.8112475,29.023285 96.2526126,32.1073407 C96.2526126,32.1885714 96.3794595,32.2117802 96.5524324,32.2117802 C96.5254782,32.6882391 96.5920927,33.165373 96.7484685,33.6159121 C97.1810027,34.005833 97.7854589,34.1380668 98.3398198,33.964044 C98.9163964,33.8131868 98.5935135,33.0705055 98.5127928,32.8036044 C98.4320721,32.5367033 98.5127928,32.6411429 98.5127928,32.3742418 C98.4702192,32.13606 98.3842059,31.907865 98.2590991,31.7011868 C98.2756716,31.5546708 98.2756716,31.4067357 98.2590991,31.2602198 C97.9334035,28.8446257 98.4335696,26.3893747 99.6774775,24.2975824 C100.013994,25.8987509 100.145752,27.5366384 100.06955,29.1714286 C99.6056573,31.5878645 99.7363022,34.0818187 100.45009,36.4357802 C101.222703,39.5457582 101.603243,40.9614945 102.32973,43.235956 C103.137058,45.8349568 104.175242,48.3555463 105.431712,50.7672088 C105.431712,50.7672088 105.431712,50.7672088 105.535495,50.7672088 L105.685405,51.2197802 C105.86991,51.8116044 106.988468,51.8116044 107.876396,51.4054505 C108.764324,50.9992967 110.344144,50.5467253 109.998198,49.7576264 C109.652252,48.9685275 108.568288,49.2122198 108.199279,49.247033 C107.806716,49.2953934 107.420239,49.3848448 107.046126,49.5139341 C107.046126,49.5139341 106.907748,49.5835604 106.976937,49.5139341 C107.10726,49.2881901 107.304976,49.1095274 107.541982,49.0033407 C106.504138,46.4495844 105.787475,43.7753278 105.408649,41.0427253 C105.016577,37.9791648 104.785946,34.2077363 104.785946,34.2077363 C105.067649,34.8253145 105.284093,35.4709687 105.431712,36.1340659 C105.670049,35.178194 105.828203,34.2038698 105.904505,33.2213626 C106.008288,31.3878681 106.112072,30.4130989 106.077477,29.2062418 C106.042883,27.9993846 106.481081,23.5549011 106.481081,23.5549011 C106.481081,23.5549011 106.573333,24.0770989 106.70018,24.9358242 C106.976937,26.9781978 108.118559,31.3646593 108.118559,31.3646593 C108.106391,31.7104125 108.052173,32.0533631 107.957117,32.3858462 C107.887928,32.5599121 107.74955,32.8384176 107.853333,32.9892747 C107.902581,33.0764311 107.974292,33.1485953 108.060901,33.1981538 C108.060901,33.1981538 107.818739,33.4418462 108.060901,33.5927033 C108.150065,33.6597088 108.252204,33.7071478 108.360721,33.731956 C108.360721,33.848 110.378739,36.4125714 111.601081,37.955956 C110.863355,37.8646641 110.131718,37.7290372 109.41009,37.5498022 C109.156396,37.4917802 106.746306,37.0508132 105.846847,37.8863297 C106.031351,39.8590769 105.904505,38.7102418 106.16973,40.8802637 C106.437272,42.8537818 106.892947,44.796806 107.53045,46.6824615 C107.597502,46.0322519 107.744699,45.3929661 107.968649,44.7793407 C108.117927,44.3614817 108.203461,43.9232828 108.222342,43.4796484 C109.258712,43.4330755 110.287878,43.6739287 111.197477,44.1759121 C111.55735,44.3784754 111.946407,44.523336 112.350631,44.6052747 C110.932252,39.5457582 111.981622,38.3389011 112.500541,38.0603956 L109.133333,33.8131868 L109.387027,33.6623297 L114.195676,37.9907692 L113.84973,37.9907692 C113.329033,38.1696369 112.939562,38.61001 112.823423,39.1512088 C112.676078,39.8289777 112.800392,40.5378786 113.169369,41.123956 C113.67938,41.9007583 114.435187,42.4814186 115.314234,42.7717802 C115.806904,42.9028871 116.321117,42.9305378 116.824865,42.853011 C116.892863,42.5841568 116.98952,42.3234802 117.113153,42.0755165 C117.296784,41.7607607 117.535031,41.4817043 117.816577,41.2516044 C117.931892,41.1471648 118.358559,40.5785495 118.358559,40.5785495 C119.765405,41.1355604 120.468829,41.1471648 120.664865,41.0427253 C120.730283,40.9968187 120.785303,40.9374964 120.826306,40.8686593 C121.038939,40.9096136 121.258733,40.889506 121.460541,40.8106374 C121.837313,40.4993896 122.13398,40.1013342 122.325405,39.6501978 C122.325405,39.5225495 122.325405,39.4065055 122.094775,39.2672527" id="Path" fill="#FFFFFF"></path>
                    <path d="M117.286126,50.4422857 C117.124685,50.3494505 116.963243,49.7576264 116.870991,49.4907253 C116.757667,48.9913719 116.583369,48.5080505 116.352072,48.0517802 C115.96344,47.1493759 115.632202,46.2230247 115.36036,45.2783297 C115.794843,44.7912626 116.181057,44.2626919 116.513514,43.7001319 L116.225225,43.7001319 C115.09034,43.7450439 113.959768,43.5349431 112.915676,43.0850989 C112.977489,43.6736222 113.117101,44.2512074 113.330811,44.8025495 C113.4,44.9185934 113.99964,46.1370549 114.241802,46.578022 C114.483964,47.018989 114.991351,47.7384615 115.164324,48.0633846 C115.360707,48.3654027 115.523145,48.6884384 115.648649,49.0265495 C115.879682,49.7383812 116.2014,50.4170867 116.605766,51.0457143 C117.067027,51.5214945 117.632072,51.6607473 117.92036,51.3358242 C118.208649,51.0109011 117.805045,50.6743736 117.320721,50.4074725" id="Path" fill="#FFFFFF"></path>
                </g>
            </g>
        </g>
    </g>
</svg>
