<svg xmlns="http://www.w3.org/2000/svg" xmlns:xlink="http://www.w3.org/1999/xlink" width="32" height="32" viewBox="0 0 32 32">
  <defs>
    <path id="pdf-a" d="M11.375,16 C11.208333,15.541667 11.125,14.9375 11.125,14.1875 C11.125,13.4375 11.166667,13.0625 11.25,13.0625 C11.5,13.0625 11.625,13.46875 11.625,14.28125 C11.625,15.09375 11.541667,15.666667 11.375,16 Z M11.25,18.9375 C11.833333,20.020833 12.5625,20.875 13.4375,21.5 C12.6875,21.666667 11.666667,22 10.375,22.5 L9.5,22.875 C10.041667,21.875 10.625,20.5625 11.25,18.9375 Z M5.375,26.75 C5.58333302,26.208333 6.22916698,25.4375 7.3125,24.4375 L7.5625,24.25 C7.14583302,24.875 6.75,25.416667 6.375,25.875 C6.125,26.208333 5.89583302,26.447917 5.6875,26.59375 C5.47916698,26.739583 5.375,26.791667 5.375,26.75 Z M24,10 L24,30.5 C24,30.916667 23.854167,31.270833 23.5625,31.5625 C23.270833,31.854167 22.916667,32 22.5,32 L1.5,32 C1.08333302,32 0.729166985,31.854167 0.4375,31.5625 C0.145833015,31.270833 0,30.916667 0,30.5 L0,1.5 C0,1.08333302 0.145833015,0.729166985 0.4375,0.4375 C0.729166985,0.145833015 1.08333302,0 1.5,0 L14,0 L14,8.5 C14,8.91666698 14.145833,9.27083302 14.4375,9.5625 C14.729167,9.85416698 15.083333,10 15.5,10 L24,10 Z M15,20.75 C13.791667,20 12.895833,18.875 12.3125,17.375 L12.375,17.3125 C12.583333,16.4375 12.708333,15.770833 12.75,15.3125 C12.875,14.479167 12.875,13.833333 12.75,13.375 C12.625,12.791667 12.34375,12.395833 11.90625,12.1875 C11.46875,11.979167 11.020833,11.947917 10.5625,12.09375 C10.104167,12.239583 9.83333302,12.520833 9.75,12.9375 C9.58333302,13.479167 9.5625,14.166667 9.6875,15 C9.77083302,15.708333 9.95833302,16.625 10.25,17.75 C9.29166698,20 8.4375,21.791667 7.6875,23.125 C6.47916698,23.708333 5.54166698,24.333333 4.875,25 C3.95833302,25.916667 3.75,26.708333 4.25,27.375 C4.41666698,27.583333 4.63541698,27.739583 4.90625,27.84375 C5.17708302,27.947917 5.41666698,28 5.625,28 C6.16666698,28 6.73958302,27.697917 7.34375,27.09375 C7.94791698,26.489583 8.64583302,25.5 9.4375,24.125 L10.375,23.8125 C12.208333,23.1875 13.541667,22.8125 14.375,22.6875 C15.041667,23.0625 15.739583,23.354167 16.46875,23.5625 C17.197917,23.770833 17.833333,23.875 18.375,23.875 C18.916667,23.875 19.333333,23.708333 19.625,23.375 C19.916667,23.041667 20.052083,22.65625 20.03125,22.21875 C20.010417,21.78125 19.875,21.4375 19.625,21.1875 C18.958333,20.5625 17.416667,20.416667 15,20.75 Z M23.5625,6.5625 C23.854167,6.85416698 24,7.20833302 24,7.625 L24,8 L16,8 L16,0 L16.375,0 C16.791667,0 17.145833,0.145833015 17.4375,0.4375 L23.5625,6.5625 Z M18.9375,22.5 L18.75,22.5625 C18.583333,22.604167 18.333333,22.604167 18,22.5625 C17.541667,22.4375 16.958333,22.229167 16.25,21.9375 C17,21.895833 17.625,21.916667 18.125,22 C18.5,22.041667 18.75,22.125 18.875,22.25 C19,22.375 19.020833,22.458333 18.9375,22.5 Z"/>
  </defs>
  <g fill="none" fill-rule="evenodd" transform="translate(4)">
    <mask id="pdf-b" fill="#FFFFFF">
      <use xlink:href="#pdf-a"/>
    </mask>
    <use fill="#FFFFFF" fill-rule="nonzero" xlink:href="#pdf-a"/>
    <g mask="url(#pdf-b)">
      <g transform="translate(-4)">
        <rect width="32" height="32" fill="#FFFFFF"/>
      </g>
    </g>
  </g>
</svg>
