<svg xmlns="http://www.w3.org/2000/svg" xmlns:xlink="http://www.w3.org/1999/xlink" width="32" height="32" viewBox="0 0 32 32">
  <defs>
    <path id="email-a" d="M31.375,7.9375 C31.5,7.8125 31.635417,7.79166698 31.78125,7.875 C31.927083,7.95833302 32,8.08333302 32,8.25 L32,21 C32,21.833333 31.708333,22.541667 31.125,23.125 C30.541667,23.708333 29.833333,24 29,24 L3,24 C2.16666698,24 1.45833302,23.708333 0.875,23.125 C0.291666985,22.541667 0,21.833333 0,21 L0,8.25 C0,8.08333302 0.0729169846,7.96875 0.21875,7.90625 C0.364583015,7.84375 0.5,7.85416698 0.625,7.9375 C2,8.97916698 5.20833302,11.333333 10.25,15 L10.875,15.5625 C11.875,16.3125 12.666667,16.854167 13.25,17.1875 C14.25,17.729167 15.166667,18 16,18 C16.833333,18 17.75,17.708333 18.75,17.125 C19.375,16.791667 20.166667,16.25 21.125,15.5 L21.75,15 C26.666667,11.458333 29.875,9.10416698 31.375,7.9375 Z M16,16 C15.458333,16 14.791667,15.75 14,15.25 C13.541667,15 12.895833,14.541667 12.0625,13.875 L11.4375,13.4375 C6.3125,9.6875 2.83333302,7.10416698 1,5.6875 L0.5625,5.375 C0.1875,5.08333302 0,4.6875 0,4.1875 L0,3 C0,2.16666698 0.291666985,1.45833302 0.875,0.875 C1.45833302,0.291666985 2.16666698,0 3,0 L29,0 C29.833333,0 30.541667,0.291666985 31.125,0.875 C31.708333,1.45833302 32,2.16666698 32,3 L32,4.1875 C32,4.6875 31.8125,5.08333302 31.4375,5.375 L31.125,5.625 C29.333333,7.04166698 25.8125,9.64583302 20.5625,13.4375 L19.9375,13.875 C19.104167,14.541667 18.458333,15 18,15.25 C17.208333,15.75 16.541667,16 16,16 Z"/>
  </defs>
  <g fill="none" fill-rule="evenodd" transform="translate(0 4)">
    <mask id="email-b" fill="#fff">
      <use xlink:href="#email-a"/>
    </mask>
    <use fill="#002C5C" fill-rule="nonzero" xlink:href="#email-a"/>
    <g mask="url(#email-b)">
      <g transform="translate(0 -4)">
        <rect width="32" height="32" fill="#002C5C"/>
      </g>
    </g>
  </g>
</svg>
