<svg xmlns="http://www.w3.org/2000/svg" xmlns:xlink="http://www.w3.org/1999/xlink" width="64" height="64" viewBox="0 0 64 64">
  <defs>
    <path id="statistic---data-pie-a" d="M31.0495559,16.8739859 C31.3239112,16.8739859 31.5590726,16.981401 31.7550401,17.1962322 C31.9510077,17.4110633 32.0293954,17.6551887 31.9902015,17.92861 C31.7550401,19.530076 31.2651208,21.0338922 30.5204428,22.4400577 C29.7757647,23.8462232 28.8351191,25.0961477 27.698506,26.1898323 C27.5025385,26.3460732 27.2771748,26.4241932 27.022417,26.4241932 C26.7676591,26.4241932 26.5618929,26.3265426 26.4051183,26.1312421 L17.116243,16.8739859 L31.0495559,16.8739859 Z M30.1089103,13.065621 C30.1089103,13.3390424 30.0207248,13.5734033 29.8443538,13.7687038 C29.6679827,13.9640043 29.44262,14.0616549 29.1682647,14.0616549 L15.9992264,14.0616549 L15.9992264,0.937445897 C15.9992264,0.664022296 16.0972106,0.439426717 16.2931781,0.26365603 C16.4891457,0.0878853434 16.7243071,0 16.9986623,0 C19.3110824,0.156240908 21.4373337,0.830028541 23.3774153,2.0213629 C25.3174968,3.21269725 26.8852398,4.77510366 28.0806433,6.70858121 C29.2760467,8.64205876 29.9521358,10.7610723 30.1089103,13.065621 Z M13.1772896,16.8739859 L22.3485842,26.0140616 C22.5445517,26.2093621 22.6327372,26.4534883 22.6131407,26.7464395 C22.5935442,27.0393906 22.4661649,27.2639862 22.2310035,27.4202271 C19.8793895,29.099814 17.2338237,29.9591367 14.2943062,29.9981972 C11.8251115,30.0372576 9.51269141,29.44159 7.35704495,28.2111952 C5.20139849,26.9808004 3.45728538,25.3207442 2.12470382,23.2310258 C0.792122259,21.1413073 0.0866380609,18.8855835 0.00825122685,16.4638543 C-0.0701356072,14.0421252 0.409984985,11.7961658 1.4486148,9.725978 C2.48724461,7.65579021 3.94720466,5.9371429 5.82849586,4.57003785 C7.70978705,3.20293281 9.80664316,2.36313893 12.1190633,2.05065801 C12.3934186,2.01159756 12.6383777,2.07995313 12.8539427,2.25572381 C13.0695076,2.4314945 13.1772896,2.67562075 13.1772896,2.98810167 L13.1772896,16.8739859 Z"/>
  </defs>
  <g fill="none" fill-rule="evenodd">
    <circle cx="32" cy="32" r="32" fill="#7CD2FF" fill-rule="nonzero"/>
    <g transform="translate(16 17)">
      <mask id="statistic---data-pie-b" fill="#FFFFFF">
        <use xlink:href="#statistic---data-pie-a"/>
      </mask>
      <use fill="#002C5C" fill-rule="nonzero" xlink:href="#statistic---data-pie-a"/>
      <g mask="url(#statistic---data-pie-b)">
        <g transform="translate(0 -1)">
          <rect width="32" height="32" fill="#002C5C"/>
          <rect width="32" height="32" fill="none"/>
        </g>
      </g>
    </g>
  </g>
</svg>
