<svg xmlns="http://www.w3.org/2000/svg" xmlns:xlink="http://www.w3.org/1999/xlink" width="64" height="64" viewBox="0 0 64 64">
  <defs>
    <path id="statistic---data-area-a" d="M31.2499255,19.9999523 C31.458258,19.9999523 31.6353416,20.0728691 31.7811742,20.2187018 C31.9270069,20.3645345 31.9999237,20.541618 31.9999237,20.7499505 L31.9999237,23.2499446 C31.9999237,23.4582771 31.9270069,23.6353606 31.7811742,23.7811933 C31.6353416,23.927026 31.458258,23.9999428 31.2499255,23.9999428 L0.749998212,23.9999428 C0.541665693,23.9999428 0.364582146,23.927026 0.218749478,23.7811933 C0.0729168107,23.6353606 0,23.4582771 0,23.2499446 L0,0.749998212 C0,0.541665693 0.0729168107,0.364582146 0.218749478,0.218749478 C0.364582146,0.0729168107 0.541665693,0 0.749998212,0 L3.24999225,0 C3.45832477,0 3.63540832,0.0729168107 3.78124098,0.218749478 C3.92707365,0.364582146 3.99999046,0.541665693 3.99999046,0.749998212 L3.99999046,19.9999523 L31.2499255,19.9999523 Z M23.3124444,5.93748584 L23.3124444,5.99998569 C23.479111,5.83331911 23.6770266,5.78123622 23.906193,5.84373607 C24.1353594,5.90623592 24.2916091,6.04165258 24.3749419,6.2499851 L29.9999285,17.9999571 L5.99998569,17.9999571 L5.99998569,11.4999726 L11.4374727,2.43749419 C11.5624724,2.22916167 11.7603889,2.11457797 12.0312213,2.09374501 C12.3020537,2.07291204 12.5208032,2.16666182 12.6874698,2.37499434 L17.9999571,9.49997735 L23.3124444,5.93748584 Z"/>
  </defs>
  <g fill="none" fill-rule="evenodd">
    <circle cx="32" cy="32" r="32" fill="#7CD2FF" fill-rule="nonzero"/>
    <g transform="translate(16 20)">
      <mask id="statistic---data-area-b" fill="#FFFFFF">
        <use xlink:href="#statistic---data-area-a"/>
      </mask>
      <use fill="#002C5C" fill-rule="nonzero" xlink:href="#statistic---data-area-a"/>
      <g mask="url(#statistic---data-area-b)">
        <g transform="translate(0 -4)">
          <rect width="32" height="32" fill="#002C5C"/>
          <rect width="32" height="32" fill="none"/>
        </g>
      </g>
    </g>
  </g>
</svg>
