<?xml version="1.0" encoding="UTF-8"?>
<svg width="48px" height="48px" viewBox="0 0 48 48" version="1.1" xmlns="http://www.w3.org/2000/svg" xmlns:xlink="http://www.w3.org/1999/xlink">
    <!-- Generator: Sketch 54.1 (76490) - https://sketchapp.com -->
    <title>Group 2</title>
    <desc>Created with Sketch.</desc>
    <defs>
        <path d="M10.4999978,23.9999937 C9.68749735,23.9999928 8.98437256,23.7109302 8.3906225,23.1328056 C7.79687244,22.554681 7.49999776,21.8437435 7.49999776,20.9999937 L13.4999978,20.9999937 C13.499996,21.8437435 13.2031213,22.554681 12.6093712,23.1328056 C12.0156212,23.7109302 11.3124964,23.9999928 10.4999978,23.9999937 Z M20.5781189,16.9687449 C20.8593688,17.2812451 20.9999937,17.6328075 20.9999937,18.0234321 C20.9999937,18.4140568 20.8593688,18.7578071 20.5781189,19.0546818 C20.296869,19.3515565 19.9374938,19.4999942 19.5,19.5 L1.5,19.5 C1.06249992,19.4999942 0.70312479,19.3515565 0.421874874,19.0546818 C0.140624958,18.7578071 0,18.4140568 0,18.0234321 C0,17.6328075 0.140624958,17.2812451 0.421874874,16.9687449 L0.562499832,16.781245 C1.28124938,16.0312452 1.8124997,15.2968702 2.15624936,14.5781207 C2.71874919,13.3281208 2.99999911,11.7187465 2.99999911,9.74999709 C2.99999911,7.9374974 3.56249894,6.35937334 4.6874986,5.01562351 C5.81249827,3.67187367 7.24999808,2.82812392 8.99999732,2.48437426 L9,1.5 C8.99999732,1.09374944 9.14843501,0.74218704 9.44530969,0.445312367 C9.74218436,0.148437694 10.0937468,0 10.5,0 C10.906247,0 11.2578094,0.148437694 11.5546841,0.445312367 C11.8515587,0.74218704 11.9999964,1.09374944 12,1.5 L11.9999964,2.48437426 C13.7499957,2.82812392 15.1874955,3.67187367 16.3124951,5.01562351 C17.4374948,6.35937334 17.9999946,7.9374974 17.9999946,9.74999709 C17.9999946,11.7187465 18.2812446,13.3281208 18.8437444,14.5781207 C19.187494,15.2968702 19.7187444,16.0312452 20.4374939,16.781245 C20.4999937,16.874995 20.5468686,16.9374947 20.5781189,16.9687449 Z" id="path-1"></path>
    </defs>
    <g id="Main-Site---Main-Design" stroke="none" stroke-width="1" fill="none" fill-rule="evenodd">
        <g id="Main---Component-Library-2" transform="translate(-396.000000, -18121.000000)">
            <g id="CTA-Text" transform="translate(0.000000, 16609.000000)">
                <g id="Message-Block" transform="translate(360.000000, 1408.000000)">
                    <g transform="translate(0.000000, 72.000000)" id="Group-17">
                        <g>
                            <g id="Group-2" transform="translate(36.000000, 32.000000)">
                                <rect id="Rectangle-Copy-4" fill="#7CD2FF" x="0" y="0" width="48" height="48" rx="24"></rect>
                                <g id="Icons-/-Fill-/-Guide-Dogs-/-Notification" transform="translate(12.000000, 13.000000)">
                                    <g id="↳Icon-Colour" transform="translate(1.500000, 0.000000)">
                                        <mask id="mask-2" fill="white">
                                            <use xlink:href="#path-1"></use>
                                        </mask>
                                        <use id="Mask" fill="#505860" fill-rule="nonzero" xlink:href="#path-1"></use>
                                        <g id="Colours-/-Supporting-Palette-/-White" mask="url(#mask-2)">
                                            <g transform="translate(-1.500000, 0.000000)">
                                                <rect id="Rectangle-4-Copy-6" fill="#002C5C" x="0" y="0" width="24" height="24"></rect>
                                                <g id="Colours-/-Tints-&amp;-Shade-/-None" fill="none" fill-opacity="0">
                                                    <rect id="Rectangle-9" fill="#002C5C" x="0" y="0" width="24" height="24"></rect>
                                                </g>
                                            </g>
                                        </g>
                                    </g>
                                </g>
                            </g>
                        </g>
                    </g>
                </g>
            </g>
        </g>
    </g>
</svg>
