<svg xmlns="http://www.w3.org/2000/svg" xmlns:xlink="http://www.w3.org/1999/xlink" width="32" height="32" viewBox="0 0 32 32">
  <defs>
    <path id="external-link-a" d="M32,3.42857143 L32,28.5714286 C32,29.5238092 31.6666663,30.3333337 31,31 C30.3333337,31.6666663 29.5238092,32 28.5714286,32 L3.42857143,32 C2.47619084,32 1.6666663,31.6666663 1,31 C0.333333697,30.3333337 0,29.5238092 0,28.5714286 L0,3.42857143 C0,2.47619084 0.333333697,1.6666663 1,1 C1.6666663,0.333333697 2.47619084,0 3.42857143,0 L28.5714286,0 C29.5238092,0 30.3333337,0.333333697 31,1 C31.6666663,1.6666663 32,2.47619084 32,3.42857143 Z M25.7142857,4.57142857 L17.7142857,4.57142857 C17.2380949,4.57142857 16.8333337,4.73809487 16.5,5.07142857 C16.1666663,5.40476227 16,5.80952345 16,6.28571429 C16,6.76190513 16.1666663,7.1666663 16.5,7.5 L18.7857143,9.78571429 L4.85714286,23.7142857 C4.6666663,23.9047623 4.57142857,24.119048 4.57142857,24.3571429 C4.57142857,24.5952377 4.6666663,24.7857143 4.85714286,24.9285714 L7.07142857,27.1428571 C7.21428571,27.3333337 7.40476227,27.4285714 7.64285714,27.4285714 C7.88095202,27.4285714 8.09523773,27.3333337 8.28571429,27.1428571 L22.2142857,13.2142857 L24.5,15.5 C24.8333337,15.8333337 25.2380949,16 25.7142857,16 C26.1904766,16 26.5952377,15.8333337 26.9285714,15.5 C27.2619051,15.1666663 27.4285714,14.7619051 27.4285714,14.2857143 L27.4285714,6.28571429 C27.4285714,5.80952345 27.2619051,5.40476227 26.9285714,5.07142857 C26.5952377,4.73809487 26.1904766,4.57142857 25.7142857,4.57142857 Z"/>
  </defs>
  <g fill="none" fill-rule="evenodd">
    <mask id="external-link-b" fill="#fff">
      <use xlink:href="#external-link-a"/>
    </mask>
    <use fill="#002C5C" fill-rule="nonzero" xlink:href="#external-link-a"/>
    <g mask="url(#external-link-b)">
      <rect width="32" height="32" fill="#002C5C"/>
    </g>
  </g>
</svg>
