<svg xmlns="http://www.w3.org/2000/svg" xmlns:xlink="http://www.w3.org/1999/xlink" width="32" height="32" viewBox="0 0 32 32">
  <defs>
    <path id="download-a" d="M13.5,0 L18.5,0 C18.916667,0 19.270833,0.145833015 19.5625,0.4375 C19.854167,0.729166985 20,1.08333302 20,1.5 L20,12 L25.5,12 C26.041667,12 26.416667,12.260417 26.625,12.78125 C26.833333,13.302083 26.75,13.75 26.375,14.125 L16.875,23.625 C16.625,23.875 16.333333,24 16,24 C15.666667,24 15.375,23.875 15.125,23.625 L5.625,14.125 C5.25,13.75 5.16666698,13.302083 5.375,12.78125 C5.58333302,12.260417 5.95833302,12 6.5,12 L12,12 L12,1.5 C12,1.08333302 12.145833,0.729166985 12.4375,0.4375 C12.729167,0.145833015 13.083333,0 13.5,0 Z M32,23.5 L32,30.5 C32,30.916667 31.854167,31.270833 31.5625,31.5625 C31.270833,31.854167 30.916667,32 30.5,32 L1.5,32 C1.08333302,32 0.729166985,31.854167 0.4375,31.5625 C0.145833015,31.270833 0,30.916667 0,30.5 L0,23.5 C0,23.083333 0.145833015,22.729167 0.4375,22.4375 C0.729166985,22.145833 1.08333302,22 1.5,22 L10.6875,22 L13.75,25.0625 C14.375,25.6875 15.125,26 16,26 C16.875,26 17.625,25.6875 18.25,25.0625 L21.3125,22 L30.5,22 C30.916667,22 31.270833,22.145833 31.5625,22.4375 C31.854167,22.729167 32,23.083333 32,23.5 Z M24.25,29 C24.25,28.666667 24.125,28.375 23.875,28.125 C23.625,27.875 23.333333,27.75 23,27.75 C22.666667,27.75 22.375,27.875 22.125,28.125 C21.875,28.375 21.75,28.666667 21.75,29 C21.75,29.333333 21.875,29.625 22.125,29.875 C22.375,30.125 22.666667,30.25 23,30.25 C23.333333,30.25 23.625,30.125 23.875,29.875 C24.125,29.625 24.25,29.333333 24.25,29 Z M28.25,29 C28.25,28.666667 28.125,28.375 27.875,28.125 C27.625,27.875 27.333333,27.75 27,27.75 C26.666667,27.75 26.375,27.875 26.125,28.125 C25.875,28.375 25.75,28.666667 25.75,29 C25.75,29.333333 25.875,29.625 26.125,29.875 C26.375,30.125 26.666667,30.25 27,30.25 C27.333333,30.25 27.625,30.125 27.875,29.875 C28.125,29.625 28.25,29.333333 28.25,29 Z"/>
  </defs>
  <g fill="none" fill-rule="evenodd">
    <mask id="download-b" fill="#fff">
      <use xlink:href="#download-a"/>
    </mask>
    <use fill="#131E29" fill-rule="nonzero" xlink:href="#download-a"/>
    <g mask="url(#download-b)">
      <rect width="32" height="32" fill="#131E29"/>
    </g>
  </g>
</svg>
