<svg xmlns="http://www.w3.org/2000/svg" xmlns:xlink="http://www.w3.org/1999/xlink" width="32" height="32" viewBox="0 0 32 32">
  <defs>
    <path id="arrows-right-thick-a" d="M13.6428571,2.12844037 L15.2142857,0.513761468 C15.5476194,0.171253449 15.9523806,0 16.4285714,0 C16.9047623,0 17.3095234,0.171253449 17.6428571,0.513761468 L31.5,14.7522936 C31.8333337,15.0948016 32,15.510703 32,16 C32,16.489297 31.8333337,16.9051984 31.5,17.2477064 L17.6428571,31.4862385 C17.3095234,31.8287466 16.9047623,32 16.4285714,32 C15.9523806,32 15.5476194,31.8287466 15.2142857,31.4862385 L13.6428571,29.8715596 C13.2619051,29.5290516 13.0833337,29.1131502 13.1071429,28.6238532 C13.130952,28.1345562 13.3095234,27.7186548 13.6428571,27.3761468 L22.2142857,18.9357798 L1.71428571,18.9357798 C1.23809487,18.9357798 0.833333697,18.7645264 0.5,18.4220183 C0.166666303,18.0795103 0,17.6636089 0,17.1743119 L0,14.8256881 C0,14.3363911 0.166666303,13.9204897 0.5,13.5779817 C0.833333697,13.2354736 1.23809487,13.0642202 1.71428571,13.0642202 L22.2142857,13.0642202 L13.6428571,4.62385321 C13.3095234,4.28134519 13.130952,3.8654438 13.1071429,3.37614679 C13.0833337,2.88684978 13.2619051,2.47094839 13.6428571,2.12844037 Z"/>
  </defs>
  <g fill="none" fill-rule="evenodd">
    <mask id="arrows-right-thick-b" fill="#fff">
      <use xlink:href="#arrows-right-thick-a"/>
    </mask>
    <use fill="#7CD2FF" xlink:href="#arrows-right-thick-a"/>
    <g mask="url(#arrows-right-thick-b)">
      <rect width="32" height="32" fill="#7CD2FF"/>
    </g>
  </g>
</svg>
