<svg xmlns="http://www.w3.org/2000/svg" xmlns:xlink="http://www.w3.org/1999/xlink" width="64" height="64" viewBox="0 0 64 64">
  <defs>
    <path id="statistic---general-dog-a" d="M16,12.0156989 C17.5799044,12.0156989 19.3469037,12.7441504 21.3009961,14.2010526 C23.1303592,15.5330773 24.6894757,17.1772964 25.9783456,19.133708 C27.3087914,21.1317456 27.9740147,22.9216547 27.9740147,24.5034341 C27.9740147,25.5857042 27.5790389,26.4390331 26.7890862,27.0634199 C25.9991335,27.6878066 24.8973585,28 23.4837592,28 C22.7769601,28 22.049372,27.9167487 21.3009961,27.7502453 C20.8436556,27.6253679 20.1992201,27.4380519 19.3676916,27.1882972 L17.6838458,26.6263491 C17.101776,26.5014718 16.5508875,26.4390331 16.0311823,26.4390331 C15.5114771,26.4390331 14.9398008,26.5014718 14.3161542,26.6263491 C13.9419662,26.7512265 13.4014722,26.9177299 12.694673,27.1258585 C11.8215678,27.4172393 11.1563444,27.6253679 10.6990039,27.7502453 C9.95062797,27.9167487 9.22303995,28 8.51624078,28 C7.1026415,28 6.00086648,27.6878066 5.2109138,27.0634199 C4.42096112,26.4390331 4.02598526,25.5857042 4.02598526,24.5034341 C4.02598526,22.9216547 4.69120861,21.1317456 6.02165438,19.133708 C7.31052434,17.1772964 8.86964084,15.5330773 10.6990039,14.2010526 C12.6530963,12.7441504 14.4200956,12.0156989 16,12.0156989 Z M6.83239496,11.2039961 C7.16500616,12.2862662 7.12343036,13.2956918 6.70766564,14.2322719 C6.29190092,15.168852 5.62667852,15.7412069 4.71199652,15.9493355 C3.79731452,16.1574641 2.90342137,15.9597423 2.03031613,15.3561681 C1.15721089,14.7525939 0.554352191,13.9096718 0.221740988,12.8274017 C-0.110870216,11.7451316 -0.0692944101,10.735706 0.346470308,9.79912589 C0.762235026,8.86254574 1.42745743,8.29019089 2.34213943,8.08206229 C3.25682143,7.87393369 4.15071458,8.07165553 5.02381982,8.67522971 C5.89692506,9.2788039 6.49978376,10.121726 6.83239496,11.2039961 Z M12.0710264,9.95522258 C11.1147686,10.2049773 10.1689043,9.93441 9.23343438,9.14351979 C8.29796447,8.35262957 7.64313554,7.28076626 7.26894758,5.92792796 C6.89475962,4.57508966 6.91554752,3.32631613 7.33131224,2.18160739 C7.74707696,1.03689864 8.4434817,0.33966644 9.42052836,0.0899117354 C10.397575,-0.159842969 11.3538328,0.11072431 12.2893027,0.901614526 C13.2247726,1.69250474 13.8796016,2.76436805 14.2537895,4.11720635 C14.6279775,5.47004465 14.6071896,6.71881818 14.1914249,7.86352692 C13.7756601,9.00823567 13.068861,9.70546787 12.0710264,9.95522258 Z M29.6578606,8.08206229 C30.5725426,8.29019089 31.237765,8.86254574 31.6535297,9.79912589 C32.0692944,10.735706 32.1108702,11.7451316 31.778259,12.8274017 C31.4456478,13.9096718 30.8427891,14.7525939 29.9696839,15.3561681 C29.0965786,15.9597423 28.2026855,16.1574641 27.2880035,15.9493355 C26.3733215,15.7412069 25.7080991,15.168852 25.2923344,14.2322719 C24.8765696,13.2956918 24.8349938,12.2862662 25.167605,11.2039961 C25.5002162,10.121726 26.1030749,9.2788039 26.9761802,8.67522971 C27.8492854,8.07165553 28.7431786,7.87393369 29.6578606,8.08206229 Z M19.9289736,9.95522258 C18.931139,9.70546787 18.2243399,9.00823567 17.8085751,7.86352692 C17.3928104,6.71881818 17.3720225,5.47004465 17.7462105,4.11720635 C18.1203984,2.76436805 18.7752274,1.69250474 19.7106973,0.901614526 C20.6461672,0.11072431 21.602425,-0.159842969 22.5794716,0.0899117354 C23.5565183,0.33966644 24.252923,1.03689864 24.6686878,2.18160739 C25.0844525,3.32631613 25.1052404,4.57508966 24.7310524,5.92792796 C24.3568645,7.28076626 23.7020355,8.35262957 22.7665656,9.14351979 C21.8310957,9.93441 20.8852314,10.2049773 19.9289736,9.95522258 Z"/>
  </defs>
  <g fill="none" fill-rule="evenodd">
    <circle cx="32" cy="32" r="32" fill="#7CD2FF" fill-rule="nonzero"/>
    <g transform="translate(16 18)">
      <mask id="statistic---general-dog-b" fill="#FFFFFF">
        <use xlink:href="#statistic---general-dog-a"/>
      </mask>
      <use fill="#002C5C" fill-rule="nonzero" xlink:href="#statistic---general-dog-a"/>
      <g mask="url(#statistic---general-dog-b)">
        <g transform="translate(0 -2)">
          <rect width="32" height="32" fill="#002C5C"/>
          <rect width="32" height="32" fill="none"/>
        </g>
      </g>
    </g>
  </g>
</svg>
