<svg xmlns="http://www.w3.org/2000/svg" xmlns:xlink="http://www.w3.org/1999/xlink" width="32" height="32" viewBox="0 0 32 32">
  <defs>
    <path id="mp3-a" d="M14,8.5 C14,8.91666698 14.145833,9.27083302 14.4375,9.5625 C14.729167,9.85416698 15.083333,10 15.5,10 L24,10 L24,30.5 C24,30.916667 23.854167,31.270833 23.5625,31.5625 C23.270833,31.854167 22.916667,32 22.5,32 L1.5,32 C1.08333302,32 0.729166985,31.854167 0.4375,31.5625 C0.145833015,31.270833 0,30.916667 0,30.5 L0,1.5 C0,1.08333302 0.145833015,0.729166985 0.4375,0.4375 C0.729166985,0.145833015 1.08333302,0 1.5,0 L14,0 L14,8.5 Z M10,25.25 L10,16.75 C10,16.416667 9.84375,16.1875 9.53125,16.0625 C9.21875,15.9375 8.95833302,15.979167 8.75,16.1875 L6.5,18.5 L4.75,18.5 C4.54166698,18.5 4.36458302,18.572917 4.21875,18.71875 C4.07291698,18.864583 4,19.041667 4,19.25 L4,22.75 C4,22.958333 4.07291698,23.135417 4.21875,23.28125 C4.36458302,23.427083 4.54166698,23.5 4.75,23.5 L6.5,23.5 L8.75,25.75 C8.95833302,26 9.21875,26.0625 9.53125,25.9375 C9.84375,25.8125 10,25.583333 10,25.25 Z M12.0625,22.25 C11.645833,22.708333 11.53125,23.197917 11.71875,23.71875 C11.90625,24.239583 12.260417,24.583333 12.78125,24.75 C13.302083,24.916667 13.791667,24.791667 14.25,24.375 C15.083333,23.5 15.5,22.447917 15.5,21.21875 C15.5,19.989583 15.083333,18.958333 14.25,18.125 C13.791667,17.666667 13.302083,17.520833 12.78125,17.6875 C12.260417,17.854167 11.90625,18.197917 11.71875,18.71875 C11.53125,19.239583 11.645833,19.729167 12.0625,20.1875 C12.354167,20.479167 12.5,20.822917 12.5,21.21875 C12.5,21.614583 12.354167,21.958333 12.0625,22.25 Z M17.4375,14.9375 C17.020833,14.520833 16.541667,14.395833 16,14.5625 C15.458333,14.729167 15.09375,15.072917 14.90625,15.59375 C14.71875,16.114583 14.854167,16.604167 15.3125,17.0625 C16.4375,18.229167 17,19.625 17,21.25 C17,22.875 16.4375,24.270833 15.3125,25.4375 C14.854167,25.895833 14.71875,26.385417 14.90625,26.90625 C15.09375,27.427083 15.458333,27.770833 16,27.9375 C16.541667,28.104167 17.020833,27.958333 17.4375,27.5 C18.5625,26.375 19.322917,25.052083 19.71875,23.53125 C20.114583,22.010417 20.114583,20.489583 19.71875,18.96875 C19.322917,17.447917 18.5625,16.104167 17.4375,14.9375 Z M24,8 L16,8 L16,0 L16.375,0 C16.791667,0 17.145833,0.145833015 17.4375,0.4375 L23.5625,6.5625 C23.854167,6.85416698 24,7.20833302 24,7.625 L24,8 Z"/>
  </defs>
  <g fill="none" fill-rule="evenodd" transform="translate(4)">
    <mask id="mp3-b" fill="#fff">
      <use xlink:href="#mp3-a"/>
    </mask>
    <use fill="#002C5C" fill-rule="nonzero" xlink:href="#mp3-a"/>
    <g mask="url(#mp3-b)">
      <g transform="translate(-4)">
        <rect width="32" height="32" fill="#002C5C"/>
      </g>
    </g>
  </g>
</svg>
