<svg xmlns="http://www.w3.org/2000/svg" xmlns:xlink="http://www.w3.org/1999/xlink" width="32" height="32" viewBox="0 0 32 32">
  <defs>
    <path id="word-doc-&amp;-docx-a" d="M14,8.5 C14,8.91666698 14.145833,9.27083302 14.4375,9.5625 C14.729167,9.85416698 15.083333,10 15.5,10 L24,10 L24,30.5 C24,30.916667 23.854167,31.270833 23.5625,31.5625 C23.270833,31.854167 22.916667,32 22.5,32 L1.5,32 C1.08333302,32 0.729166985,31.854167 0.4375,31.5625 C0.145833015,31.270833 0,30.916667 0,30.5 L0,1.5 C0,1.08333302 0.145833015,0.729166985 0.4375,0.4375 C0.729166985,0.145833015 1.08333302,0 1.5,0 L14,0 L14,8.5 Z M17.5625,16 C17.395833,16 17.239583,16.052083 17.09375,16.15625 C16.947917,16.260417 16.875,16.395833 16.875,16.5625 C16.25,19.4375 15.833333,21.5 15.625,22.75 C15.541667,23.458333 15.5,24.041667 15.5,24.5 L15.5,24.6875 C15.416667,24.0625 14.791667,21.354167 13.625,16.5625 C13.583333,16.395833 13.5,16.260417 13.375,16.15625 C13.25,16.052083 13.104167,16 12.9375,16 L11.125,16 C10.916667,16 10.75,16.052083 10.625,16.15625 C10.5,16.260417 10.416667,16.395833 10.375,16.5625 L9.8125,18.9375 C9.02083302,22.104167 8.60416698,23.875 8.5625,24.25 C8.47916698,23.125 8.02083302,20.583333 7.1875,16.625 C7.1875,16.416667 7.11458302,16.260417 6.96875,16.15625 C6.82291698,16.052083 6.66666698,16 6.5,16 L4.9375,16 C4.6875,16 4.48958302,16.09375 4.34375,16.28125 C4.19791698,16.46875 4.16666698,16.6875 4.25,16.9375 L6.5625,27.4375 C6.60416698,27.604167 6.69791698,27.739583 6.84375,27.84375 C6.98958302,27.947917 7.14583302,28 7.3125,28 L9.625,28 C9.79166698,28 9.94791698,27.947917 10.09375,27.84375 C10.239583,27.739583 10.333333,27.604167 10.375,27.4375 L11.75,21.75 C11.875,21.291667 11.9375,20.875 11.9375,20.5 L12,20.5 L12.0625,21.125 C12.145833,21.625 12.416667,22.770833 12.875,24.5625 L13.5625,27.4375 C13.604167,27.604167 13.697917,27.739583 13.84375,27.84375 C13.989583,27.947917 14.145833,28 14.3125,28 L16.6875,28 C16.854167,28 17.010417,27.947917 17.15625,27.84375 C17.302083,27.739583 17.395833,27.604167 17.4375,27.4375 L19.8125,16.9375 C19.854167,16.6875 19.802083,16.46875 19.65625,16.28125 C19.510417,16.09375 19.3125,16 19.0625,16 L17.5625,16 Z M24,8 L16,8 L16,0 L16.375,0 C16.791667,0 17.145833,0.145833015 17.4375,0.4375 L23.5625,6.5625 C23.854167,6.85416698 24,7.20833302 24,7.625 L24,8 Z"/>
  </defs>
  <g fill="none" fill-rule="evenodd" transform="translate(4)">
    <mask id="word-doc-&amp;-docx-b" fill="#fff">
      <use xlink:href="#word-doc-&amp;-docx-a"/>
    </mask>
    <use fill="#002C5C" fill-rule="nonzero" xlink:href="#word-doc-&amp;-docx-a"/>
    <g mask="url(#word-doc-&amp;-docx-b)">
      <g transform="translate(-4)">
        <rect width="32" height="32" fill="#002C5C"/>
      </g>
    </g>
  </g>
</svg>
