<?xml version="1.0" encoding="UTF-8"?>
<svg width="32px" height="29px" viewBox="0 0 32 29" version="1.1" xmlns="http://www.w3.org/2000/svg" xmlns:xlink="http://www.w3.org/1999/xlink">
    <!-- Generator: Sketch 53.2 (72643) - https://sketchapp.com -->
    <title>Error</title>
    <desc>Created with Sketch.</desc>
    <defs>
        <path d="M31.6765635,24.4737842 C31.9730467,25.0667515 32.0656981,25.6689832 31.9545168,26.2804804 C31.8433355,26.8919775 31.5468523,27.4108233 31.0650664,27.8370186 C30.5832804,28.2632139 30.008844,28.4763111 29.3417562,28.4763111 L2.6582438,28.4763111 C1.99115599,28.4763111 1.41671955,28.2632139 0.934933627,27.8370186 C0.453147704,27.4108233 0.156664516,26.8919775 0.0454832139,26.2804804 C-0.0656980878,25.6689832 0.0269532797,25.0667515 0.323436468,24.4737842 L13.6651927,1.34807349 C13.9987366,0.75510627 14.4712571,0.356707171 15.0827543,0.152874502 C15.6942514,-0.0509581673 16.3057486,-0.0509581673 16.9172457,0.152874502 C17.5287429,0.356707171 18.0012634,0.75510627 18.3348073,1.34807349 L31.6765635,24.4737842 Z M16,19.6929883 C15.2958515,19.6929883 14.6936197,19.9431462 14.1933038,20.4434621 C13.692988,20.9437779 13.4428301,21.5460097 13.4428301,22.2501582 C13.4428301,22.9543067 13.692988,23.5565385 14.1933038,24.0568544 C14.6936197,24.5571702 15.2958515,24.8073281 16,24.8073281 C16.7041485,24.8073281 17.3063803,24.5571702 17.8066962,24.0568544 C18.307012,23.5565385 18.5571699,22.9543067 18.5571699,22.2501582 C18.5571699,21.5460097 18.307012,20.9437779 17.8066962,20.4434621 C17.3063803,19.9431462 16.7041485,19.6929883 16,19.6929883 Z M13.5540114,10.5205309 L13.9987366,18.0808594 C13.9987366,18.2291014 14.0635926,18.368078 14.1933038,18.4977893 C14.3230151,18.6275005 14.4805225,18.6923566 14.6658244,18.6923566 L17.3341756,18.6923566 C17.5194775,18.6923566 17.6769849,18.6275005 17.8066962,18.4977893 C17.9364074,18.368078 18.0012634,18.2291014 18.0012634,18.0808594 L18.4459886,10.5205309 C18.4459886,10.2981683 18.3811326,10.1221309 18.2514214,9.9924197 C18.1217101,9.86270846 17.9642027,9.79785242 17.7789008,9.79785242 L14.2210992,9.79785242 C14.0357973,9.79785242 13.8782899,9.86270846 13.7485786,9.9924197 C13.6188674,10.1221309 13.5540114,10.2981683 13.5540114,10.5205309 Z" id="path-1"></path>
    </defs>
    <g id="Page-1" stroke="none" stroke-width="1" fill="none" fill-rule="evenodd">
        <g id="Error">
            <g id="error-a-link" fill="#FFFFFF" fill-rule="nonzero">
                <path d="M31.6765635,24.4737842 C31.9730467,25.0667515 32.0656981,25.6689832 31.9545168,26.2804804 C31.8433355,26.8919775 31.5468523,27.4108233 31.0650664,27.8370186 C30.5832804,28.2632139 30.008844,28.4763111 29.3417562,28.4763111 L2.6582438,28.4763111 C1.99115599,28.4763111 1.41671955,28.2632139 0.934933627,27.8370186 C0.453147704,27.4108233 0.156664516,26.8919775 0.0454832139,26.2804804 C-0.0656980878,25.6689832 0.0269532797,25.0667515 0.323436468,24.4737842 L13.6651927,1.34807349 C13.9987366,0.75510627 14.4712571,0.356707171 15.0827543,0.152874502 C15.6942514,-0.0509581673 16.3057486,-0.0509581673 16.9172457,0.152874502 C17.5287429,0.356707171 18.0012634,0.75510627 18.3348073,1.34807349 L31.6765635,24.4737842 Z M16,19.6929883 C15.2958515,19.6929883 14.6936197,19.9431462 14.1933038,20.4434621 C13.692988,20.9437779 13.4428301,21.5460097 13.4428301,22.2501582 C13.4428301,22.9543067 13.692988,23.5565385 14.1933038,24.0568544 C14.6936197,24.5571702 15.2958515,24.8073281 16,24.8073281 C16.7041485,24.8073281 17.3063803,24.5571702 17.8066962,24.0568544 C18.307012,23.5565385 18.5571699,22.9543067 18.5571699,22.2501582 C18.5571699,21.5460097 18.307012,20.9437779 17.8066962,20.4434621 C17.3063803,19.9431462 16.7041485,19.6929883 16,19.6929883 Z M13.5540114,10.5205309 L13.9987366,18.0808594 C13.9987366,18.2291014 14.0635926,18.368078 14.1933038,18.4977893 C14.3230151,18.6275005 14.4805225,18.6923566 14.6658244,18.6923566 L17.3341756,18.6923566 C17.5194775,18.6923566 17.6769849,18.6275005 17.8066962,18.4977893 C17.9364074,18.368078 18.0012634,18.2291014 18.0012634,18.0808594 L18.4459886,10.5205309 C18.4459886,10.2981683 18.3811326,10.1221309 18.2514214,9.9924197 C18.1217101,9.86270846 17.9642027,9.79785242 17.7789008,9.79785242 L14.2210992,9.79785242 C14.0357973,9.79785242 13.8782899,9.86270846 13.7485786,9.9924197 C13.6188674,10.1221309 13.5540114,10.2981683 13.5540114,10.5205309 Z" id="error-a"></path>
            </g>
            <g id="Clipped">
                <mask id="mask-2" fill="white">
                    <use xlink:href="#path-1"></use>
                </mask>
                <g id="error-a"></g>
                <g id="Group" mask="url(#mask-2)">
                    <g transform="translate(0.000000, -2.000000)" id="Rectangle">
                        <rect fill="#B20C1E" fill-rule="nonzero" x="0" y="0" width="32" height="32"></rect>
                        <rect fill="none" x="0" y="0" width="32" height="32"></rect>
                    </g>
                </g>
            </g>
        </g>
    </g>
</svg>