<svg xmlns="http://www.w3.org/2000/svg" xmlns:xlink="http://www.w3.org/1999/xlink" width="32" height="32" viewBox="0 0 32 32">
  <defs>
    <path id="link-a" d="M20.4374999,11.5625001 C21.6458329,12.8125 22.4583329,14.25 22.8749999,15.875 C23.2916669,17.5 23.2916669,19.125 22.8749999,20.7499999 C22.4583329,22.3749999 21.6458329,23.7916669 20.4374999,24.9999999 L16.1875,29.2499998 C14.979167,30.4583328 13.5625,31.2708328 11.9375001,31.6874998 C10.3125001,32.1041667 8.68750011,32.1041667 7.06250013,31.6874998 C5.43750016,31.2708328 4.01041716,30.4479168 2.7812502,29.2187498 C1.55208323,27.9895828 0.729167212,26.5624998 0.312500234,24.9374999 C-0.104166745,23.3124999 -0.104166745,21.6874999 0.312500234,20.0624999 C0.729167212,18.4375 1.5416672,17.020833 2.7500002,15.8125 L5.12500016,13.4375 C5.41666714,13.1458331 5.76041714,13.0833331 6.15625015,13.25 C6.55208316,13.416667 6.77083315,13.708333 6.81250014,14.125 C6.85416712,15.25 7.06250013,16.354167 7.43750013,17.4375 C7.56250013,17.8125 7.47916711,18.145833 7.18750013,18.4375 L6.37500014,19.3125 C5.50000016,20.1874999 5.05208318,21.2395829 5.03125016,22.4687499 C5.01041715,23.6979169 5.43750016,24.7604169 6.31250014,25.6562499 C7.18750013,26.5520829 8.25000012,26.9999998 9.5000001,26.9999998 C10.7500001,26.9999998 11.8125001,26.5624998 12.6875,25.6874999 L16.875,21.4999999 C17.75,20.6249999 18.1875,19.5624999 18.1875,18.3125 C18.1875,17.0625 17.75,16 16.875,15.125 C16.666667,14.916667 16.4375,14.729167 16.1875,14.5625 C15.9375,14.395833 15.8125,14.145833 15.8125,13.8125 C15.770833,13.0625 16,12.4375001 16.5,11.9375001 L17.875,10.6250001 C18.041667,10.4583331 18.239583,10.3645831 18.46875,10.3437501 C18.6979169,10.3229171 18.9166669,10.3750001 19.125,10.5000001 C19.583333,10.8333331 20.020833,11.1875001 20.4374999,11.5625001 Z M29.2499998,2.7500002 C30.4583328,4.00000018 31.2708328,5.43750016 31.6874998,7.06250013 C32.1041667,8.68750011 32.1041667,10.3125001 31.6874998,11.9375001 C31.2708328,13.5625 30.4583328,14.979167 29.2499998,16.1875 L26.8749998,18.5625 C26.5833329,18.8541669 26.2395829,18.9166669 25.8437499,18.75 C25.4479168,18.583333 25.2291668,18.291667 25.1874999,17.875 C25.1458329,16.75 24.9374999,15.645833 24.5624999,14.5625 C24.4374999,14.1875 24.5208329,13.854167 24.8124999,13.5625 L25.6249999,12.6875 C26.4999998,11.8125001 26.9479168,10.7604171 26.9687498,9.5312501 C26.9895829,8.30208313 26.5624998,7.23958315 25.6874999,6.34375014 C24.8124999,5.44791714 23.7499999,5.00000016 22.4999999,5.00000016 C21.2499999,5.00000016 20.1874999,5.43750016 19.3125,6.31250014 L15.125,10.5000001 C14.25,11.3750001 13.8125,12.4375001 13.8125,13.6875 C13.8125,14.9375 14.25,16 15.125,16.875 C15.333333,17.083333 15.5625,17.270833 15.8125,17.4375 C16.0625,17.604167 16.1875,17.854167 16.1875,18.1875 C16.229167,18.9375 16,19.5624999 15.5,20.0624999 L14.125,21.3749999 C13.958333,21.5416669 13.760417,21.6354169 13.53125,21.6562499 C13.3020831,21.6770829 13.0833331,21.6249999 12.875,21.4999999 C12.416667,21.1666669 11.979167,20.8124999 11.5625001,20.4374999 C10.3541671,19.1875 9.54166708,17.75 9.1250001,16.125 C8.70833312,14.5 8.70833312,12.875 9.1250001,11.2500001 C9.54166708,9.62500009 10.3541671,8.20833313 11.5625001,7.00000013 L15.8125,2.7500002 C17.020833,1.5416672 18.4375,0.729167212 20.0624999,0.312500234 C21.6874999,-0.104166745 23.3124999,-0.104166745 24.9374999,0.312500234 C26.5624998,0.729167212 27.9999998,1.5416672 29.2499998,2.7500002 Z"/>
  </defs>
  <g fill="none" fill-rule="evenodd">
    <mask id="link-b" fill="#fff">
      <use xlink:href="#link-a"/>
    </mask>
    <use fill="#FFF" fill-rule="nonzero" xlink:href="#link-a"/>
    <g mask="url(#link-b)">
      <rect width="32" height="32" fill="#002C5C"/>
      <rect width="32" height="32" fill="none"/>
    </g>
  </g>
</svg>
