<?xml version="1.0" encoding="UTF-8"?>
<svg width="32px" height="29px" viewBox="0 0 32 29" version="1.1" xmlns="http://www.w3.org/2000/svg" xmlns:xlink="http://www.w3.org/1999/xlink">
    <!-- Generator: Sketch 53.2 (72643) - https://sketchapp.com -->
    <title>edit</title>
    <desc>Created with Sketch.</desc>
    <defs>
        <path d="M27.389,9.611 C27.4965812,9.71177053 27.5576266,9.85259438 27.5576266,10 C27.5576266,10.1474056 27.4965812,10.2882295 27.389,10.389 L15.222,22.556 L10.112,23.111 C9.741,23.148 9.435,23.046 9.194,22.806 C8.954,22.565 8.852,22.259 8.889,21.889 L9.444,16.778 L21.611,4.61 C21.7122247,4.50338742 21.8529891,4.44331828 22,4.444 C22.148,4.444 22.278,4.5 22.389,4.611 L27.389,9.611 Z M31.389,3.333 C31.796,3.778 32,4.296 32,4.889 C32.0120527,5.45189211 31.7909334,5.99473824 31.389,6.389 L29.389,8.389 C29.2879478,8.4959812 29.1471609,8.55642186 29,8.556 C28.8528391,8.55642186 28.7120522,8.4959812 28.611,8.389 L23.611,3.389 C23.5040188,3.28794785 23.4435781,3.14716092 23.444,3 C23.444,2.852 23.5,2.722 23.611,2.611 L25.611,0.611 C26.0052618,0.209066598 26.5481079,-0.012052725 27.111,-2.26489834e-16 C27.6892708,-0.00579434709 28.2471782,0.21328112 28.667,0.611 L31.389,3.333 Z M21.333,19.223 C21.333,19.037 21.407,18.889 21.556,18.778 L23.778,16.556 C23.963,16.333 24.194,16.278 24.472,16.389 C24.75,16.5 24.889,16.704 24.889,17 L24.889,25.778 C24.889,26.518 24.629,27.148 24.111,27.667 C23.6155783,28.1756409 22.9319248,28.4568472 22.222,28.444 L2.667,28.444 C1.926,28.444 1.297,28.185 0.777,27.667 C0.268103328,27.1713388 -0.0131249414,26.4872701 0,25.777 L0,6.223 C0,5.483 0.26,4.853 0.778,4.334 C1.27342171,3.82535912 1.95707524,3.54415277 2.667,3.557 L18.556,3.557 C18.852,3.557 19.056,3.695 19.166,3.973 C19.278,4.251 19.222,4.483 19,4.668 L16.778,6.945 C16.6589801,7.05955112 16.4979978,7.11996471 16.333,7.112 L3.556,7.112 L3.556,24.89 L21.333,24.89 L21.333,19.223 Z" id="path-1"></path>
    </defs>
    <g id="Page-1" stroke="none" stroke-width="1" fill="none" fill-rule="evenodd">
        <g id="edit">
            <g id="a-link" fill="#FFFFFF" fill-rule="nonzero">
                <path d="M27.389,9.611 C27.4965812,9.71177053 27.5576266,9.85259438 27.5576266,10 C27.5576266,10.1474056 27.4965812,10.2882295 27.389,10.389 L15.222,22.556 L10.112,23.111 C9.741,23.148 9.435,23.046 9.194,22.806 C8.954,22.565 8.852,22.259 8.889,21.889 L9.444,16.778 L21.611,4.61 C21.7122247,4.50338742 21.8529891,4.44331828 22,4.444 C22.148,4.444 22.278,4.5 22.389,4.611 L27.389,9.611 Z M31.389,3.333 C31.796,3.778 32,4.296 32,4.889 C32.0120527,5.45189211 31.7909334,5.99473824 31.389,6.389 L29.389,8.389 C29.2879478,8.4959812 29.1471609,8.55642186 29,8.556 C28.8528391,8.55642186 28.7120522,8.4959812 28.611,8.389 L23.611,3.389 C23.5040188,3.28794785 23.4435781,3.14716092 23.444,3 C23.444,2.852 23.5,2.722 23.611,2.611 L25.611,0.611 C26.0052618,0.209066598 26.5481079,-0.012052725 27.111,-2.26489834e-16 C27.6892708,-0.00579434709 28.2471782,0.21328112 28.667,0.611 L31.389,3.333 Z M21.333,19.223 C21.333,19.037 21.407,18.889 21.556,18.778 L23.778,16.556 C23.963,16.333 24.194,16.278 24.472,16.389 C24.75,16.5 24.889,16.704 24.889,17 L24.889,25.778 C24.889,26.518 24.629,27.148 24.111,27.667 C23.6155783,28.1756409 22.9319248,28.4568472 22.222,28.444 L2.667,28.444 C1.926,28.444 1.297,28.185 0.777,27.667 C0.268103328,27.1713388 -0.0131249414,26.4872701 0,25.777 L0,6.223 C0,5.483 0.26,4.853 0.778,4.334 C1.27342171,3.82535912 1.95707524,3.54415277 2.667,3.557 L18.556,3.557 C18.852,3.557 19.056,3.695 19.166,3.973 C19.278,4.251 19.222,4.483 19,4.668 L16.778,6.945 C16.6589801,7.05955112 16.4979978,7.11996471 16.333,7.112 L3.556,7.112 L3.556,24.89 L21.333,24.89 L21.333,19.223 Z" id="a"></path>
            </g>
            <g id="Clipped">
                <mask id="mask-2" fill="white">
                    <use xlink:href="#path-1"></use>
                </mask>
                <g id="a"></g>
                <g id="Group" mask="url(#mask-2)">
                    <g transform="translate(0.000000, -2.000000)" id="Path">
                        <polygon fill="#002C5C" fill-rule="nonzero" points="0 0 32 0 32 32 0 32"></polygon>
                        <polygon fill="none" points="0 0 32 0 32 32 0 32"></polygon>
                    </g>
                </g>
            </g>
        </g>
    </g>
</svg>
