<svg xmlns="http://www.w3.org/2000/svg" width="80" height="80" viewBox="0 0 80 80">
  <g fill="none">
    <circle cx="40" cy="40" r="40" fill="#7CD2FF"/>
    <path fill="#002C5C" d="M27.4285796,56 C26.4761908,56 25.6666663,55.6666663 25,55 C24.3333337,54.3333337 24,53.5238092 24,52.5714286 L24,27.4285796 C24,26.4761908 24.3333337,25.6666663 25,25 C25.6666663,24.3333337 26.4761908,24 27.4285796,24 L34.2857143,24 C35.2380949,24 36.0476194,24.3333337 36.7142857,25 C37.380952,25.6666663 37.7142857,26.4761908 37.7142857,27.4285796 L37.7142857,52.5714286 C37.7142857,53.5238092 37.380952,54.3333337 36.7142857,55 C36.0476194,55.6666663 35.2380949,56 34.2857143,56 L27.4285796,56 Z M56,52.5714286 C56,53.5238092 55.6666663,54.3333337 55,55 C54.3333337,55.6666663 53.5238092,56 52.5714286,56 L45.7142939,56 C44.7619051,56 43.9523806,55.6666663 43.2857143,55 C42.619048,54.3333337 42.2857143,53.5238092 42.2857143,52.5714286 L42.2857143,27.4285796 C42.2857143,26.4761908 42.619048,25.6666663 43.2857143,25 C43.9523806,24.3333337 44.7619051,24 45.7142939,24 L52.5714286,24 C53.5238092,24 54.3333337,24.3333337 55,25 C55.6666663,25.6666663 56,26.4761908 56,27.4285796 L56,52.5714286 Z"/>
  </g>
</svg>
